<?xml version="1.0" encoding="UTF-8" standalone="no"?>
<!-- Created with Inkscape (http://www.inkscape.org/) -->

<svg
   xmlns:dc="http://purl.org/dc/elements/1.1/"
   xmlns:cc="http://creativecommons.org/ns#"
   xmlns:rdf="http://www.w3.org/1999/02/22-rdf-syntax-ns#"
   xmlns:svg="http://www.w3.org/2000/svg"
   xmlns="http://www.w3.org/2000/svg"
   xmlns:sodipodi="http://sodipodi.sourceforge.net/DTD/sodipodi-0.dtd"
   xmlns:inkscape="http://www.inkscape.org/namespaces/inkscape"
   id="svg2"
   version="1.1"
   inkscape:version="0.91 r13725"
   width="2502"
   height="4559"
   viewBox="0 0 2502 4559"
   sodipodi:docname="tsf.svg">
  <metadata
     id="metadata8">
    <rdf:RDF>
      <cc:Work
         rdf:about="">
        <dc:format>image/svg+xml</dc:format>
        <dc:type
           rdf:resource="http://purl.org/dc/dcmitype/StillImage" />
        <dc:title></dc:title>
      </cc:Work>
    </rdf:RDF>
  </metadata>
  <defs
     id="defs6" />
  <sodipodi:namedview
     pagecolor="#ffffff"
     bordercolor="#666666"
     borderopacity="1"
     objecttolerance="10"
     gridtolerance="10"
     guidetolerance="10"
     inkscape:pageopacity="0"
     inkscape:pageshadow="2"
     inkscape:window-width="1440"
     inkscape:window-height="847"
     id="namedview4"
     showgrid="false"
     inkscape:zoom="0.20706295"
     inkscape:cx="943.34668"
     inkscape:cy="2076.8737"
     inkscape:window-x="-8"
     inkscape:window-y="-8"
     inkscape:window-maximized="1"
     inkscape:current-layer="svg2" />
  <g
     id="g4159">
    <path
       sodipodi:nodetypes="sssssssssssssssssssssssssssssssssccsscsssssssscsssssscssssssssscssssssssssccsssssssssssssssssssssssscssssssscs"
       style="fill:#4c9dd5"
       d="M 1190.1451,3491.3421 C 1063.7852,3484.434 946.62871,3458.8592 829.71089,3412.6607 662.87457,3346.7377 507.0659,3237.6159 386.83669,3102.4906 348.23105,3059.1018 315.24653,3016.3103 281.78566,2966.206 168.56518,2796.6695 99.980251,2603.3934 80.846213,2399.9475 c -6.282174,-66.7962 -7.013131,-150.5411 -1.89772,-217.42 12.398191,-162.0938 55.533677,-317.4449 127.984067,-460.9306 88.12728,-174.5331 216.44592,-325.4184 371.05421,-436.3091 110.10557,-78.9718 223.61698,-134.7388 351.2542,-172.5675 201.87573,-59.8314 430.00583,-60.9836 632.45083,-3.1943 171.7412,49.0246 326.9295,135.2208 463.5138,257.449 21.4408,19.1872 64.7993,62.4084 83.8371,83.5716 136.6246,151.8775 232.6354,332.4191 281.3478,529.0555 43.9931,177.5856 47.8172,371.2809 10.9032,552.2469 -28.5614,140.0184 -83.287,278.0063 -157.935,398.2256 -40.0319,64.4705 -81.7807,120.1809 -133.1634,177.696 -17.3519,19.4228 -69.2441,71.0594 -88.9073,88.4693 -111.808,98.9961 -235.2252,173.9466 -368.7629,223.9476 -104.9602,39.3006 -204.2093,60.977 -319.8491,69.8561 -23.2028,1.7816 -117.9117,2.6443 -142.5309,1.2985 z M 799.27209,3268.6433 c 75.8098,-8.4205 160.33596,-45.6953 241.09471,-106.3192 27.6146,-20.7297 36.196,-28.5611 46.5423,-42.4746 43.0416,-57.8818 74.5879,-124.4896 92.4468,-195.1949 7.1446,-28.2864 11.4662,-53.1633 14.6045,-84.0691 9.0828,-89.448 34.6422,-499.6393 48.9824,-786.0943 2.497,-49.8812 2.9658,-106.7276 0.996,-120.7889 -1.7483,-12.4803 -4.6702,-23.7578 -7.5112,-28.9913 -1.2989,-2.3927 -5.1696,-7.8282 -8.6013,-12.0789 -11.2656,-13.9537 -15.3913,-20.022 -20.3125,-29.8756 -4.7726,-9.5563 -4.9644,-9.7822 -11.1126,-13.0926 -8.5461,-4.6016 -25.8212,-21.8463 -33.6897,-33.6309 -18.7507,-28.0823 -29.9317,-62.2442 -35.4945,-108.4476 -2.3335,-19.3819 -2.355,-59.9673 -0.042,-78.9664 1.9038,-15.6368 4.7388,-27.8123 7.0773,-30.3966 2.2901,-2.5304 4.7698,-2.2079 12.87,1.674 12.7713,6.1204 24.6843,15.1584 65.0987,49.3884 12.6735,10.734 23.5445,19.2913 24.1578,19.0162 0.6134,-0.2752 5.1285,-5.3549 10.0337,-11.2883 13.1634,-15.9228 29.3347,-33.6757 57.7986,-63.452 39.8813,-41.7199 51.0137,-52.8781 53.2846,-53.4075 3.7192,-0.8671 6.2414,2.2103 12.4149,15.1479 16.6467,34.8854 26.4126,76.5477 30.4869,130.0592 3.1579,41.476 -2.9355,71.6909 -22.1183,109.6763 -16.2935,32.264 -42.3293,65.7633 -75.7954,97.523 -14.4266,13.691 -17.6281,18.2044 -22.413,31.5965 -13.9884,39.152 -19.8383,115.8935 -19.8426,260.304 0,74.5509 1.7687,121.5058 7.2615,192.5342 8.8524,114.4723 27.682,266.1242 55.0906,443.6954 14.4591,93.6755 17.9332,111.2306 28.1001,141.9955 17.6894,53.5279 46.3952,106.1839 84.8308,155.6076 8.6174,11.0809 17.1501,18.6882 41.2586,36.7835 82.4552,61.8892 168.1625,99.7249 244.3631,107.8745 30.201,3.2299 80.3386,-0.2894 82.4484,-5.7874 0.2656,-0.6922 -2.3178,-14.4773 -5.7409,-30.6338 -3.4232,-16.1563 -11.6295,-55.0307 -18.2363,-86.3875 -12.6409,-59.995 -30.2484,-143.2704 -37.6959,-178.2845 -2.4305,-11.4266 -6.1186,-28.8202 -8.1959,-38.6524 -29.8574,-141.3219 -50.1479,-233.5455 -57.0837,-259.4546 -10.8161,-40.4048 -19.7953,-58.1952 -39.0202,-77.3113 -12.965,-12.8916 -23.7459,-20.0191 -64.5815,-42.6967 -54.4912,-30.261 -87.9206,-50.8099 -121.4949,-74.6822 -82.3674,-58.5657 -130.2628,-116.9743 -142.6461,-173.9576 -2.5257,-11.622 -2.5608,-41.4557 -0.063,-53.1472 6.0407,-28.2703 20.3394,-56.2034 43.7759,-85.5185 11.3389,-14.183 38.9969,-41.6931 56.8981,-56.5937 42.8879,-35.699 88.7267,-65.6109 165.7224,-108.1415 35.8748,-19.8163 47.7,-27.5778 59.9917,-39.3756 11.8471,-11.3713 17.6224,-18.9622 24.4614,-32.1524 10.431,-20.1173 16.9661,-43.1951 35.9149,-126.8283 1.2945,-5.7134 3.4648,-15.2798 4.8228,-21.2589 7.3633,-32.4179 20.2935,-89.7941 30.9772,-137.4578 3.4547,-15.4127 9.5484,-42.5902 13.5414,-60.3944 15.6519,-69.7895 36.7553,-164.4097 48.2763,-216.4538 l 12.0861,-54.5966 -2.089,-1.4494 c -1.149,-0.7972 -12.105,-7.1997 -24.3466,-14.2278 -122.2434,-70.1809 -260.1857,-116.0974 -399.7972,-133.0794 -44.9497,-5.4676 -79.7823,-7.5292 -127.5531,-7.5493 -38.9605,-0.016 -61.7918,0.9682 -96.9463,4.181 -156.22622,14.2773 -307.46066,63.192 -443.94649,143.5886 -7.57346,4.4611 -13.76993,8.5707 -13.76993,9.1322 0,1.2129 41.29619,186.3183 86.09896,385.9287 2.62437,11.6923 6.06335,26.9117 7.64219,33.8209 1.57884,6.9091 6.7636,29.7382 11.5217,50.7313 23.56086,103.9526 28.2318,121.3935 38.05169,142.0823 9.88203,20.8197 25.36361,37.9498 47.53196,52.5932 5.84618,3.8617 21.50043,13.0107 34.78721,20.3311 49.42142,27.229 76.71349,43.5223 107.74371,64.3227 95.1793,63.8014 148.8128,125.3537 162.4976,186.4895 3.0038,13.4191 3.2564,41.1982 0.4916,54.0567 -2.9886,13.8995 -8.1812,28.4058 -14.9593,41.7918 -11.9919,23.6824 -26.4618,43.1159 -50.4324,67.7319 -45.2838,46.503 -100.3781,85.3175 -198.84429,140.0877 -40.71775,22.6486 -51.54614,29.8076 -64.58234,42.6978 -24.59834,24.3229 -34.01376,48.385 -51.99074,132.8679 -17.76019,83.464 -108.79337,535.3829 -108.79337,540.0862 0,2.1955 1.89464,2.8651 16.78412,5.9317 23.06734,4.751 54.16909,6.0568 78.88071,3.3119 z M 1244.9513,1490.0289 c -10.1015,-1.6287 -19.4791,-8.6647 -24.1061,-18.0867 -2.3836,-4.8538 -2.677,-6.5108 -2.6763,-15.1146 6e-4,-8.7016 0.2683,-10.1711 2.6903,-14.7692 3.588,-6.8118 9.359,-12.4089 16.0089,-15.5266 4.6364,-2.1736 6.7666,-2.5587 14.1546,-2.5587 7.3879,0 9.5181,0.3851 14.1545,2.5587 6.65,3.1177 12.421,8.7148 16.009,15.5266 2.4219,4.5981 2.6896,6.0676 2.6903,14.7692 7e-4,8.6285 -0.289,10.2532 -2.7053,15.1737 -6.4238,13.0813 -21.2205,20.446 -36.2199,18.0276 z"
       id="path4146"
       inkscape:connector-curvature="0" />
    <path
       sodipodi:nodetypes="sssssssssssssssssssssssssscscscccsssccsccscsssssssscscsscsccccccsccscssssssscssssscscssccssssssccsccccssccsscccssssssssscssccssscssscccsccscccscsssssssssssssssccscssssssccccssscssccsssssssssssssssssssscsssssssssssssssssssssssssssssscsssssssssssssssssssssssssssssssccssssssssssssssssssssssssssssssssssscsssssssssscssscscsssssccssssscsscsscsssssss"
       style="fill:#4570a6"
       d="M 1191.1114,3490.3763 C 1065.4809,3483.503 946.88176,3457.792 832.60983,3412.6575 637.23249,3335.4883 463.45342,3204.4562 333.424,3036.2636 253.20025,2932.4944 190.21452,2817.0665 146.23657,2693.2231 c -32.62954,-91.886 -55.00308,-194.0719 -64.424046,-294.2419 -6.27454,-66.715 -6.997534,-148.8123 -1.89772,-215.4874 14.835084,-193.9538 72.487826,-374.9467 172.678426,-542.1007 83.06834,-138.5878 197.2651,-262.8248 327.32617,-356.1047 166.9835,-119.7607 355.49063,-191.5832 555.1459,-211.5144 197.1224,-19.6783 393.9108,10.9161 571.6845,88.8789 115.7905,50.78 220.3748,118.2905 316.5231,204.3197 21.4366,19.1804 66.7113,64.3152 85.7719,85.5066 115.7919,128.7372 202.6367,278.8133 256.1,442.5658 54.4712,166.8392 72.4952,349.7792 52.1254,529.0603 -26.2254,230.8173 -117.3993,449.1557 -263.0905,630.0351 -29.5367,36.6707 -49.3795,58.5945 -87.5066,96.6843 -31.2914,31.2607 -50.7007,49.1037 -79.206,72.8144 -112.5329,93.6052 -243.7714,166.5901 -380.3587,211.5266 -88.5316,29.1266 -176.3265,46.3126 -275.3987,53.9096 -23.2223,1.7807 -116.1189,2.6404 -140.5983,1.301 z M 795.89,3270.0055 c 31.54175,-3.5789 50.83385,-7.8839 81.65331,-18.2209 64.20872,-21.5359 129.07239,-59.3977 194.57379,-113.5751 5.405,-4.4707 16.4561,-18.5691 29.1615,-37.203 33.1342,-48.5948 57.9234,-101.6769 74.784,-160.1376 6.8857,-23.8748 14.1853,-58.8911 16.4735,-79.0245 0.5436,-4.7832 1.1956,-10.2187 1.4489,-12.0789 0.74,-5.4356 2.3436,-22.0242 2.9892,-30.922 1.0258,-14.139 1.2394,-16.6753 1.7854,-21.2028 0.2922,-2.4224 0.7641,-8.5354 1.0486,-13.5844 0.2844,-5.049 0.7158,-10.4845 0.9586,-12.0789 0.2428,-1.5944 0.7188,-7.6821 1.0578,-13.5283 0.339,-5.8462 0.754,-12.3688 0.922,-14.4947 0.2948,-3.7275 0.985,-13.8679 1.9071,-28.023 0.2424,-3.7203 0.6616,-8.721 0.9316,-11.1126 0.2699,-2.3916 0.724,-8.9142 1.009,-14.4947 0.2849,-5.5804 0.6904,-12.3205 0.9009,-14.9778 0.2105,-2.6574 0.6499,-8.9625 0.9762,-14.0115 0.3265,-5.049 0.7797,-11.789 1.0072,-14.9779 0.2276,-3.1888 0.6576,-10.1462 0.9557,-15.4609 0.298,-5.3147 0.74,-12.4896 0.9822,-15.9442 0.2422,-3.4545 0.6562,-9.9771 0.9199,-14.4946 0.2637,-4.5175 0.7004,-10.1705 0.9703,-12.5621 0.27,-2.3916 0.7601,-9.7839 1.0892,-16.4273 0.6494,-13.1075 0.8724,-16.9822 1.7794,-30.922 0.3285,-5.0489 0.8013,-12.55 1.0507,-16.669 0.2494,-4.1189 0.6709,-10.9677 0.9367,-15.2195 0.2657,-4.2518 0.6904,-11.1004 0.9437,-15.2193 0.2532,-4.1188 0.7019,-11.4023 0.997,-16.1855 0.2951,-4.7833 0.73,-11.9582 0.9663,-15.9442 0.2364,-3.986 0.6712,-11.1609 0.9663,-15.9441 0.2951,-4.7833 0.7403,-12.1755 0.9892,-16.4273 1.3496,-23.0466 2.0476,-34.8087 2.8674,-48.3156 0.7698,-12.6848 1.3189,-22.0509 1.959,-33.4173 0.3117,-5.5366 0.7389,-12.8932 0.9493,-16.3477 0.8074,-13.2612 1.4381,-24.0162 1.9266,-32.8546 0.2791,-5.049 0.7046,-12.4413 0.9457,-16.4273 0.241,-3.986 0.6737,-11.8132 0.9612,-17.3936 0.2876,-5.5805 0.7322,-13.8424 0.9879,-18.3599 0.2558,-4.5175 0.6915,-12.3447 0.9681,-17.3936 0.5475,-9.9857 1.1087,-19.8081 1.905,-33.3378 0.2816,-4.7832 0.7276,-13.0452 0.9911,-18.3599 0.2636,-5.3147 0.6831,-13.1418 0.9323,-17.3936 0.2491,-4.2518 0.6909,-12.2963 0.9815,-17.8768 0.2908,-5.5804 0.7387,-14.0598 0.9954,-18.843 0.2568,-4.7833 0.7024,-13.9149 0.9902,-20.2926 0.2878,-6.3776 0.7196,-15.5093 0.9596,-20.2925 1.2651,-25.2153 1.4883,-29.7641 1.8974,-38.6525 0.2447,-5.3147 0.7204,-15.0986 1.0574,-21.742 0.3368,-6.6434 0.5968,-27.7331 0.5775,-46.8661 -0.031,-30.4971 -0.2796,-36.2442 -2.0185,-46.6017 -3.0755,-18.318 -5.7915,-24.6989 -15.5367,-36.5011 -10.9014,-13.202 -14.8056,-18.9048 -20.0727,-29.3197 -3.0486,-6.0279 -6.0753,-11.9346 -6.7262,-13.1259 -0.6509,-1.1912 -2.2797,-6.2606 -3.6194,-11.2652 -11.3185,-42.2823 -6.1148,-96.2376 12.7729,-132.4375 5.9437,-11.3915 18.5582,-29.4239 24.2419,-34.6538 2.0216,-1.8602 8.3932,-8.9829 14.1591,-15.8284 22.5708,-26.7966 101.1641,-109.7665 106.9341,-112.8889 4.3091,-2.3319 5.6949,-1.2202 10.7549,8.6278 12.509,24.3448 21.0114,52.1608 27.6987,90.617 1.3492,7.7586 3.9663,30.2461 4.4986,38.6524 0.2355,3.7203 0.856,11.6147 1.3789,17.5431 0.5229,5.9284 0.7568,11.364 0.5199,12.0789 -0.237,0.715 -0.6483,4.7787 -0.9142,9.0305 -3.4412,55.0533 -40.1246,119.6113 -99.109,174.4192 -12.1662,11.3047 -15.2603,15.2921 -19.3813,24.9764 -6.8966,16.2065 -13.6141,48.8741 -16.0262,77.9358 -0.3088,3.7203 -0.7252,8.7209 -0.9255,11.1126 -3.5339,42.2228 -4.441,77.5234 -4.4571,173.4528 -0.012,69.9598 0.2642,90.8002 1.5795,119.3395 1.1946,25.9215 3.0416,53.9878 5.8187,88.4175 0.1286,1.5944 0.5536,7.6822 0.9445,13.5284 0.3909,5.8461 0.8598,10.8778 1.0422,11.1814 0.1823,0.3037 0.5908,4.6521 0.9077,9.6632 0.317,5.0111 0.7659,10.1981 0.9978,11.5268 0.2318,1.3287 0.6652,5.4597 0.9629,9.18 0.2979,3.7203 0.9788,10.8951 1.5134,15.9441 0.5346,5.049 1.1745,11.3542 1.4222,14.0115 0.2478,2.6574 0.6652,6.5709 0.9278,8.6968 0.2626,2.1259 0.7007,6.0395 0.9737,8.6968 0.605,5.891 2.4727,22.2861 2.917,25.6073 0.1777,1.3286 0.7914,6.9816 1.3638,12.562 0.5723,5.5805 1.6894,15.1469 2.4824,21.2589 0.7931,6.1119 2.554,20.0268 3.913,30.9219 2.7457,22.0101 4.9013,38.8256 6.194,48.3156 0.4705,3.4546 1.3107,9.7597 1.867,14.0115 2.5508,19.4963 5.8975,43.415 11.6949,83.586 4.6272,32.0626 6.7764,46.5246 7.7544,52.1808 0.5055,2.9231 1.3688,8.576 1.9184,12.562 0.9423,6.8325 1.6383,11.4875 3.8649,25.8488 0.515,3.3217 1.3519,8.7572 1.8597,12.0789 0.9253,6.0529 2.6247,16.9053 5.3342,34.0658 0.7972,5.049 2.0791,13.2015 2.8488,18.1167 6.3655,40.6536 12.7156,65.8343 24.7946,98.3205 17.9065,48.1594 46.0131,97.292 79.8592,139.6006 6.5754,8.2195 11.5146,13.0613 22.0066,21.5725 29.8217,24.1915 69.32,50.8267 99.5301,67.1169 10.9258,5.8915 38.8775,19.7888 45.9102,22.826 21.9403,9.4754 51.0344,19.4294 71.0135,24.2958 18.5985,4.5301 24.7225,5.5983 49.2818,8.5956 8.0676,0.9846 50.2999,0.7459 57.0124,-0.3223 2.1259,-0.3383 6.6917,-1.0511 10.1463,-1.5838 8.42,-1.2985 12.4017,-2.6633 13.4365,-4.6057 0.5561,-1.0435 0.034,-5.5399 -1.4786,-12.7262 -1.2862,-6.112 -2.9642,-14.1565 -3.7289,-17.8768 -2.1666,-10.5403 -5.0212,-24.0518 -7.7577,-36.7198 -1.3777,-6.3777 -2.8943,-13.5525 -3.3703,-15.9442 -0.4759,-2.3916 -1.9914,-9.5664 -3.3678,-15.9441 -1.3764,-6.3777 -3.1217,-14.6396 -3.8785,-18.3599 -1.8817,-9.2498 -4.7512,-22.8648 -7.7391,-36.7199 -1.3755,-6.3776 -3.108,-14.6396 -3.8501,-18.3599 -0.7421,-3.7203 -2.2606,-10.8951 -3.3744,-15.9441 -1.1138,-5.049 -2.6381,-12.2238 -3.3872,-15.9441 -0.7491,-3.7203 -2.477,-11.9823 -3.8398,-18.36 -2.606,-12.1966 -7.1441,-33.6691 -10.2112,-48.3155 -1.0017,-4.7833 -2.7267,-12.8278 -3.8334,-17.8768 -1.1069,-5.049 -2.623,-12.2238 -3.3694,-15.9441 -0.7463,-3.7203 -2.2701,-10.8952 -3.3862,-15.9442 -1.1161,-5.0489 -2.4136,-11.1367 -2.8833,-13.5283 -0.829,-4.2217 -5.3888,-25.6685 -8.2692,-38.8941 -0.7814,-3.5874 -2.0603,-9.4577 -2.8422,-13.0452 -0.7819,-3.5874 -3.42,-16.0891 -5.8624,-27.7814 -4.5451,-21.7586 -12.0233,-56.4471 -16.8738,-78.2712 -0.4725,-2.1259 -1.5596,-7.1266 -2.4158,-11.1126 -0.8561,-3.9861 -1.9627,-8.9867 -2.459,-11.1126 -0.4963,-2.1259 -3.3328,-14.9537 -6.3034,-28.5062 -7.015,-32.0048 -14.8572,-62.6364 -19.2965,-75.3723 -8.1175,-23.2877 -18.3423,-40.1041 -32.8567,-54.0386 -14.6707,-14.0843 -23.8452,-20.0277 -70.9859,-45.9852 -70.1716,-38.6394 -122.0393,-73.1964 -163.3066,-108.8036 -15.7102,-13.5554 -40.2761,-38.4873 -50.3843,-51.1349 -25.5088,-31.9171 -40.7757,-64.1503 -44.3833,-93.7077 -1.7134,-14.0376 -1.6593,-20.5546 0.2927,-35.2703 8.5102,-64.1566 65.4893,-131.5959 167.9146,-198.7401 8.7693,-5.7486 16.8138,-11.0376 17.8767,-11.7533 1.7752,-1.1952 29.5244,-17.8773 42.0346,-25.2702 6.2625,-3.7008 6.7355,-3.9663 43.1678,-24.2304 38.2452,-21.2723 51.351,-30.569 64.6275,-45.8436 19.7957,-22.7748 27.7504,-44.1639 45.8208,-123.2047 1.0935,-4.7832 2.3977,-10.4362 2.8981,-12.562 0.5004,-2.1259 1.5507,-6.6917 2.3339,-10.1463 0.7833,-3.4546 2.3665,-10.412 3.5184,-15.461 2.3529,-10.3142 4.0003,-17.6217 6.2086,-27.5399 0.8284,-3.7203 2.5709,-11.33 3.8723,-16.9104 1.3015,-5.5805 3.5207,-15.3644 4.9316,-21.742 3.3639,-15.206 3.6225,-16.3597 6.7134,-29.9557 2.8801,-12.6688 3.6631,-16.1526 5.1041,-22.7083 0.5257,-2.3916 2.5737,-11.5233 4.551,-20.2925 5.1422,-22.805 5.0063,-22.1985 6.2789,-28.0231 0.6387,-2.9231 1.5021,-6.8366 1.9187,-8.6968 1.108,-4.9483 9.7573,-43.3871 10.6541,-47.3492 1.089,-4.8104 2.513,-11.2332 3.8566,-17.3936 0.6375,-2.9231 1.5006,-6.8367 1.9178,-8.6968 0.4173,-1.8602 3.6825,-16.4273 7.2561,-32.3714 3.5736,-15.9442 6.8417,-30.5113 7.2625,-32.3715 1.0982,-4.854 2.5212,-11.2731 3.8561,-17.3936 0.6376,-2.9231 1.5063,-6.8366 1.9306,-8.6968 0.4243,-1.8601 1.294,-5.7737 1.9326,-8.6968 0.6387,-2.9231 1.5038,-6.8366 1.9224,-8.6968 20.2625,-90.0347 27.0172,-122.218 25.886,-123.3361 -1.1081,-1.0953 -22.3233,-13.7613 -32.1568,-19.1984 -50.41,-27.8724 -94.6587,-48.5901 -144.6775,-67.7394 -19.8158,-7.5863 -65.6808,-22.9614 -83.372,-27.9483 -21.6224,-6.0951 -41.8588,-11.4023 -51.9352,-13.6204 -3.8553,-0.8487 -8.5317,-1.8832 -10.3919,-2.2989 -28.0532,-6.2684 -72.498,-14.1388 -95.1816,-16.8551 -6.9092,-0.8273 -15.8234,-1.9286 -19.8094,-2.4473 -45.2184,-5.8846 -127.8909,-7.9201 -179.7339,-4.4253 -2.9231,0.197 -9.6631,0.6169 -14.9779,0.9331 -5.3147,0.3162 -11.6198,0.814 -14.0115,1.1061 -4.2314,0.5169 -6.8072,0.7775 -18.843,1.9066 -3.1889,0.2992 -6.885,0.6907 -8.2137,0.8701 -1.3287,0.1793 -8.5035,1.0426 -15.9441,1.9182 -19.4523,2.2893 -54.1472,7.9977 -73.9229,12.1628 -64.86691,13.6618 -116.57777,28.8581 -175.38547,51.5403 -9.03501,3.4848 -20.12344,7.9223 -24.64094,9.8612 -4.51751,1.9388 -10.60527,4.519 -13.52836,5.7339 -16.9997,7.065 -69.09048,32.528 -84.92665,41.5138 -4.27471,2.4255 -7.96337,4.4101 -8.19701,4.4101 -0.73589,0 -34.16194,19.714 -36.92444,21.7772 l -2.63472,1.9679 7.99296,35.7183 c 4.39614,19.645 8.33403,37.2402 8.75089,39.1004 1.36739,6.1017 2.67082,11.992 3.84892,17.3936 0.63754,2.9231 1.50628,6.8366 1.93055,8.6968 0.42427,1.8601 1.29395,5.7737 1.93262,8.6968 0.63867,2.9231 1.50835,6.8366 1.93262,8.6968 0.42427,1.8601 1.29395,5.7737 1.93263,8.6968 0.63867,2.9231 1.50372,6.8366 1.92234,8.6968 0.41862,1.8601 4.11938,18.3841 8.22393,36.7198 4.10454,18.3358 7.8053,34.8597 8.22392,36.7198 0.41862,1.8602 1.28367,5.7738 1.92235,8.6969 0.63867,2.923 1.50373,6.8366 1.92236,8.6968 0.41862,1.8601 3.2497,14.4705 6.29128,28.023 3.04158,13.5525 5.87266,26.1628 6.29129,28.023 0.41862,1.8601 1.28369,5.7737 1.92236,8.6968 0.63867,2.9231 1.50379,6.8366 1.92249,8.6968 0.72695,3.2297 7.11785,31.5596 8.71954,38.6524 0.42004,1.8602 1.19382,5.3389 1.71952,7.7305 0.52568,2.3917 2.57362,11.5233 4.55098,20.2926 1.97735,8.7692 3.93319,17.466 4.34632,19.3262 0.41313,1.8601 2.36991,10.5569 4.3484,19.3262 4.089,18.1237 4.49996,19.963 6.69325,29.9557 0.87488,3.986 2.65964,11.8131 3.96612,17.3936 1.30648,5.5804 3.05316,13.1901 3.88151,16.9104 0.82834,3.7203 2.10409,9.3733 2.83499,12.5621 0.73088,3.1888 2.01462,8.8417 2.85272,12.562 0.83811,3.7203 2.62683,11.5475 3.97493,17.3936 1.3481,5.8462 3.35252,14.543 4.45426,19.3263 17.20557,74.6983 27.7563,98.0666 55.05857,121.946 5.96279,5.2153 30.56022,22.5175 32.01165,22.5175 0.39881,0 42.53444,23.2925 52.41019,28.9723 2.12588,1.2225 5.82202,3.3169 8.21364,4.654 28.71856,16.0557 74.87229,45.9016 100.50199,64.9911 71.4642,53.2277 114.3602,106.1891 127.5304,157.4551 1.024,3.9861 2.5681,13.1186 3.4313,20.2945 1.5164,12.6073 1.5008,13.5635 -0.4667,28.3671 -3.4258,25.7787 -12.3531,48.569 -28.821,73.5768 -33.1481,50.338 -94.2818,102.4187 -179.95082,153.3027 -24.44066,14.5167 -31.9765,18.8362 -57.97869,33.2328 -32.79999,18.1604 -40.42316,22.7998 -50.69355,30.8517 -22.2872,17.4728 -35.45325,36.8975 -45.21487,66.7084 -4.52919,13.8317 -10.49067,35.4195 -12.4084,44.9335 -0.58921,2.9231 -1.41841,6.8366 -1.84268,8.6968 -0.42427,1.8601 -1.23082,5.5563 -1.79233,8.2136 -0.56153,2.6574 -1.93413,8.9626 -3.05024,14.0115 -1.11611,5.049 -2.63727,12.2239 -3.38034,15.9442 -0.74308,3.7203 -3.35208,16.3306 -5.79777,28.023 -2.4457,11.6924 -5.27531,25.3898 -6.28802,30.4388 -1.01271,5.049 -5.56878,27.4433 -10.1246,49.7651 -27.03676,132.4697 -83.59145,415.3768 -83.59145,418.1547 0,3.2375 10.65373,6.1143 34.78722,9.3936 14.05613,1.9099 45.33859,2.3943 58.46184,0.9053 z m -141.56463,-42.7177 c 0,-0.168 2.61521,-18.54 5.81157,-40.8266 3.19636,-22.2868 14.7388,-103.5731 25.64986,-180.6364 30.55781,-215.8257 46.38571,-322.7727 53.59231,-362.116 3.15617,-17.2306 9.68187,-43.2103 14.9905,-59.6789 17.55783,-54.4689 43.4483,-88.6334 91.28542,-120.4586 9.84262,-6.5481 12.37406,-8.0761 24.64094,-14.8739 20.9803,-11.6263 27.88262,-15.4121 28.09974,-15.4121 0.13572,0 3.55652,-1.9568 7.60177,-4.3484 4.04526,-2.3916 7.55225,-4.3484 7.79332,-4.3484 0.24107,0 3.16371,-1.6675 6.49477,-3.7054 3.33105,-2.0381 6.49131,-3.8862 7.02278,-4.1069 0.99055,-0.4114 28.31215,-16.8356 35.22799,-21.1771 2.11658,-1.3286 7.59419,-4.7547 12.17248,-7.6133 26.24828,-16.3895 67.00708,-47.8095 86.94748,-67.0258 21.6454,-20.8597 36.0081,-39.0388 45.0837,-57.0635 15.4106,-30.6068 10.2072,-55.3879 -19.4192,-92.4816 -22.7003,-28.4219 -66.5143,-64.9298 -115.07897,-95.889 -5.04898,-3.2187 -10.7019,-6.8212 -12.56205,-8.0056 -10.78969,-6.8702 -38.79522,-23.1101 -66.42824,-38.5207 -39.91198,-22.2583 -37.8658,-21.0759 -47.59651,-27.5054 -54.35533,-35.9153 -81.10921,-76.1778 -99.5063,-149.7488 -5.77862,-23.1091 -9.89642,-35.8138 -39.79788,-122.7888 -62.31338,-181.252 -93.18977,-276.7173 -110.51734,-341.7034 -1.41709,-5.3147 -2.89921,-10.007 -3.29361,-10.4273 -0.39441,-0.4202 -6.50221,3.9282 -13.5729,9.6632 -7.07069,5.735 -14.48771,11.7318 -16.48226,13.3262 -3.97784,3.1798 -10.15839,8.5694 -29.90041,26.074 -17.27394,15.3162 -63.81538,61.7816 -81.31936,81.1865 -34.15573,37.8651 -61.92536,73.0118 -94.29095,119.3395 -11.07991,15.8596 -36.65687,56.3158 -44.29138,70.0575 -0.59054,1.063 -3.82391,6.7159 -7.18525,12.5621 -3.36135,5.8462 -7.61549,13.4559 -9.45365,16.9104 -1.83816,3.4546 -6.96882,13.0211 -11.40147,21.2589 -4.43266,8.2378 -10.65542,20.6938 -13.82838,27.6801 -3.17295,6.9862 -6.2344,13.5088 -6.8032,14.4946 -2.01685,3.4956 -17.29142,38.7666 -24.21074,55.9059 -45.60198,112.9573 -73.55812,235.6386 -81.14342,356.0857 -0.55226,8.7693 -1.2327,18.94 -1.5121,22.6016 -0.78976,10.3502 -1.79925,41.2345 -1.81962,55.6697 -0.0163,11.5717 0.27797,20.5487 1.9166,58.4618 0.64112,14.8338 3.98159,55.0177 6.18533,74.406 18.10236,159.2627 68.18557,310.6932 148.61034,449.3348 4.00792,6.9091 8.66323,14.7362 10.34512,17.3936 1.68191,2.6574 4.08365,6.5709 5.33721,8.6968 13.10971,22.2324 46.51549,70.4736 67.43859,97.388 68.19183,87.7181 144.28805,161.2354 233.07697,225.1778 20.11185,14.4838 23.78893,17.0027 24.88251,17.0454 0.66434,0.026 1.20789,-0.09 1.20789,-0.2582 z m 1198.48843,-2.3314 c 15.2518,-9.8424 55.2599,-39.8147 77.2663,-57.8847 77.5736,-63.6975 146.8446,-138.1859 205.6674,-221.1582 7.2741,-10.2604 27.5231,-40.5645 33.2526,-49.7651 1.1585,-1.8601 3.3101,-5.2858 4.7815,-7.6126 6.4137,-10.1421 24.485,-41.3388 34.4932,-59.546 3.2741,-5.9562 28.7455,-57.0944 32.2478,-64.7429 57.2477,-125.0179 91.4509,-257.783 101.942,-395.7045 2.3623,-31.0553 3.0041,-50.2938 2.9657,-88.9006 -0.039,-39.0822 -0.4139,-56.3899 -1.4554,-67.1587 -0.2571,-2.6573 -0.943,-11.789 -1.5244,-20.2925 -4.9506,-72.408 -19.6106,-156.0552 -40.0775,-228.6754 -4.3891,-15.5732 -16.4157,-54.5535 -17.9932,-58.3191 -0.4452,-1.0629 -3.2537,-8.8901 -6.2409,-17.3936 -17.2219,-49.0239 -45.0098,-111.3638 -70.4248,-157.9919 -3.621,-6.6434 -7.8875,-14.4705 -9.4808,-17.3936 -1.5935,-2.9231 -3.2162,-5.7496 -3.6062,-6.2811 -0.39,-0.5314 -1.7893,-2.923 -3.1097,-5.3147 -7.9434,-14.388 -36.4119,-59.7265 -46.4168,-73.9228 -14.6126,-20.7341 -18.4986,-26.1059 -29.647,-40.9819 -54.701,-72.9912 -121.212,-141.8596 -192.6952,-199.5249 -5.7641,-4.6499 -11.0359,-8.241 -11.7153,-7.9803 -0.6793,0.2607 -1.5415,2.1069 -1.9159,4.1026 -0.3744,1.9958 -3.8737,14.7496 -7.7762,28.3418 -19.741,68.7576 -46.3486,149.3607 -99.5477,301.5613 -32.3193,92.4646 -38.9291,112.4527 -45.4171,137.3429 -15.8726,60.893 -31.8241,91.8066 -63.1853,122.4519 -19.3226,18.8815 -39.2407,32.3903 -80.2946,54.4569 -15.252,8.198 -60.2162,34.2303 -70.5407,40.8399 -1.8602,1.1909 -7.5131,4.8128 -12.5621,8.0488 -70.4275,45.1381 -120.5452,92.6625 -136.6628,129.5908 -4.5394,10.4007 -6.3191,18.0485 -6.337,27.2313 -0.074,37.9968 43.0602,88.4207 123.1904,144.0094 13.1407,9.1161 53.256,33.9794 71.9902,44.6194 7.4727,4.244 39.8616,22.3112 49.1162,27.3979 2.3005,1.2644 6.6489,3.6564 9.6631,5.3155 17.1492,9.439 38.0172,24.9812 52.1867,38.8678 18.248,17.8836 29.7941,33.7807 40.7094,56.0502 10.9922,22.4261 22.7864,61.1635 29.0437,95.3921 6.9725,38.141 21.5648,136.8886 50.6789,342.9499 32.5271,230.2179 34.0355,240.6116 34.9183,240.6116 0.2349,0 2.2658,-1.1867 4.5132,-2.6369 z"
       id="path4144"
       inkscape:connector-curvature="0" />
    <path
       sodipodi:nodetypes="sssssssssssssssssssssssssssssscsssssssssssssssscsssssssssscsssssssssssssssscsssssssssssssssssssssssssssssscsscscssssssscsccscsssssssssssssssssssssscssssssscs"
       style="fill:#2a5b9c"
       d="M 1192.0777,3489.4107 C 1065.8879,3482.5013 946.58288,3456.5266 830.67721,3410.7281 636.6504,3334.0612 463.77275,3203.6194 334.39031,3036.2636 262.90052,2943.7918 206.37713,2844.3802 162.96975,2734.7744 121.31467,2629.5933 93.620772,2513.2935 82.778835,2398.0149 c -6.266597,-66.6306 -6.98157,-147.0884 -1.897719,-213.5548 19.124524,-250.0339 111.455164,-484.441 267.195494,-678.3506 74.70463,-93.0134 165.44998,-176.2751 264.02295,-242.2492 227.47532,-152.2474 495.72444,-217.8938 766.95934,-187.6917 238.085,26.5109 460.1945,127.1067 644.214,291.7715 21.4387,19.1838 65.7552,63.3616 84.8045,84.5391 116.0694,129.0367 201.5564,276.8624 255.5796,441.953 66.1797,202.2396 78.6832,424.7851 35.704,635.4842 -41.6081,203.9784 -135.5723,396.7964 -268.886,551.7638 -29.8754,34.728 -80.5331,86.5139 -111.1196,113.5941 -100.3455,88.8428 -208.9867,157.4522 -328.661,207.5573 -113.5475,47.5399 -231.2187,75.4171 -359.951,85.2754 -23.2423,1.7798 -114.3298,2.6362 -138.6657,1.3037 z M 801.68786,3270.4829 c 73.0429,-7.8282 157.90499,-45.3917 238.67894,-105.6492 29.3419,-21.8892 37.2251,-28.9852 47.3266,-42.6008 21.115,-28.46 36.3693,-53.4066 52.5685,-85.9693 28.83,-57.9522 47.2591,-120.0166 54.6606,-184.0823 7.7321,-66.9281 31.5798,-439.4736 46.3922,-724.7336 1.3246,-25.5106 3.1575,-60.7327 4.0732,-78.2712 2.0885,-40.0064 2.3623,-106.5922 0.4848,-117.89 -3.3288,-20.0306 -6.5234,-27.9043 -16.0741,-39.6188 -11.5164,-14.1254 -16.1365,-21.1435 -22.2647,-33.8209 -10.9567,-22.6662 -15.5222,-51.5564 -13.0512,-82.5869 2.2184,-27.8579 7.1724,-47.5238 16.926,-67.1913 5.9924,-12.0834 19.7428,-32.2939 24.9827,-36.7199 1.2583,-1.0629 6.6401,-7.1507 11.9594,-13.5283 13.7228,-16.4531 36.6838,-41.5063 64.5993,-70.4854 13.2409,-13.7453 28.4422,-29.5328 33.7807,-35.0834 11.7577,-12.2246 12.8287,-12.4456 17.5632,-3.6244 19.3141,35.9861 31.9712,90.501 34.6626,149.2951 2.8923,63.1803 -30.2264,128.919 -96.693,191.9299 -7.2201,6.8448 -14.5866,14.6192 -16.37,17.2765 -13.7665,20.5124 -21.5959,65.5956 -25.7595,148.3288 -1.624,32.2695 -2.2957,177.7862 -0.9879,214.038 4.2824,118.7134 18.2174,255.1267 45.5063,445.4696 12.9988,90.6683 27.3019,181.9615 31.9442,203.8917 13.9402,65.8535 44.2442,129.8574 91.1677,192.5518 11.7823,15.7424 14.4326,18.6674 24.5283,27.0709 31.9931,26.6312 71.8454,53.4467 109.8822,73.937 54.7471,29.4919 108.6778,47.345 159.9246,52.9409 28.0399,3.0618 75.5065,-0.3129 82.3507,-5.855 l 2.169,-1.7564 -16.2572,-77.1619 c -71.2829,-338.334 -100.7134,-474.9769 -110.2832,-512.0354 -10.8727,-42.1042 -19.8694,-61.3948 -37.3753,-80.14 -13.199,-14.1334 -26.7277,-23.4569 -63.135,-43.5104 -99.5349,-54.825 -155.2303,-93.4724 -201.357,-139.7228 -69.9048,-70.0923 -86.888,-136.9292 -52.0963,-205.0249 20.7163,-40.5469 63.0667,-84.9493 121.2965,-127.1736 34.2806,-24.8578 73.3689,-48.9109 131.6737,-81.0256 37.6937,-20.7618 47.6041,-27.5813 62.3522,-42.9055 21.5916,-22.4349 30.3981,-43.8679 46.8028,-113.9074 20.4352,-87.2476 119.0596,-529.2528 118.6801,-531.8885 -0.4765,-3.3098 -39.4548,-25.6194 -80.9558,-46.3359 -273.876,-136.7136 -590.0855,-149.3794 -872.84777,-34.9621 -41.15789,16.6542 -92.64585,41.6414 -130.6666,63.4129 -26.06208,14.9236 -27.53988,15.9094 -27.53988,18.3701 0,2.3236 30.35008,138.9666 77.89552,350.7033 51.12099,227.66 54.53698,241.1878 67.08224,265.6557 6.71177,13.0904 11.66072,19.9445 21.95039,30.4002 13.74817,13.97 23.58302,20.6502 60.63819,41.1875 51.08319,28.3121 74.44898,42.2331 104.36161,62.177 96.8033,64.5424 150.9009,126.3885 163.9493,187.4317 2.8353,13.2642 3.0728,38.53 0.4828,51.3615 -10.9273,54.1366 -52.9369,108.1029 -128.1248,164.5917 -35.1789,26.4302 -75.24128,51.4741 -136.32051,85.2172 -41.19557,22.7585 -53.91449,31.4185 -67.48331,45.9479 -21.64984,23.1824 -31.61867,48.9786 -47.41344,122.6911 -12.21748,57.0176 -34.74926,167.9703 -78.88617,388.4572 -17.23511,86.0983 -31.5676,157.5142 -31.84997,158.702 -1.14663,4.8228 4.03168,6.8069 28.69939,10.9966 21.17238,3.5959 45.77131,4.0165 71.79617,1.2273 z m -146.00489,-41.7747 c 0.27795,-0.4497 10.53242,-71.4374 22.78772,-157.7503 42.94497,-302.4574 55.7293,-389.1954 63.36544,-429.9157 2.83901,-15.1393 10.57551,-45.6773 14.93311,-58.945 16.39516,-49.9187 41.25751,-83.6535 83.08792,-112.739 11.35701,-7.8967 19.99733,-12.9865 55.07976,-32.4459 82.38947,-45.6994 131.57058,-79.602 169.94608,-117.1509 27.0316,-26.4493 42.6019,-48.2769 49.5298,-69.4341 2.7957,-8.5379 3.4424,-22.6311 1.4039,-30.5975 -5.6099,-21.9232 -21.1038,-45.0386 -48.2683,-72.0113 -40.3061,-40.0215 -91.47584,-75.1363 -182.2746,-125.0845 -43.27996,-23.8082 -59.67972,-35.3934 -80.23769,-56.6821 -28.2073,-29.2099 -42.52621,-57.8846 -57.10474,-114.3568 -5.49872,-21.3002 -11.32089,-40.1715 -20.83818,-67.5426 -4.55216,-13.0916 -9.0494,-26.1947 -9.99384,-29.1178 -0.94445,-2.9231 -5.06554,-14.8812 -9.15797,-26.5736 -4.09243,-11.6924 -8.44406,-24.3027 -9.67027,-28.023 -1.22622,-3.7203 -6.43463,-18.9397 -11.57425,-33.8209 -16.14855,-46.7564 -50.51659,-150.4305 -59.42168,-179.2507 -2.21694,-7.1749 -6.1252,-19.7853 -8.68502,-28.0231 -6.07261,-19.5424 -14.32935,-47.9141 -19.40393,-66.6755 -4.23315,-15.6505 -5.22159,-18.3599 -6.69796,-18.3599 -2.03778,0 -40.36582,31.7401 -61.85076,51.2197 -64.86902,58.8142 -119.03262,120.3327 -170.57763,193.7402 -52.37712,74.5927 -101.24599,168.1198 -133.80051,256.0725 -4.51717,12.2042 -19.18097,55.5158 -21.10174,62.3271 -0.52455,1.8602 -2.24973,7.7305 -3.83373,13.0452 -23.53872,78.9783 -39.27401,166.8315 -44.56682,248.8252 -0.53176,8.2378 -0.9645,15.6301 -0.96165,16.4273 0.003,0.7972 -0.4961,12.3205 -1.10881,25.6073 -0.67692,14.6795 -0.86018,34.963 -0.46707,51.6976 0.35581,15.147 0.60901,29.2793 0.56266,31.4051 -0.0464,2.1259 0.39362,10.6053 0.97772,18.8431 0.5841,8.2378 1.03186,15.8475 0.99501,16.9105 -0.0368,1.0629 0.82212,11.9217 1.90881,24.1307 20.81753,233.8846 112.0196,455.1158 261.6825,634.77 63.3919,76.0952 133.65823,140.7009 218.51814,200.9146 12.36417,8.7731 15.65407,10.4483 16.81858,8.5641 z m 1202.14103,-5.1594 c 58.5163,-40.0222 119.1587,-91.6975 171.2612,-145.9369 176.4705,-183.7081 286.8897,-423.7471 312.8407,-680.0801 1.1746,-11.6012 3.1769,-36.9125 3.3635,-42.5177 0.026,-0.7972 0.2933,-5.5805 0.5928,-10.6295 0.9922,-16.728 2.4239,-70.9881 1.9283,-73.0841 -0.268,-1.1331 -0.5183,-9.1777 -0.5563,-17.8768 -0.038,-8.699 -0.5135,-22.9913 -1.0565,-31.7606 -0.543,-8.7693 -0.9579,-16.8138 -0.9222,-17.8768 0.1222,-3.6293 -2.8441,-37.6538 -4.802,-55.0797 -13.2499,-117.9361 -44.0932,-231.1841 -93.3142,-342.6242 -8.6851,-19.6637 -32.733,-67.8437 -43.8569,-87.8676 -41.7594,-75.1693 -89.416,-142.2254 -148.3394,-208.7232 -16.0141,-18.0726 -68.3815,-70.44 -86.4541,-86.4541 -24.1718,-21.4185 -56.2131,-47.8632 -57.9926,-47.8632 -0.9563,0 -1.478,1.6636 -9.697,30.922 -3.2098,11.4266 -7.5955,26.646 -9.7461,33.8209 -3.8563,12.8665 -4.9498,16.37 -15.8336,50.7313 -3.03,9.5665 -12.1736,37.3963 -20.3187,61.844 -13.7229,41.1889 -19.8267,59.2132 -31.0872,91.7995 -9.4355,27.3055 -11.9076,34.3993 -17.1732,49.2819 -3.0087,8.5035 -6.0421,17.2003 -6.741,19.3262 -0.6988,2.1259 -3.7427,10.8227 -6.7642,19.3263 -3.0214,8.5035 -6.0674,17.2003 -6.769,19.3262 -0.7015,2.1259 -5.071,14.7362 -9.7099,28.023 -11.4418,32.7714 -16.0056,47.3784 -22.7952,72.9565 -9.6059,36.1879 -16.8576,55.6156 -28.1336,75.3723 -15.4302,27.0352 -38.7735,51.2596 -68.2618,70.8384 -6.7145,4.4581 -26.5578,16.0663 -44.0964,25.7962 -60.7916,33.7257 -93.0297,53.8482 -127.9173,79.8445 -53.4267,39.8106 -84.3902,74.3607 -97.3109,108.5828 -2.4695,6.5408 -2.737,8.4248 -2.7433,19.3262 -0.01,10.244 0.3368,13.033 2.2554,18.3599 11.4892,31.9001 40.7637,65.969 88.5621,103.067 34.6986,26.9307 73.2686,51.2796 139.0867,87.8042 17.007,9.4377 35.4877,20.2017 41.0682,23.9199 41.3368,27.5424 66.3864,57.9764 83.4944,101.4414 7.2545,18.431 15.7481,49.7763 20.749,76.5731 6.425,34.4285 21.7243,137.731 48.873,329.9954 25.9178,183.5478 36.062,253.9706 36.7419,255.0707 1.1024,1.7838 2.6916,1.1007 11.5754,-4.9753 z"
       id="path4142"
       inkscape:connector-curvature="0" />
  </g>
</svg>
