<?xml version="1.0" encoding="UTF-8" standalone="no"?>
<svg
   xmlns:dc="http://purl.org/dc/elements/1.1/"
   xmlns:cc="http://creativecommons.org/ns#"
   xmlns:rdf="http://www.w3.org/1999/02/22-rdf-syntax-ns#"
   xmlns:svg="http://www.w3.org/2000/svg"
   xmlns="http://www.w3.org/2000/svg"
   xmlns:sodipodi="http://sodipodi.sourceforge.net/DTD/sodipodi-0.dtd"
   xmlns:inkscape="http://www.inkscape.org/namespaces/inkscape"
   version="1.1"
   id="svg833"
   xml:space="preserve"
   width="210mm"
   height="297mm"
   viewBox="0 0 793.7008 1122.5197"
   sodipodi:docname="spbtym-page.svg"
   inkscape:version="1.0.2-2 (e86c870879, 2021-01-15)"><metadata
     id="metadata839"><rdf:RDF><cc:Work
         rdf:about=""><dc:format>image/svg+xml</dc:format><dc:type
           rdf:resource="http://purl.org/dc/dcmitype/StillImage" /><dc:title /></cc:Work></rdf:RDF></metadata><defs
     id="defs837"><clipPath
       clipPathUnits="userSpaceOnUse"
       id="clipPath849"><path
         d="M 0,333.033 H 353.247 V 0 H 0 Z"
         id="path847" /></clipPath></defs><sodipodi:namedview
     pagecolor="#ffffff"
     bordercolor="#666666"
     borderopacity="1"
     objecttolerance="10"
     gridtolerance="10"
     guidetolerance="10"
     inkscape:pageopacity="0"
     inkscape:pageshadow="2"
     inkscape:window-width="1366"
     inkscape:window-height="715"
     id="namedview835"
     showgrid="false"
     inkscape:zoom="0.2955788"
     inkscape:cx="-37.835052"
     inkscape:cy="711.58349"
     inkscape:window-x="-8"
     inkscape:window-y="-8"
     inkscape:window-maximized="1"
     inkscape:current-layer="g841"
     borderlayer="true"
     inkscape:showpageshadow="false"
     inkscape:document-rotation="0"
     units="mm" /><g
     id="g841"
     inkscape:groupmode="layer"
     inkscape:label="TYM"
     transform="matrix(1.3333333,0,0,-1.3333333,0,444.044)"
     style="display:inline;opacity:0.996"><g
       id="g923"
       transform="matrix(2.7423217,0.23054591,-0.23054591,2.7423217,-246.12474,-693.88835)"
       style="stroke-width:0.363372;opacity:0.2"><path
         d="m 176.6195,267.4738 c 27.865,0 53.093,-11.295 71.354,-29.556 18.261,-18.261 29.557,-43.49 29.557,-71.355 0,-27.864 -11.296,-53.092 -29.557,-71.353 -18.261,-18.261 -43.489,-29.557 -71.354,-29.557 -27.865,0 -53.093,11.296 -71.354,29.557 -18.261,18.261 -29.556,43.489 -29.556,71.353 0,27.865 11.295,53.094 29.556,71.355 18.261,18.261 43.489,29.556 71.354,29.556 m 70.897,-30.013 c -18.144,18.143 -43.21,29.367 -70.897,29.367 -27.687,0 -52.753,-11.224 -70.897,-29.367 -18.144,-18.144 -29.367,-43.211 -29.367,-70.898 0,-27.686 11.223,-52.753 29.367,-70.896 18.144,-18.144 43.21,-29.366 70.897,-29.366 27.687,0 52.753,11.222 70.897,29.366 18.144,18.143 29.366,43.21 29.366,70.896 0,27.687 -11.222,52.754 -29.366,70.898"
         style="fill:#1c3585;fill-opacity:1;fill-rule:nonzero;stroke:none;stroke-width:0.363372"
         id="path853" /><path
         d="m 110.1717,111.7858 c -0.091,0.097 -0.332,0.357 -0.134,0.582 0.044,0.041 0.088,0.081 0.132,0.122 0.121,0.153 0.031,0.251 -0.019,0.305 -0.051,0.054 -0.162,0.153 -0.441,0.014 l -1.867,-0.927 c -0.279,-0.138 -0.365,-0.199 -0.431,-0.259 -0.087,-0.081 -0.082,-0.218 -0.011,-0.294 0.15,-0.163 0.355,-0.033 0.683,0.03 1.557,0.276 2.019,-0.244 2.763,-1.046 0.463,-0.498 0.604,-0.629 0.375,-0.842 l -5.725,-5.322 c -1.125,-1.047 -1.312,-0.494 -1.859,0.008 -0.142,0.13 -0.224,0.175 -0.366,0.043 -0.077,-0.071 -0.143,-0.174 0.047,-0.38 0.433,-0.466 0.941,-0.882 1.374,-1.347 0.433,-0.466 0.79,-0.983 1.222,-1.449 0.191,-0.206 0.299,-0.146 0.375,-0.075 0.208,0.192 -0.006,0.358 -0.186,0.574 -0.493,0.552 -0.575,0.838 0.299,1.651 l 5.725,5.322 c 0.24,0.223 0.369,0.04 0.48,-0.079 l 1.197,-1.289 c 0.513,-0.553 0.168,-1.278 -0.082,-1.732 -0.157,-0.247 -0.355,-0.451 -0.194,-0.625 0.162,-0.172 0.391,0.04 0.957,0.527 l 1.057,0.901 c 0.12,0.111 0.412,0.323 0.221,0.528 -0.121,0.13 -0.25,0.05 -0.454,-0.037 -0.224,-0.109 -0.319,-0.094 -0.56,0.165 z m 6.184,-8.589 c 0.033,0.15 0.068,0.277 0.168,0.39 0.287,0.323 0.605,0.1 0.826,-0.095 0.111,-0.099 0.211,-0.208 0.331,-0.295 0.199,-0.155 0.31,-0.075 0.379,0.003 0.129,0.145 0.123,0.249 -0.175,0.515 -0.465,0.412 -1,0.767 -1.464,1.179 -0.398,0.354 -0.737,0.775 -1.135,1.128 -0.133,0.118 -0.254,0.226 -0.393,0.07 -0.188,-0.212 0.063,-0.375 0.232,-0.585 0.337,-0.4 0.209,-0.743 -0.099,-2.047 l -1.582,-6.494 c -0.05,-0.235 -0.046,-0.318 -0.353,-0.485 -0.929,-0.511 -1.337,-0.369 -1.492,-0.231 -0.133,0.118 -0.14,0.265 -0.15,0.432 -0.002,0.242 0.025,0.517 -0.252,0.762 -0.298,0.266 -0.765,0.341 -1.123,-0.06 -0.356,-0.401 -0.19,-0.949 0.186,-1.282 1.162,-1.031 3.018,-0.146 4.036,0.287 l 5.183,2.2 c 1.913,0.815 2.173,1.062 2.645,0.704 0.474,-0.381 0.519,-0.442 0.688,-0.252 0.039,0.045 0.128,0.166 -0.051,0.345 -0.044,0.039 -0.077,0.068 -0.121,0.107 -0.353,0.293 -0.725,0.564 -1.068,0.869 -0.376,0.333 -0.724,0.722 -1.1,1.056 -0.21,0.185 -0.311,0.116 -0.381,0.038 -0.148,-0.167 -0.07,-0.256 0.207,-0.523 0.478,-0.463 0.602,-0.793 0.334,-1.093 -0.248,-0.28 -0.894,-0.583 -1.244,-0.732 l -4.105,-1.72 c -0.164,-0.074 -0.325,-0.21 -0.403,-0.142 -0.087,0.079 0.03,0.233 0.073,0.415 z m 2.502,-11.624 c -0.705,-0.963 -0.987,-0.924 -1.534,-0.544 -0.201,0.127 -0.422,0.325 -0.581,0.109 -0.123,-0.169 0.036,-0.303 0.12,-0.364 0.526,-0.383 1.105,-0.693 1.632,-1.076 0.526,-0.383 0.999,-0.838 1.526,-1.221 0.227,-0.165 0.322,-0.086 0.383,-0.002 0.132,0.181 0.025,0.26 -0.086,0.359 -0.674,0.582 -1.255,0.765 -0.384,1.957 l 1.691,2.311 c 0.096,0.132 0.179,0.219 0.275,0.15 0.059,-0.043 0.126,-0.128 0.288,-0.357 0.286,-0.411 0.634,-0.812 1.149,-1.185 1.566,-1.14 3.412,-0.821 4.397,0.526 1.145,1.565 0.389,3.313 -1.345,4.574 -0.227,0.165 -0.475,0.328 -0.712,0.481 -0.412,0.263 -0.821,0.505 -1.215,0.792 -0.491,0.356 -0.947,0.762 -1.437,1.118 -0.228,0.165 -0.322,0.086 -0.383,0.002 -0.158,-0.217 0.014,-0.306 0.269,-0.509 0.541,-0.412 0.665,-0.669 -0.039,-1.632 z m 5.135,4.767 c 0.29,0.397 0.47,0.617 0.65,0.688 0.382,0.148 0.896,-0.226 1.219,-0.462 2.166,-1.574 1.169,-3.136 0.852,-3.57 -0.844,-1.155 -2.265,-1.395 -3.485,-0.507 -0.407,0.295 -0.759,0.717 -0.967,1.109 -0.075,0.146 -0.1,0.238 0.094,0.502 z m 2.189,-9.888 c -0.777,-1.307 -1.104,-0.873 -1.687,-0.581 -0.102,0.06 -0.27,0.125 -0.377,-0.055 -0.107,-0.179 0.064,-0.298 0.154,-0.349 0.522,-0.308 1.078,-0.532 1.6,-0.839 0.524,-0.308 0.988,-0.685 1.511,-0.992 0.242,-0.143 0.329,-0.055 0.382,0.034 0.098,0.167 0.037,0.237 -0.121,0.347 -0.551,0.377 -1.098,0.44 -0.314,1.76 l 1.705,2.871 c 0.061,0.103 0.102,0.114 0.205,0.053 l 4.463,-2.626 c 0.101,-0.06 0.112,-0.101 0.051,-0.203 l -1.706,-2.871 c -0.777,-1.307 -1.104,-0.873 -1.688,-0.581 -0.102,0.059 -0.27,0.124 -0.376,-0.056 -0.107,-0.179 0.063,-0.297 0.153,-0.349 0.523,-0.308 1.078,-0.531 1.601,-0.838 0.523,-0.308 0.987,-0.685 1.511,-0.993 0.242,-0.142 0.328,-0.055 0.381,0.035 0.099,0.167 0.038,0.237 -0.12,0.347 -0.551,0.376 -1.099,0.44 -0.315,1.76 l 3.473,5.844 c 0.776,1.307 1.104,0.873 1.688,0.582 0.102,-0.061 0.27,-0.125 0.377,0.055 0.106,0.179 -0.065,0.296 -0.154,0.349 -0.523,0.308 -1.078,0.531 -1.601,0.839 -0.523,0.308 -0.988,0.685 -1.51,0.992 -0.243,0.143 -0.329,0.055 -0.382,-0.035 -0.1,-0.166 -0.038,-0.237 0.12,-0.348 0.551,-0.376 1.099,-0.438 0.314,-1.758 l -1.355,-2.282 c -0.061,-0.102 -0.101,-0.113 -0.204,-0.053 l -4.463,2.626 c -0.101,0.06 -0.112,0.1 -0.051,0.203 l 1.355,2.282 c 0.777,1.307 1.104,0.872 1.688,0.581 0.102,-0.061 0.27,-0.125 0.377,0.055 0.107,0.179 -0.065,0.298 -0.154,0.349 -0.522,0.308 -1.078,0.532 -1.601,0.839 -0.523,0.308 -0.987,0.685 -1.51,0.992 -0.243,0.143 -0.329,0.055 -0.382,-0.035 -0.099,-0.166 -0.038,-0.237 0.12,-0.346 0.551,-0.377 1.099,-0.44 0.314,-1.76 z m 12.623,-5.603 2.215,5.403 c 0.577,1.406 0.965,1.025 1.586,0.823 0.11,-0.044 0.286,-0.083 0.365,0.109 0.079,0.194 -0.108,0.286 -0.204,0.324 -0.563,0.227 -1.146,0.365 -1.709,0.592 -0.563,0.227 -1.079,0.531 -1.642,0.757 -0.261,0.106 -0.333,0.006 -0.373,-0.091 -0.073,-0.178 -0.002,-0.239 0.171,-0.325 0.601,-0.29 1.152,-0.271 0.57,-1.691 l -2.577,-6.285 c -0.577,-1.406 -0.964,-1.026 -1.586,-0.824 -0.11,0.045 -0.285,0.084 -0.365,-0.109 -0.079,-0.193 0.108,-0.284 0.204,-0.323 0.563,-0.227 1.147,-0.365 1.71,-0.592 0.563,-0.227 1.078,-0.53 1.641,-0.758 0.261,-0.104 0.334,-0.006 0.374,0.091 0.073,0.179 0.002,0.24 -0.171,0.325 -0.477,0.241 -1.153,0.273 -0.628,1.554 l 0.108,0.262 7.45,3.456 -2.322,-5.665 c -0.577,-1.407 -0.966,-1.025 -1.586,-0.824 -0.11,0.045 -0.286,0.083 -0.365,-0.109 -0.08,-0.193 0.107,-0.284 0.203,-0.323 0.564,-0.227 1.146,-0.365 1.71,-0.592 0.563,-0.227 1.079,-0.531 1.641,-0.758 0.261,-0.105 0.334,-0.006 0.374,0.091 0.073,0.179 0.002,0.24 -0.171,0.325 -0.601,0.29 -1.152,0.272 -0.57,1.692 l 2.577,6.285 c 0.576,1.406 0.964,1.025 1.586,0.823 0.109,-0.044 0.285,-0.083 0.364,0.109 0.079,0.194 -0.107,0.285 -0.203,0.324 -0.563,0.226 -1.147,0.365 -1.71,0.591 -0.563,0.228 -1.078,0.532 -1.641,0.758 -0.262,0.106 -0.334,0.006 -0.374,-0.091 -0.073,-0.178 -0.002,-0.239 0.171,-0.325 0.477,-0.24 1.136,-0.312 0.655,-1.484 l -0.023,-0.056 z m 9.651,-4.555 c -0.338,-1.142 -0.618,-1.2 -1.263,-1.03 -0.232,0.051 -0.508,0.162 -0.584,-0.095 -0.059,-0.2 0.136,-0.272 0.236,-0.3 0.626,-0.181 1.278,-0.275 1.904,-0.456 0.627,-0.181 1.228,-0.446 1.855,-0.628 0.27,-0.077 0.332,0.029 0.362,0.129 0.063,0.214 -0.065,0.251 -0.203,0.306 -0.833,0.318 -1.444,0.293 -1.025,1.705 l 0.811,2.741 c 0.047,0.156 0.095,0.266 0.209,0.234 0.071,-0.02 0.162,-0.078 0.393,-0.237 0.409,-0.288 0.874,-0.546 1.486,-0.723 1.865,-0.537 3.499,0.387 3.972,1.985 0.549,1.856 -0.756,3.239 -2.821,3.834 -0.271,0.078 -0.559,0.145 -0.834,0.209 -0.478,0.107 -0.947,0.196 -1.416,0.331 -0.584,0.168 -1.151,0.393 -1.735,0.561 -0.271,0.078 -0.333,-0.028 -0.362,-0.128 -0.077,-0.257 0.117,-0.281 0.426,-0.385 0.651,-0.204 0.855,-0.402 0.516,-1.543 z m 3.23,6.212 c 0.14,0.47 0.235,0.737 0.381,0.866 0.311,0.267 0.922,0.09 1.307,-0.021 2.577,-0.742 2.167,-2.544 2.015,-3.058 -0.406,-1.37 -1.666,-2.076 -3.118,-1.658 -0.484,0.139 -0.959,0.415 -1.288,0.712 -0.122,0.112 -0.176,0.19 -0.083,0.503 z m 10.382,-5.596 c -0.088,0.008 -0.087,0.022 -0.08,0.111 l 0.247,2.768 c 0.135,1.511 0.62,1.263 1.274,1.255 0.119,-0.01 0.299,0.006 0.317,0.213 0.019,0.208 -0.187,0.239 -0.291,0.247 -0.606,0.049 -1.206,0.008 -1.812,0.056 -0.607,0.049 -1.191,0.185 -1.797,0.234 -0.281,0.022 -0.321,-0.094 -0.33,-0.197 -0.018,-0.193 0.069,-0.229 0.26,-0.259 0.661,-0.098 1.184,0.083 1.048,-1.442 l -0.602,-6.751 c -0.134,-1.509 -0.618,-1.261 -1.274,-1.254 -0.118,0.01 -0.298,-0.005 -0.316,-0.212 -0.019,-0.208 0.187,-0.24 0.291,-0.247 0.606,-0.049 1.206,-0.008 1.813,-0.057 0.606,-0.049 1.189,-0.186 1.796,-0.234 0.281,-0.023 0.322,0.093 0.331,0.197 0.017,0.192 -0.069,0.229 -0.26,0.26 -0.662,0.097 -1.185,-0.084 -1.049,1.441 l 0.293,3.286 c 0.006,0.074 0.023,0.088 0.097,0.082 l 2.278,-0.184 c -0.254,-3.349 2.173,-5.706 5.117,-5.943 3.255,-0.262 5.822,2.127 6.082,5.043 0.244,2.738 -1.538,5.655 -5.014,5.935 -2.767,0.222 -5.57,-1.476 -6.126,-4.533 z m 7.391,-6.186 c -1.879,0.152 -3.99,1.873 -3.671,5.455 0.255,2.857 2.1,4.84 4.571,4.642 2.707,-0.218 3.872,-3.025 3.647,-5.542 -0.243,-2.738 -2.15,-4.747 -4.547,-4.555 m 8.129,1.303 c 0.094,-1.511 -0.423,-1.34 -1.072,-1.43 -0.118,-0.009 -0.295,-0.051 -0.281,-0.258 0.013,-0.208 0.221,-0.208 0.325,-0.2 0.607,0.043 1.195,0.174 1.802,0.217 0.608,0.043 1.206,-0.003 1.815,0.04 0.281,0.021 0.304,0.141 0.297,0.244 -0.012,0.194 -0.103,0.216 -0.297,0.217 -0.669,-0.003 -1.159,-0.26 -1.255,1.266 l -0.208,3.317 c -0.007,0.119 0.021,0.152 0.139,0.159 l 5.188,0.371 c 0.119,0.008 0.15,-0.02 0.157,-0.138 l 0.208,-3.318 c 0.095,-1.511 -0.421,-1.34 -1.071,-1.431 -0.119,-0.009 -0.295,-0.051 -0.282,-0.258 0.014,-0.208 0.222,-0.208 0.325,-0.2 0.608,0.043 1.195,0.175 1.803,0.218 0.608,0.044 1.206,-0.003 1.814,0.04 0.281,0.02 0.304,0.14 0.297,0.244 -0.012,0.192 -0.102,0.217 -0.296,0.217 -0.67,-0.003 -1.16,-0.261 -1.256,1.265 l -0.422,6.755 c -0.095,1.511 0.422,1.34 1.071,1.431 0.119,0.009 0.295,0.051 0.282,0.258 -0.013,0.208 -0.222,0.208 -0.325,0.2 -0.608,-0.043 -1.195,-0.175 -1.803,-0.218 -0.607,-0.044 -1.206,0.003 -1.813,-0.04 -0.283,-0.021 -0.305,-0.142 -0.298,-0.244 0.011,-0.194 0.102,-0.217 0.296,-0.217 0.67,0.003 1.16,0.261 1.256,-1.266 l 0.165,-2.636 c 0.006,-0.118 -0.021,-0.151 -0.139,-0.159 l -5.189,-0.37 c -0.118,-0.008 -0.149,0.02 -0.157,0.137 l -0.165,2.638 c -0.095,1.511 0.422,1.34 1.071,1.43 0.12,0.008 0.295,0.051 0.283,0.258 -0.014,0.207 -0.222,0.207 -0.326,0.2 -0.607,-0.043 -1.195,-0.174 -1.803,-0.217 -0.608,-0.044 -1.206,0.003 -1.814,-0.04 -0.281,-0.021 -0.303,-0.141 -0.297,-0.245 0.012,-0.193 0.102,-0.216 0.296,-0.217 0.67,0.004 1.16,0.261 1.256,-1.265 z m 11.897,1.03 c 0.248,-1.493 -0.285,-1.375 -0.921,-1.532 -0.118,-0.02 -0.288,-0.08 -0.254,-0.284 0.033,-0.205 0.241,-0.184 0.343,-0.166 0.572,0.1 1.136,0.243 1.707,0.343 0.982,0.172 1.966,0.237 2.948,0.409 2.93,0.512 3.432,2.571 3.228,3.8 -0.274,1.653 -1.731,2.799 -4.265,2.356 -0.587,-0.101 -1.131,-0.272 -1.647,-0.437 -0.53,-0.168 -0.542,0.086 -0.578,0.305 l -0.351,2.107 c -0.247,1.492 0.286,1.375 0.922,1.531 0.118,0.021 0.288,0.08 0.255,0.285 -0.034,0.205 -0.242,0.184 -0.345,0.166 -0.6,-0.105 -1.171,-0.295 -1.772,-0.4 -0.601,-0.105 -1.202,-0.119 -1.802,-0.224 -0.279,-0.049 -0.289,-0.172 -0.271,-0.273 0.031,-0.191 0.124,-0.204 0.316,-0.186 0.667,0.072 1.129,0.378 1.379,-1.13 z m 0.772,3.522 c -0.059,0.351 0.083,0.586 1.358,0.809 1.818,0.317 3.184,-0.378 3.458,-2.031 0.234,-1.405 -0.417,-2.842 -2.351,-3.18 -1.699,-0.297 -1.814,0.48 -2.023,1.739 z m 8.005,-1.99 c 0.248,-1.492 -0.284,-1.375 -0.922,-1.532 -0.117,-0.02 -0.288,-0.08 -0.254,-0.285 0.034,-0.205 0.241,-0.183 0.344,-0.166 0.6,0.106 1.18,0.251 1.78,0.357 0.601,0.104 1.194,0.163 1.795,0.267 0.278,0.049 0.288,0.171 0.271,0.274 -0.032,0.19 -0.124,0.204 -0.317,0.185 -0.667,-0.071 -1.128,-0.378 -1.379,1.129 l -1.107,6.672 c -0.248,1.492 0.284,1.374 0.922,1.531 0.117,0.02 0.288,0.08 0.254,0.285 -0.035,0.205 -0.242,0.183 -0.344,0.166 -0.602,-0.105 -1.173,-0.295 -1.774,-0.4 -0.6,-0.105 -1.201,-0.119 -1.801,-0.224 -0.279,-0.049 -0.288,-0.171 -0.272,-0.274 0.031,-0.189 0.124,-0.204 0.318,-0.185 0.666,0.072 1.127,0.377 1.377,-1.129 z m 5.302,8.913 c -0.528,0.372 -0.621,0.513 -0.652,0.611 -0.091,0.281 0.343,0.442 0.498,0.492 0.085,0.029 0.17,0.056 0.255,0.084 l 0.226,0.076 c 0.25,0.098 0.247,0.252 0.216,0.351 -0.082,0.254 -0.361,0.147 -0.474,0.109 -0.82,-0.271 -1.589,-0.604 -2.396,-0.87 -0.522,-0.173 -1.068,-0.275 -1.591,-0.449 -0.085,-0.027 -0.283,-0.093 -0.219,-0.29 0.096,-0.297 0.375,-0.095 0.77,-0.011 0.617,0.126 0.901,-0.076 1.927,-0.783 l 3.569,-2.423 -1.308,-3.849 c -0.519,-1.545 -0.722,-1.69 -1.363,-1.934 -0.278,-0.107 -0.49,-0.177 -0.412,-0.417 0.054,-0.169 0.247,-0.137 0.323,-0.127 0.055,0.019 0.112,0.037 0.169,0.056 0.428,0.173 0.858,0.345 1.297,0.491 0.622,0.206 1.261,0.355 1.884,0.561 0.127,0.043 0.292,0.112 0.228,0.31 -0.095,0.296 -0.459,0.113 -0.813,-0.004 -0.197,-0.065 -0.719,-0.191 -0.834,0.161 -0.063,0.198 0.001,0.531 0.088,0.793 l 1.12,3.46 c 0.068,0.179 0.091,0.156 0.212,0.071 l 2.994,-2.099 c 0.402,-0.274 0.592,-0.429 0.652,-0.611 0.099,-0.311 -0.353,-0.46 -0.64,-0.54 -0.085,-0.028 -0.17,-0.056 -0.268,-0.088 -0.072,-0.025 -0.264,-0.104 -0.192,-0.329 0.073,-0.226 0.28,-0.189 0.549,-0.1 0.594,0.196 1.16,0.478 1.754,0.674 0.509,0.169 1.045,0.252 1.554,0.421 0.127,0.042 0.339,0.112 0.275,0.309 -0.077,0.24 -0.257,0.164 -0.491,0.118 -0.452,-0.102 -0.626,-0.05 -1.395,0.491 l -4.513,3.218 0.88,2.601 c 0.668,1.953 1.241,2.313 1.924,2.571 0.462,0.168 0.449,0.258 0.399,0.413 -0.023,0.071 -0.082,0.206 -0.379,0.109 -0.537,-0.178 -1.032,-0.389 -1.556,-0.562 -0.594,-0.196 -1.225,-0.374 -1.823,-0.556 -0.028,-0.009 -0.057,-0.019 -0.085,-0.028 -0.085,-0.028 -0.203,-0.098 -0.144,-0.282 0.069,-0.211 0.257,-0.164 0.488,-0.104 0.372,0.108 0.825,0.351 0.953,-0.043 0.077,-0.24 -0.034,-0.527 -0.219,-1.119 l -0.782,-2.567 c -0.028,-0.103 -0.147,-0.126 -0.226,-0.074 z m 11.305,6.011 c -0.22,0.181 -0.22,0.181 -0.363,0.101 -0.117,-0.065 -0.214,-0.137 -0.331,-0.203 -0.188,-0.122 -0.396,-0.238 -0.591,-0.348 -0.833,-0.466 -0.782,-0.404 -1.145,-0.608 -0.248,-0.139 -0.209,-0.27 -0.166,-0.348 0.029,-0.05 0.128,-0.199 0.362,-0.068 0.169,0.095 0.317,0.195 0.494,0.277 0.619,0.296 0.839,-0.191 1.05,-0.633 l 2.95,-6.334 c 0.67,-1.423 0.174,-1.481 -0.345,-1.806 -0.117,-0.066 -0.239,-0.185 -0.145,-0.353 0.1,-0.181 0.289,-0.092 0.393,-0.034 0.429,0.241 0.816,0.559 1.244,0.8 0.456,0.255 0.967,0.439 1.422,0.694 0.247,0.139 0.216,0.257 0.165,0.348 -0.043,0.077 -0.097,0.114 -0.137,0.126 -0.041,0.012 -0.12,10e-4 -0.25,-0.072 -0.717,-0.368 -1.112,-0.793 -1.888,0.791 l -2.914,5.931 c -0.064,0.116 -0.001,0.187 0.096,0.105 l 6.241,-5.017 c 0.337,-0.268 0.495,-0.4 0.646,-0.519 0.063,-0.05 0.144,-0.106 0.236,-0.055 0.091,0.051 0.087,0.15 0.077,0.229 -0.027,0.325 -0.034,0.185 -0.1,0.827 l -0.842,8.094 c -0.018,0.125 0.012,0.194 0.039,0.208 0.025,0.015 0.087,-0.036 0.145,-0.139 l 3.527,-5.961 c 0.771,-1.298 0.06,-1.46 -0.478,-1.812 -0.11,-0.079 -0.245,-0.171 -0.146,-0.352 0.044,-0.078 0.161,-0.165 0.395,-0.034 0.532,0.298 1.01,0.667 1.543,0.966 0.533,0.299 1.122,0.528 1.655,0.826 0.247,0.139 0.216,0.257 0.166,0.348 -0.1,0.181 -0.173,0.157 -0.577,-0.035 -0.527,-0.278 -0.809,-0.232 -1.251,0.503 l -3.737,6.217 c -0.486,0.813 -0.394,1.017 0.216,1.393 0.363,0.238 0.454,0.288 0.345,0.483 -0.05,0.09 -0.134,0.178 -0.38,0.041 -0.312,-0.175 -0.61,-0.376 -0.909,-0.544 -0.286,-0.16 -0.573,-0.287 -0.925,-0.485 -0.338,-0.189 -0.281,-0.259 -0.27,-0.372 l 0.827,-8.068 c 0.018,-0.126 0.021,-0.192 -0.005,-0.207 -0.026,-0.014 -0.081,0.023 -0.178,0.104 z m 12.559,7.069 c -0.199,0.132 -0.604,0.427 -0.687,0.494 -0.121,0.097 -0.247,0.226 -0.418,0.106 -0.147,-0.102 -0.088,-0.241 -0.047,-0.375 0.039,-0.136 0.263,-0.88 0.347,-1.237 l 1.993,-7.931 c 0.269,-1.094 -0.002,-1.228 -0.323,-1.471 -0.396,-0.293 -0.35,-0.388 -0.265,-0.509 0.026,-0.036 0.122,-0.149 0.334,-0.037 0.058,0.022 0.098,0.068 0.147,0.102 0.362,0.29 0.708,0.602 1.088,0.867 0.415,0.29 0.894,0.515 1.31,0.804 0.233,0.163 0.19,0.278 0.131,0.363 -0.101,0.145 -0.188,0.139 -0.462,-0.016 -0.604,-0.385 -0.998,-0.497 -1.242,-0.144 -0.076,0.109 -0.148,0.292 -0.187,0.427 l -0.579,2.014 c -0.057,0.213 -0.152,0.272 0.227,0.536 l 2.19,1.527 c 0.123,0.085 0.219,0.207 0.569,-0.036 l 1.74,-1.203 c 0.275,-0.186 0.359,-0.308 0.41,-0.382 0.236,-0.34 -0.147,-0.625 -0.376,-0.766 -0.086,-0.06 -0.183,-0.128 -0.269,-0.188 -0.086,-0.059 -0.24,-0.203 -0.114,-0.386 0.135,-0.194 0.324,-0.099 0.556,0.063 0.514,0.358 0.977,0.789 1.49,1.147 0.441,0.308 0.932,0.541 1.372,0.849 0.171,0.119 0.285,0.217 0.175,0.375 -0.142,0.206 -0.281,0.092 -0.493,-0.02 -0.441,-0.253 -0.741,-0.319 -1.47,0.183 z m 3.057,-3.783 c 0.303,-0.202 0.165,-0.318 0.055,-0.395 l -2.055,-1.432 c -0.062,-0.042 -0.116,-0.044 -0.141,-0.007 -0.025,0.036 -0.059,0.085 -0.098,0.219 l -0.905,3.481 c -0.034,0.101 -0.064,0.171 -0.003,0.214 0.062,0.042 0.104,-0.019 0.199,-0.078 z m 0.591,7.653 c -0.102,-0.087 -0.376,-0.318 -0.59,-0.111 -0.038,0.045 -0.076,0.091 -0.114,0.135 -0.146,0.128 -0.249,0.041 -0.305,-0.006 -0.057,-0.049 -0.162,-0.157 -0.04,-0.441 l 0.822,-1.9 c 0.122,-0.283 0.177,-0.372 0.234,-0.441 0.076,-0.09 0.214,-0.09 0.293,-0.023 0.171,0.144 0.053,0.354 0.009,0.684 -0.188,1.566 0.357,2.007 1.2,2.719 0.525,0.444 0.662,0.58 0.862,0.343 l 4.995,-5.925 c 0.982,-1.165 0.418,-1.331 -0.113,-1.857 -0.138,-0.137 -0.187,-0.217 -0.063,-0.364 0.066,-0.08 0.165,-0.151 0.382,0.033 0.49,0.413 0.933,0.905 1.423,1.319 0.491,0.414 1.026,0.751 1.516,1.165 0.216,0.183 0.162,0.293 0.096,0.372 -0.181,0.214 -0.358,0.007 -0.583,-0.165 -0.579,-0.47 -0.87,-0.541 -1.633,0.363 l -4.994,5.925 c -0.209,0.249 -0.02,0.371 0.105,0.477 l 1.356,1.146 c 0.581,0.49 1.285,0.117 1.725,-0.149 0.239,-0.167 0.431,-0.372 0.613,-0.218 0.182,0.154 -0.018,0.392 -0.472,0.977 l -0.841,1.089 c -0.104,0.125 -0.3,0.425 -0.516,0.242 -0.136,-0.116 -0.063,-0.248 0.012,-0.454 0.097,-0.23 0.077,-0.323 -0.196,-0.554 z m 13.212,0.393 c 1.13,-1 0.638,-1.243 0.236,-1.763 -0.08,-0.089 -0.176,-0.242 -0.022,-0.38 0.167,-0.146 0.335,0.043 0.404,0.121 0.436,0.491 0.795,1.029 1.231,1.521 0.475,0.535 1.204,1.244 2.285,2.439 l 1.238,1.373 c 0.159,0.179 0.306,0.189 -0.075,0.606 -0.961,1.01 -0.896,1.172 -1.251,1.486 -0.155,0.138 -0.245,0.059 -0.285,0.014 -0.108,-0.123 -0.016,-0.286 0.068,-0.459 0.471,-0.895 0.769,-1.717 -0.32,-2.945 l -0.713,-0.802 c -0.921,-1.038 -1.572,-0.501 -2.114,-0.021 l -2.203,1.951 c -0.133,0.117 -0.33,0.252 -0.092,0.521 l 0.692,0.78 c 0.942,1.06 1.399,0.974 2.148,0.569 0.368,-0.186 0.577,-0.351 0.745,-0.162 0.159,0.179 -0.049,0.323 -0.269,0.478 -2.062,1.528 -1.53,1.416 -2.15,1.965 -0.145,0.128 -0.27,0.119 -0.35,0.03 -0.098,-0.111 -0.059,-0.246 0.078,-0.447 0.196,-0.293 0.541,-0.839 -0.191,-1.664 l -0.971,-1.093 c -0.337,-0.38 -0.493,-0.222 -0.67,-0.065 l -2.136,1.892 c -0.376,0.334 -0.413,0.427 0.468,1.419 1.505,1.695 1.965,1.746 3.192,1.278 0.161,-0.063 0.343,-0.125 0.462,0.009 0.09,0.101 -0.013,0.23 -0.057,0.269 -0.09,0.1 -0.132,0.097 -0.653,0.58 l -0.511,0.471 c -0.166,0.147 -0.244,0.237 -0.333,0.316 -0.121,0.107 -0.151,0.074 -0.574,-0.469 -0.245,-0.3 -0.957,-1.124 -1.294,-1.503 l -2.109,-2.376 c -0.347,-0.391 -0.717,-0.74 -1.064,-1.131 -0.188,-0.212 -0.119,-0.312 -0.042,-0.382 0.144,-0.127 0.226,-0.08 0.365,0.056 0.48,0.473 0.65,0.999 1.79,-0.011 z m 0.426,13.15 c -0.276,0.072 -0.276,0.072 -0.374,-0.06 -0.079,-0.108 -0.138,-0.212 -0.217,-0.322 -0.12,-0.189 -0.261,-0.382 -0.392,-0.561 -0.564,-0.771 -0.544,-0.694 -0.79,-1.031 -0.167,-0.228 -0.078,-0.331 -0.005,-0.383 0.047,-0.035 0.199,-0.127 0.357,0.089 0.115,0.157 0.209,0.31 0.335,0.458 0.441,0.528 0.846,0.178 1.223,-0.133 l 5.342,-4.495 c 1.207,-1.005 0.779,-1.266 0.442,-1.777 -0.08,-0.108 -0.141,-0.266 0.015,-0.38 0.168,-0.122 0.302,0.038 0.373,0.135 0.291,0.397 0.509,0.847 0.8,1.243 0.308,0.422 0.697,0.803 1.005,1.225 0.167,0.228 0.089,0.322 0.005,0.383 -0.071,0.051 -0.137,0.062 -0.179,0.056 -0.041,-0.007 -0.109,-0.05 -0.197,-0.17 -0.5,-0.632 -0.681,-1.182 -2.052,-0.075 l -5.141,4.145 c -0.108,0.078 -0.079,0.168 0.044,0.134 l 7.791,-1.923 c 0.42,-0.103 0.619,-0.156 0.807,-0.2 0.078,-0.019 0.175,-0.035 0.238,0.049 0.061,0.084 0.015,0.172 -0.027,0.24 -0.16,0.283 -0.108,0.153 -0.437,0.706 l -4.156,6.968 c -0.07,0.106 -0.071,0.18 -0.052,0.204 0.017,0.024 0.095,0.005 0.19,-0.064 l 5.712,-3.915 c 1.246,-0.852 0.666,-1.296 0.323,-1.839 -0.067,-0.117 -0.152,-0.258 0.015,-0.38 0.072,-0.053 0.215,-0.083 0.373,0.134 0.361,0.494 0.642,1.027 1.003,1.521 0.36,0.494 0.802,0.947 1.163,1.441 0.168,0.228 0.089,0.322 0.006,0.383 -0.168,0.122 -0.224,0.07 -0.512,-0.274 -0.364,-0.472 -0.639,-0.549 -1.351,-0.068 l -6.01,4.057 c -0.784,0.534 -0.786,0.756 -0.387,1.351 0.232,0.367 0.293,0.451 0.113,0.581 -0.083,0.062 -0.197,0.107 -0.364,-0.122 -0.211,-0.289 -0.398,-0.595 -0.6,-0.872 -0.195,-0.265 -0.404,-0.5 -0.641,-0.825 -0.229,-0.313 -0.148,-0.353 -0.091,-0.45 l 4.132,-6.952 c 0.069,-0.105 0.1,-0.165 0.082,-0.189 -0.018,-0.023 -0.083,-0.013 -0.205,0.02 z"
         style="fill:#1c3585;fill-opacity:1;fill-rule:evenodd;stroke:none;stroke-width:0.363372"
         id="path857" /><path
         d="m 252.8368,125.3327 c -0.238,0.023 -0.735,0.098 -0.841,0.119 -0.152,0.029 -0.323,0.085 -0.421,-0.099 -0.084,-0.159 0.034,-0.253 0.131,-0.355 0.098,-0.101 0.643,-0.654 0.882,-0.93 l 5.441,-6.081 c 0.745,-0.842 0.566,-1.086 0.391,-1.448 -0.217,-0.441 -0.132,-0.503 -0.001,-0.571 0.04,-0.021 0.178,-0.076 0.315,0.122 0.041,0.045 0.056,0.104 0.084,0.158 0.19,0.422 0.352,0.857 0.569,1.267 0.236,0.448 0.558,0.868 0.795,1.316 0.132,0.25 0.041,0.332 -0.051,0.38 -0.157,0.082 -0.232,0.036 -0.404,-0.227 -0.36,-0.619 -0.66,-0.9 -1.039,-0.702 -0.119,0.062 -0.268,0.191 -0.366,0.291 l -1.445,1.511 c -0.149,0.161 -0.262,0.17 -0.046,0.578 l 1.245,2.359 c 0.07,0.133 0.1,0.285 0.524,0.232 l 2.106,-0.258 c 0.331,-0.038 0.462,-0.106 0.541,-0.147 0.367,-0.192 0.158,-0.62 0.02,-0.851 -0.049,-0.092 -0.105,-0.197 -0.154,-0.29 -0.048,-0.092 -0.119,-0.29 0.078,-0.393 0.209,-0.109 0.333,0.061 0.465,0.312 0.293,0.554 0.506,1.148 0.798,1.701 0.25,0.476 0.58,0.908 0.83,1.383 0.098,0.186 0.155,0.323 -0.016,0.412 -0.223,0.116 -0.294,-0.049 -0.432,-0.245 -0.275,-0.428 -0.513,-0.624 -1.394,-0.518 z m 4.471,-1.928 c 0.364,-0.038 0.294,-0.203 0.231,-0.322 l -1.168,-2.215 c -0.035,-0.065 -0.082,-0.092 -0.122,-0.071 -0.039,0.02 -0.092,0.048 -0.188,0.149 l -2.415,2.655 c -0.079,0.074 -0.137,0.121 -0.102,0.187 0.035,0.066 0.101,0.031 0.213,0.024 z m -2.745,6.875 c -0.051,-0.124 -0.187,-0.454 -0.473,-0.371 -0.055,0.022 -0.109,0.044 -0.165,0.067 -0.19,0.044 -0.24,-0.081 -0.269,-0.149 -0.028,-0.069 -0.071,-0.212 0.17,-0.406 l 1.614,-1.293 c 0.24,-0.193 0.331,-0.246 0.414,-0.279 0.109,-0.045 0.231,0.018 0.27,0.115 0.086,0.207 -0.117,0.337 -0.309,0.607 -0.895,1.292 -0.616,1.935 -0.197,2.954 0.261,0.634 0.321,0.819 0.609,0.703 l 7.195,-2.903 c 1.415,-0.57 0.991,-0.977 0.764,-1.689 -0.06,-0.185 -0.067,-0.279 0.112,-0.35 0.096,-0.039 0.217,-0.056 0.324,0.206 0.244,0.593 0.41,1.233 0.653,1.824 0.244,0.593 0.564,1.139 0.807,1.731 0.108,0.263 0.009,0.334 -0.087,0.373 -0.261,0.105 -0.321,-0.159 -0.442,-0.416 -0.297,-0.684 -0.523,-0.881 -1.621,-0.439 l -7.196,2.903 c -0.301,0.122 -0.189,0.317 -0.128,0.469 l 0.674,1.64 c 0.288,0.702 1.089,0.701 1.604,0.67 0.289,-0.036 0.555,-0.128 0.646,0.093 0.091,0.221 -0.198,0.337 -0.873,0.641 l -1.255,0.57 c -0.15,0.061 -0.463,0.235 -0.57,-0.027 -0.068,-0.165 0.058,-0.248 0.222,-0.394 0.191,-0.157 0.218,-0.248 0.082,-0.579 z m 11.267,8.026 -5.581,1.608 c -1.452,0.418 -1.109,0.846 -0.966,1.486 0.034,0.115 0.057,0.294 -0.142,0.351 -0.2,0.058 -0.274,-0.138 -0.303,-0.237 -0.174,-0.586 -0.257,-1.182 -0.431,-1.767 -0.173,-0.585 -0.427,-1.132 -0.6,-1.717 -0.08,-0.271 0.025,-0.332 0.125,-0.361 0.184,-0.053 0.238,0.024 0.307,0.206 0.233,0.63 0.163,1.177 1.63,0.754 l 6.492,-1.87 c 1.453,-0.419 1.11,-0.847 0.967,-1.488 -0.034,-0.113 -0.056,-0.292 0.143,-0.35 0.199,-0.058 0.272,0.138 0.303,0.238 0.172,0.585 0.256,1.181 0.429,1.766 0.174,0.586 0.429,1.132 0.602,1.717 0.08,0.271 -0.026,0.333 -0.125,0.361 -0.185,0.054 -0.239,-0.024 -0.308,-0.205 -0.195,-0.502 -0.163,-1.178 -1.487,-0.796 l -0.271,0.078 -4.131,7.03 5.852,-1.685 c 1.453,-0.418 1.109,-0.847 0.967,-1.487 -0.034,-0.114 -0.057,-0.293 0.142,-0.351 0.201,-0.058 0.274,0.138 0.303,0.238 0.173,0.585 0.257,1.181 0.431,1.766 0.173,0.585 0.428,1.132 0.6,1.717 0.08,0.271 -0.025,0.333 -0.125,0.361 -0.184,0.054 -0.239,-0.024 -0.307,-0.205 -0.234,-0.631 -0.163,-1.177 -1.63,-0.755 l -6.492,1.871 c -1.453,0.418 -1.111,0.846 -0.967,1.486 0.034,0.115 0.057,0.294 -0.143,0.351 -0.2,0.058 -0.273,-0.138 -0.302,-0.238 -0.174,-0.585 -0.257,-1.181 -0.43,-1.766 -0.174,-0.585 -0.428,-1.132 -0.602,-1.717 -0.08,-0.271 0.026,-0.333 0.125,-0.361 0.185,-0.054 0.239,0.024 0.308,0.205 0.195,0.502 0.206,1.165 1.416,0.816 l 0.058,-0.016 z m 3.619,10.112 c 1.489,-0.272 1.19,-0.731 1.111,-1.382 -0.023,-0.116 -0.027,-0.297 0.177,-0.334 0.204,-0.038 0.258,0.164 0.278,0.267 0.114,0.598 0.137,1.199 0.253,1.799 0.114,0.598 0.313,1.167 0.426,1.766 0.054,0.278 -0.057,0.328 -0.16,0.347 -0.189,0.034 -0.235,-0.048 -0.285,-0.236 -0.17,-0.649 -0.046,-1.186 -1.549,-0.912 l -2.931,0.536 c -0.088,0.015 -0.266,0.033 -0.323,0.133 -0.02,0.049 -0.033,0.143 0.039,0.523 0.11,0.569 0.34,1.222 2.114,1.897 l 2.718,1.032 c 0.456,0.173 1.121,0.415 1.291,1.306 0.02,0.103 0.027,0.222 0.047,0.324 0.019,0.179 0.049,0.339 0.083,0.514 0.025,0.132 0.05,0.264 0.076,0.395 0.038,0.281 -0.059,0.328 -0.161,0.346 -0.058,0.011 -0.236,0.029 -0.287,-0.234 -0.013,-0.073 -0.027,-0.147 -0.041,-0.219 -0.107,-0.48 -0.426,-0.724 -1.473,-1.153 l -2.311,-0.954 c -0.606,-0.253 -1.637,-0.745 -2.019,-1.961 l -0.059,0.011 c -0.021,1.319 -1.174,1.999 -1.434,2.136 l -1.024,0.566 c -0.519,0.291 -1.117,0.55 -1.045,0.931 0.039,0.204 0.198,0.25 0.358,0.297 0.224,0.066 0.543,0.158 0.622,0.568 0.07,0.365 -0.106,0.866 -0.646,0.964 -0.555,0.101 -1.015,-0.254 -1.121,-0.809 -0.117,-0.613 -0.06,-1.501 1.255,-2.285 l 1.112,-0.657 c 1.534,-0.899 1.7,-1.927 1.569,-2.614 l -0.061,-0.321 c -0.117,-0.614 -0.214,-0.567 -0.49,-0.516 l -2.509,0.457 c -1.488,0.272 -1.19,0.732 -1.11,1.382 0.022,0.117 0.026,0.298 -0.178,0.335 -0.204,0.037 -0.258,-0.164 -0.278,-0.267 -0.114,-0.599 -0.138,-1.2 -0.252,-1.798 -0.115,-0.599 -0.314,-1.167 -0.428,-1.767 -0.053,-0.277 0.058,-0.328 0.16,-0.347 0.189,-0.034 0.235,0.048 0.286,0.236 0.17,0.649 0.045,1.185 1.549,0.912 z m 3.946,14.521 c 0.125,3.37 -2.369,5.834 -5.293,5.917 -2.731,0.078 -5.583,-1.922 -5.717,-5.514 -0.113,-3.044 1.978,-5.927 5.214,-6.019 2.775,-0.079 5.659,1.964 5.796,5.616 m -0.446,0.013 c -0.092,-2.45 -2.267,-4.23 -5.295,-4.144 -3.443,0.097 -4.903,2.398 -4.827,4.432 0.105,2.821 2.861,4.199 5.383,4.127 2.746,-0.078 4.832,-1.921 4.739,-4.415 m -1.188,8.525 c 0.993,0.07 0.92,-0.664 0.976,-1.092 0.008,-0.118 0.048,-0.294 0.256,-0.279 0.207,0.015 0.209,0.223 0.202,0.327 -0.038,0.607 -0.119,1.197 -0.157,1.804 -0.056,0.904 -0.01,1.815 -0.066,2.719 -0.203,3.244 -1.876,4.047 -3.255,3.949 -1.838,-0.131 -2.635,-1.676 -2.693,-3.139 l -0.058,-0.004 c -0.158,0.852 -0.735,2.225 -2.365,2.109 -2.447,-0.175 -2.246,-3.613 -2.182,-4.635 0.064,-1.037 0.272,-2.927 0.639,-3.779 0.035,-0.087 0.121,-0.274 0.314,-0.26 0.104,0.007 0.173,0.086 0.165,0.205 -0.009,0.148 -0.175,0.419 -0.199,0.804 -0.025,0.4 0.092,0.676 0.922,0.735 z m -8.015,0.767 c -0.548,-0.039 -0.869,0.087 -0.947,1.346 -0.123,1.956 0.945,2.731 2.087,2.812 0.889,0.064 1.962,-0.425 2.074,-2.217 l 0.069,-1.097 c 0.022,-0.355 0.038,-0.607 -0.481,-0.644 z m 4.225,0.301 c -0.43,-0.03 -0.449,0.281 -0.457,0.414 l -0.068,1.067 c -0.149,2.385 1,3.3 2.394,3.399 1.215,0.087 2.578,-0.515 2.719,-2.767 0.116,-1.851 -0.748,-1.839 -1.905,-1.921 z"
         style="fill:#1c3585;fill-opacity:1;fill-rule:evenodd;stroke:none;stroke-width:0.363372"
         id="path861" /><path
         d="m 83.9212,182.4572 c -0.687,0 -0.722,-0.057 -0.831,-0.268 -0.413,-0.804 -0.724,-1.984 -0.8,-2.86 -0.303,-3.476 2.136,-6.007 5.072,-6.256 3.233,-0.273 5.65,2.097 5.905,5.033 0.126,1.446 -0.239,2.58 -0.396,3.006 -0.256,0.654 -0.525,0.662 -0.761,0.697 l -0.531,0.074 c -0.442,0.067 -1.023,0.263 -1.052,-0.073 -0.012,-0.131 0.072,-0.198 0.158,-0.249 0.537,-0.354 1.382,-0.764 1.872,-1.659 0.283,-0.524 0.325,-1.072 0.283,-1.553 -0.195,-2.25 -2.251,-4.078 -5.543,-3.799 -2.848,0.241 -4.789,2.142 -4.567,4.683 0.111,1.286 0.638,2.02 1.806,2.569 0.469,0.24 0.617,0.227 0.634,0.417 0.019,0.219 -0.174,0.236 -0.577,0.24 z m 1.281,7.331 c -0.239,-0.034 -0.739,-0.081 -0.848,-0.085 -0.155,-0.008 -0.336,0.004 -0.385,-0.195 -0.042,-0.171 0.096,-0.234 0.216,-0.308 0.12,-0.073 0.788,-0.473 1.089,-0.681 l 6.807,-4.528 c 0.933,-0.629 0.82,-0.904 0.74,-1.292 -0.1,-0.473 -0.003,-0.513 0.142,-0.547 0.044,-0.01 0.192,-0.03 0.276,0.191 0.029,0.054 0.028,0.114 0.042,0.171 0.079,0.449 0.13,0.904 0.238,1.346 0.118,0.485 0.327,0.963 0.446,1.447 0.066,0.271 -0.043,0.327 -0.144,0.351 -0.173,0.041 -0.234,-0.02 -0.337,-0.312 -0.195,-0.677 -0.417,-1.017 -0.836,-0.917 -0.131,0.031 -0.308,0.118 -0.428,0.193 l -1.781,1.102 c -0.185,0.119 -0.297,0.1 -0.189,0.542 l 0.624,2.551 c 0.035,0.142 0.026,0.295 0.452,0.345 l 2.113,0.251 c 0.332,0.042 0.477,0.008 0.563,-0.013 0.405,-0.096 0.309,-0.556 0.231,-0.809 -0.024,-0.1 -0.053,-0.214 -0.077,-0.313 -0.024,-0.1 -0.045,-0.307 0.173,-0.358 0.232,-0.055 0.309,0.138 0.376,0.408 0.146,0.599 0.206,1.218 0.352,1.816 0.126,0.514 0.338,1.006 0.464,1.519 0.048,0.199 0.069,0.345 -0.119,0.39 -0.246,0.058 -0.273,-0.116 -0.358,-0.337 -0.163,-0.474 -0.344,-0.717 -1.227,-0.824 z m 4.829,-0.786 c 0.364,0.049 0.337,-0.126 0.306,-0.253 l -0.586,-2.395 c -0.018,-0.071 -0.057,-0.107 -0.101,-0.096 -0.043,0.01 -0.101,0.024 -0.221,0.097 l -3.009,1.967 c -0.095,0.053 -0.164,0.084 -0.146,0.156 0.018,0.071 0.09,0.054 0.202,0.072 z m 4.348,5.256 c 1.434,-0.492 1.071,-0.895 0.897,-1.519 -0.039,-0.111 -0.069,-0.286 0.127,-0.354 0.198,-0.068 0.28,0.122 0.314,0.218 0.201,0.568 0.312,1.151 0.513,1.718 0.2,0.568 0.481,1.093 0.681,1.66 0.093,0.263 -0.01,0.33 -0.108,0.363 -0.182,0.063 -0.24,-0.011 -0.318,-0.186 -0.262,-0.608 -0.218,-1.151 -1.666,-0.654 l -3.148,1.08 c -0.112,0.039 -0.131,0.077 -0.092,0.187 l 1.713,4.845 c 0.039,0.111 0.077,0.129 0.19,0.09 l 3.148,-1.081 c 1.434,-0.492 1.071,-0.895 0.897,-1.519 -0.039,-0.11 -0.069,-0.286 0.127,-0.353 0.198,-0.068 0.28,0.121 0.314,0.218 0.201,0.568 0.312,1.15 0.513,1.718 0.201,0.567 0.481,1.092 0.682,1.66 0.092,0.263 -0.01,0.329 -0.109,0.363 -0.182,0.062 -0.24,-0.011 -0.318,-0.186 -0.262,-0.608 -0.217,-1.152 -1.665,-0.654 l -6.41,2.199 c -1.433,0.492 -1.07,0.895 -0.897,1.519 0.039,0.111 0.07,0.286 -0.127,0.354 -0.197,0.068 -0.279,-0.121 -0.314,-0.218 -0.2,-0.568 -0.311,-1.15 -0.512,-1.718 -0.201,-0.568 -0.481,-1.092 -0.682,-1.66 -0.093,-0.263 0.01,-0.329 0.108,-0.363 0.183,-0.063 0.24,0.011 0.318,0.186 0.262,0.609 0.218,1.152 1.666,0.655 l 2.502,-0.859 c 0.112,-0.039 0.131,-0.076 0.091,-0.187 l -1.713,-4.845 c -0.038,-0.111 -0.076,-0.129 -0.189,-0.09 l -2.502,0.859 c -1.434,0.492 -1.071,0.895 -0.897,1.518 0.039,0.111 0.07,0.287 -0.127,0.354 -0.197,0.068 -0.28,-0.121 -0.314,-0.218 -0.2,-0.568 -0.312,-1.15 -0.513,-1.718 -0.2,-0.567 -0.48,-1.092 -0.681,-1.66 -0.093,-0.263 0.01,-0.329 0.108,-0.362 0.183,-0.063 0.24,0.01 0.318,0.185 0.262,0.609 0.218,1.152 1.666,0.655 z m 4.474,11.398 c 1.345,-0.694 0.926,-1.04 0.662,-1.632 -0.055,-0.104 -0.112,-0.274 0.073,-0.369 0.185,-0.095 0.294,0.08 0.343,0.171 0.282,0.533 0.479,1.093 0.762,1.626 0.283,0.532 0.638,1.011 0.92,1.543 0.132,0.247 0.04,0.327 -0.053,0.375 -0.171,0.088 -0.239,0.024 -0.342,-0.138 -0.349,-0.564 -0.386,-1.108 -1.745,-0.407 l -2.65,1.366 c -0.079,0.041 -0.245,0.109 -0.269,0.221 -0.006,0.052 0.009,0.144 0.188,0.482 0.269,0.506 0.679,1.056 2.572,1.172 l 2.899,0.177 c 0.486,0.031 1.193,0.064 1.613,0.856 0.049,0.09 0.091,0.202 0.139,0.293 0.07,0.162 0.145,0.305 0.228,0.461 0.062,0.117 0.124,0.234 0.186,0.351 0.118,0.253 0.04,0.327 -0.053,0.374 -0.052,0.027 -0.218,0.096 -0.342,-0.138 -0.034,-0.065 -0.069,-0.129 -0.103,-0.194 -0.241,-0.422 -0.616,-0.56 -1.743,-0.657 l -2.488,-0.224 c -0.653,-0.06 -1.781,-0.223 -2.499,-1.259 l -0.053,0.027 c 0.363,1.252 -0.545,2.233 -0.754,2.44 l -0.816,0.835 c -0.412,0.426 -0.91,0.849 -0.731,1.187 0.097,0.181 0.263,0.178 0.43,0.175 0.233,-0.004 0.565,-0.01 0.758,0.354 0.173,0.325 0.149,0.85 -0.338,1.101 -0.502,0.258 -1.045,0.058 -1.307,-0.435 -0.29,-0.546 -0.492,-1.401 0.539,-2.528 l 0.875,-0.947 c 1.207,-1.301 1.069,-2.321 0.745,-2.932 l -0.152,-0.285 c -0.29,-0.546 -0.368,-0.473 -0.619,-0.343 l -2.268,1.169 c -1.346,0.693 -0.927,1.04 -0.663,1.632 0.056,0.104 0.112,0.273 -0.073,0.368 -0.185,0.095 -0.294,-0.08 -0.343,-0.171 -0.282,-0.532 -0.479,-1.092 -0.762,-1.625 -0.282,-0.532 -0.637,-1.011 -0.921,-1.544 -0.131,-0.247 -0.039,-0.327 0.054,-0.374 0.171,-0.088 0.239,-0.024 0.342,0.138 0.349,0.564 0.386,1.107 1.745,0.407 z m -2.085,13.668 c -0.073,-0.11 -0.269,-0.404 -0.534,-0.268 -0.05,0.032 -0.1,0.065 -0.149,0.096 -0.179,0.08 -0.252,-0.03 -0.293,-0.091 -0.041,-0.062 -0.11,-0.192 0.089,-0.426 l 1.342,-1.569 c 0.2,-0.234 0.279,-0.302 0.354,-0.35 0.099,-0.065 0.231,-0.027 0.288,0.058 0.122,0.184 -0.052,0.35 -0.191,0.649 -0.634,1.427 -0.237,1.995 0.366,2.902 0.376,0.564 0.469,0.732 0.731,0.562 l 6.522,-4.214 c 1.281,-0.828 0.789,-1.14 0.43,-1.785 -0.094,-0.168 -0.118,-0.258 0.044,-0.362 0.087,-0.056 0.203,-0.096 0.359,0.137 0.35,0.526 0.635,1.114 0.985,1.641 0.352,0.527 0.769,0.994 1.12,1.521 0.155,0.233 0.071,0.321 -0.016,0.378 -0.236,0.153 -0.346,-0.092 -0.513,-0.317 -0.421,-0.605 -0.679,-0.753 -1.675,-0.11 l -6.522,4.215 c -0.273,0.176 -0.126,0.344 -0.037,0.479 l 0.972,1.459 c 0.416,0.625 1.202,0.467 1.702,0.337 0.277,-0.091 0.522,-0.232 0.653,-0.036 0.13,0.196 -0.131,0.365 -0.737,0.792 l -1.125,0.797 c -0.137,0.089 -0.411,0.318 -0.567,0.085 -0.097,-0.147 0.011,-0.252 0.144,-0.426 0.159,-0.189 0.168,-0.283 -0.028,-0.578 z m 10.374,4.158 0.546,-0.784 2.69,3.323 -0.555,0.773 z m 6.598,3.926 c 1.036,-1.093 0.525,-1.283 0.076,-1.756 -0.086,-0.079 -0.197,-0.221 -0.055,-0.371 0.142,-0.15 0.305,-0.021 0.381,0.05 0.446,0.41 0.82,0.874 1.266,1.284 0.446,0.41 0.942,0.746 1.388,1.156 0.207,0.19 0.147,0.296 0.076,0.371 -0.132,0.139 -0.218,0.101 -0.369,-0.018 -0.52,-0.418 -0.737,-0.919 -1.784,0.184 l -4.602,4.855 c -0.61,0.643 -1.001,0.905 0.587,2.365 l 1.121,1.031 c 1.576,1.45 1.837,1.068 2.447,0.425 l 4.602,-4.854 c 1.036,-1.093 0.524,-1.284 0.076,-1.756 -0.087,-0.08 -0.197,-0.221 -0.055,-0.371 0.143,-0.15 0.305,-0.021 0.381,0.049 0.446,0.41 0.82,0.875 1.266,1.285 0.446,0.41 0.942,0.745 1.388,1.156 0.206,0.19 0.147,0.296 0.076,0.371 -0.132,0.139 -0.217,0.1 -0.369,-0.019 -0.52,-0.418 -0.737,-0.919 -1.784,0.185 l -4.633,4.886 c -1.036,1.093 -0.524,1.284 -0.076,1.755 0.087,0.081 0.197,0.222 0.055,0.372 -0.142,0.15 -0.304,0.021 -0.381,-0.049 -0.445,-0.41 -0.831,-0.885 -1.276,-1.295 -0.642,-0.59 -1.345,-1.116 -1.987,-1.706 l -1.261,-1.161 c -0.653,-0.6 -1.234,-1.254 -1.875,-1.844 -0.446,-0.41 -0.942,-0.746 -1.388,-1.156 -0.207,-0.19 -0.148,-0.296 -0.076,-0.371 0.132,-0.14 0.217,-0.101 0.369,0.018 0.519,0.418 0.737,0.919 1.784,-0.185 z m 9.293,8.216 c 0.929,-1.184 0.401,-1.326 -0.091,-1.755 -0.093,-0.072 -0.217,-0.203 -0.089,-0.365 0.136,-0.174 0.337,-0.022 0.419,0.041 0.518,0.394 0.97,0.849 1.488,1.243 0.565,0.43 1.412,0.982 2.693,1.938 l 1.469,1.099 c 0.189,0.143 0.335,0.125 0.037,0.601 -0.762,1.163 -0.669,1.308 -0.96,1.679 -0.127,0.163 -0.231,0.102 -0.278,0.067 -0.129,-0.099 -0.067,-0.274 -0.017,-0.458 0.3,-0.958 0.443,-1.812 -0.852,-2.798 l -0.848,-0.645 c -1.096,-0.833 -1.638,-0.189 -2.083,0.379 l -1.812,2.309 c -0.109,0.14 -0.278,0.307 0.005,0.522 l 0.824,0.627 c 1.119,0.851 1.553,0.682 2.216,0.148 0.328,-0.25 0.504,-0.45 0.704,-0.298 0.188,0.144 0.01,0.323 -0.178,0.514 -1.75,1.872 -1.247,1.662 -1.757,2.312 -0.118,0.151 -0.243,0.167 -0.337,0.095 -0.118,-0.089 -0.104,-0.227 -0.006,-0.448 0.139,-0.321 0.38,-0.916 -0.492,-1.578 l -1.154,-0.879 c -0.401,-0.305 -0.525,-0.121 -0.671,0.064 l -1.756,2.24 c -0.31,0.394 -0.329,0.491 0.72,1.288 1.79,1.362 2.252,1.324 3.372,0.639 0.147,-0.092 0.315,-0.186 0.456,-0.079 0.106,0.081 0.03,0.227 -0.007,0.273 -0.069,0.113 -0.111,0.119 -0.536,0.684 l -0.416,0.555 c -0.137,0.173 -0.198,0.276 -0.27,0.368 -0.1,0.128 -0.135,0.101 -0.651,-0.346 -0.296,-0.245 -1.148,-0.91 -1.547,-1.215 l -2.509,-1.908 c -0.413,-0.313 -0.841,-0.584 -1.252,-0.897 -0.224,-0.17 -0.175,-0.281 -0.111,-0.362 0.118,-0.151 0.207,-0.121 0.37,-0.016 0.556,0.368 0.82,0.847 1.757,-0.348 z m 3.191,12.738 c -0.116,-0.065 -0.428,-0.238 -0.6,0.004 -0.029,0.05 -0.058,0.102 -0.088,0.153 -0.12,0.151 -0.237,0.086 -0.302,0.051 -0.065,-0.036 -0.188,-0.121 -0.119,-0.42 l 0.461,-1.999 c 0.069,-0.298 0.107,-0.395 0.151,-0.472 0.058,-0.102 0.193,-0.128 0.283,-0.077 0.195,0.107 0.117,0.333 0.134,0.662 0.101,1.554 0.717,1.879 1.677,2.412 0.597,0.331 0.758,0.437 0.911,0.169 l 3.831,-6.692 c 0.753,-1.316 0.169,-1.37 -0.451,-1.781 -0.16,-0.107 -0.224,-0.176 -0.129,-0.341 0.051,-0.09 0.136,-0.178 0.382,-0.041 0.558,0.31 1.084,0.703 1.642,1.012 0.557,0.31 1.145,0.535 1.703,0.845 0.247,0.136 0.214,0.253 0.163,0.342 -0.139,0.243 -0.351,0.075 -0.604,-0.049 -0.656,-0.347 -0.955,-0.361 -1.539,0.66 l -3.831,6.693 c -0.161,0.281 0.048,0.363 0.19,0.443 l 1.543,0.855 c 0.662,0.368 1.287,-0.127 1.67,-0.47 0.204,-0.206 0.356,-0.442 0.563,-0.326 0.208,0.115 0.054,0.383 -0.285,1.036 l -0.628,1.217 c -0.081,0.14 -0.217,0.468 -0.464,0.332 -0.155,-0.087 -0.108,-0.229 -0.07,-0.444 0.052,-0.24 0.016,-0.327 -0.295,-0.5 z m 13.023,-2.638 c 0.612,-1.369 0.066,-1.382 -0.516,-1.682 -0.109,-0.047 -0.26,-0.145 -0.176,-0.333 0.09,-0.201 0.322,-0.101 0.417,-0.059 0.599,0.26 1.148,0.595 1.748,0.854 0.654,0.284 1.61,0.619 3.086,1.244 l 1.695,0.719 c 0.218,0.095 0.356,0.042 0.182,0.575 -0.456,1.309 -0.33,1.428 -0.522,1.857 -0.084,0.188 -0.199,0.154 -0.254,0.13 -0.15,-0.065 -0.132,-0.249 -0.128,-0.44 0.058,-1 -0.012,-1.863 -1.51,-2.513 l -0.98,-0.426 c -1.267,-0.549 -1.636,0.203 -1.93,0.86 l -1.195,2.67 c -0.072,0.161 -0.196,0.364 0.131,0.506 l 0.954,0.414 c 1.293,0.561 1.673,0.293 2.187,-0.381 0.257,-0.321 0.379,-0.557 0.61,-0.456 0.218,0.094 0.089,0.311 -0.046,0.541 -1.244,2.232 -0.806,1.908 -1.142,2.66 -0.079,0.174 -0.196,0.22 -0.305,0.172 -0.136,-0.059 -0.157,-0.196 -0.115,-0.434 0.057,-0.344 0.146,-0.978 -0.862,-1.416 l -1.335,-0.579 c -0.463,-0.201 -0.54,0.006 -0.635,0.221 l -1.159,2.589 c -0.205,0.456 -0.2,0.554 1.013,1.081 2.069,0.898 2.508,0.752 3.429,-0.178 0.121,-0.124 0.261,-0.255 0.424,-0.185 0.123,0.054 0.084,0.213 0.06,0.266 -0.041,0.127 -0.079,0.142 -0.354,0.792 l -0.269,0.636 c -0.09,0.201 -0.124,0.315 -0.172,0.422 -0.066,0.148 -0.107,0.13 -0.716,-0.182 -0.348,-0.167 -1.336,-0.612 -1.799,-0.813 l -2.901,-1.259 c -0.477,-0.207 -0.958,-0.368 -1.434,-0.574 -0.259,-0.112 -0.238,-0.232 -0.196,-0.325 0.078,-0.175 0.172,-0.166 0.355,-0.103 0.631,0.226 1.004,0.628 1.622,-0.754 z m 8.603,3.504 c 0.373,-1.113 0.175,-1.317 -0.457,-1.538 -0.222,-0.087 -0.513,-0.15 -0.429,-0.401 0.065,-0.195 0.268,-0.145 0.367,-0.113 0.621,0.202 1.215,0.488 1.837,0.69 0.622,0.202 1.272,0.32 1.894,0.522 0.269,0.088 0.259,0.208 0.227,0.305 -0.07,0.209 -0.198,0.168 -0.344,0.136 -0.871,-0.206 -1.361,-0.566 -1.823,0.813 l -0.896,2.672 c -0.052,0.154 -0.075,0.269 0.038,0.307 0.071,0.022 0.179,0.027 0.462,0.026 0.504,-0.007 1.035,0.043 1.643,0.24 1.851,0.602 2.676,2.258 2.153,3.818 -0.606,1.81 -2.478,2.205 -4.528,1.539 -0.268,-0.087 -0.547,-0.193 -0.81,-0.294 -0.458,-0.179 -0.896,-0.368 -1.362,-0.519 -0.58,-0.189 -1.178,-0.321 -1.757,-0.509 -0.269,-0.088 -0.26,-0.208 -0.227,-0.306 0.084,-0.25 0.258,-0.163 0.574,-0.076 0.655,0.197 0.937,0.15 1.31,-0.963 z m -0.879,6.831 c -0.154,0.46 -0.229,0.729 -0.181,0.914 0.105,0.389 0.713,0.587 1.094,0.711 2.558,0.831 3.25,-0.859 3.418,-1.36 0.448,-1.336 -0.192,-2.609 -1.633,-3.078 -0.481,-0.156 -1.032,-0.196 -1.474,-0.139 -0.165,0.024 -0.253,0.057 -0.356,0.363 z m 9.539,3.256 c -0.115,0.515 -0.133,0.526 1.407,0.861 l 0.96,0.209 c 0.769,0.167 1.498,0.25 2.279,-0.856 0.118,-0.185 0.251,-0.441 0.469,-0.394 0.16,0.035 0.143,0.181 0.13,0.238 -0.013,0.058 -0.026,0.115 -0.039,0.172 -0.066,0.226 -0.117,0.455 -0.168,0.684 -0.116,0.516 -0.149,0.734 -0.192,0.995 -0.011,0.042 -0.02,0.085 -0.03,0.128 -0.025,0.115 -0.141,0.089 -0.156,0.086 -0.058,-0.012 -0.102,-0.022 -0.145,-0.031 -0.742,-0.161 -0.674,-0.192 -2.447,-0.576 l -2.848,-0.62 c -0.349,-0.075 -0.684,-0.148 -1.036,-0.21 -0.279,-0.045 -0.573,-0.094 -0.849,-0.154 -0.276,-0.06 -0.279,-0.181 -0.257,-0.282 0.042,-0.185 0.135,-0.195 0.328,-0.169 0.442,0.067 1.126,0.351 1.354,-0.666 l 1.636,-7.301 c 0.228,-1.016 -0.513,-1.042 -0.928,-1.162 -0.116,-0.025 -0.284,-0.092 -0.239,-0.292 0.045,-0.201 0.252,-0.171 0.353,-0.149 0.582,0.126 1.139,0.292 1.705,0.416 0.945,0.205 1.898,0.307 2.843,0.512 3.008,0.654 3.366,2.728 3.099,3.916 -0.346,1.546 -1.879,2.67 -4.379,2.127 -0.494,-0.108 -0.989,-0.276 -1.638,-0.507 -0.511,-0.17 -0.531,-0.01 -0.593,0.262 z m 0.895,-3.994 c -0.077,0.344 0.067,0.585 1.39,0.873 1.715,0.372 3.131,-0.236 3.494,-1.854 0.369,-1.646 -0.539,-2.894 -2.298,-3.276 -1.672,-0.363 -1.76,0.578 -2.017,1.723 z m 9.834,5.427 c -0.084,0.127 -0.151,0.24 -0.161,0.386 -0.029,0.425 0.355,0.494 0.652,0.513 0.149,0.01 0.298,0.005 0.445,0.029 0.252,0.031 0.272,0.165 0.266,0.267 -0.013,0.19 -0.092,0.259 -0.494,0.233 -0.623,-0.041 -1.256,-0.171 -1.88,-0.211 -0.534,-0.035 -1.075,0.017 -1.609,-0.017 -0.179,-0.012 -0.342,-0.023 -0.328,-0.227 0.019,-0.279 0.312,-0.215 0.583,-0.242 0.525,-0.039 0.681,-0.366 1.398,-1.48 l 3.54,-5.587 c 0.132,-0.197 0.196,-0.251 0.099,-0.581 -0.29,-1.004 -0.681,-1.191 -0.888,-1.204 -0.179,-0.012 -0.29,0.084 -0.416,0.193 -0.175,0.165 -0.354,0.374 -0.725,0.349 -0.401,-0.026 -0.785,-0.301 -0.749,-0.827 0.035,-0.527 0.545,-0.787 1.05,-0.754 1.559,0.101 2.236,2.012 2.645,3.023 l 2.083,5.146 c 0.766,1.901 0.773,2.254 1.363,2.336 0.608,0.069 0.683,0.06 0.666,0.308 -0.004,0.059 -0.028,0.204 -0.282,0.202 -0.06,-0.003 -0.104,-0.006 -0.164,-0.011 -0.459,-0.044 -0.916,-0.118 -1.377,-0.148 -0.505,-0.033 -1.029,-0.008 -1.534,-0.042 -0.282,-0.018 -0.303,-0.136 -0.296,-0.239 0.014,-0.22 0.134,-0.227 0.521,-0.216 0.67,0.014 0.993,-0.126 1.02,-0.521 0.025,-0.366 -0.214,-1.028 -0.354,-1.375 l -1.665,-4.061 c -0.063,-0.165 -0.08,-0.372 -0.184,-0.379 -0.118,-0.008 -0.146,0.181 -0.246,0.337 z m 9.745,-6.645 c -0.042,-1.172 -0.3,-1.295 -0.97,-1.286 -0.238,-0.006 -0.534,0.034 -0.544,-0.23 -0.007,-0.205 0.201,-0.227 0.305,-0.231 0.654,-0.023 1.312,0.041 1.966,0.018 0.654,-0.023 1.305,-0.134 1.96,-0.158 0.283,-0.009 0.317,0.107 0.32,0.209 0.008,0.22 -0.125,0.225 -0.273,0.245 -0.89,0.105 -1.477,-0.065 -1.425,1.385 l 0.103,2.813 c 0.005,0.161 0.024,0.278 0.144,0.274 0.074,-0.003 0.177,-0.036 0.441,-0.133 0.47,-0.178 0.987,-0.314 1.626,-0.337 1.949,-0.069 3.306,1.202 3.366,2.844 0.069,1.904 -1.548,2.915 -3.705,2.991 -0.282,0.011 -0.581,0.007 -0.863,0.002 -0.493,-0.012 -0.97,-0.039 -1.461,-0.022 -0.61,0.022 -1.217,0.102 -1.827,0.124 -0.283,0.01 -0.316,-0.106 -0.32,-0.209 -0.01,-0.263 0.184,-0.241 0.511,-0.267 0.684,-0.039 0.932,-0.18 0.889,-1.352 z m 1.584,6.706 c 0.019,0.483 0.043,0.761 0.153,0.918 0.236,0.329 0.875,0.307 1.277,0.292 2.692,-0.095 2.745,-1.916 2.725,-2.444 -0.051,-1.406 -1.098,-2.381 -2.616,-2.327 -0.506,0.018 -1.037,0.169 -1.431,0.374 -0.146,0.078 -0.218,0.14 -0.206,0.462 z m 7.745,-7.262 c -0.204,-1.482 -0.678,-1.211 -1.333,-1.168 -0.117,0.016 -0.299,0.011 -0.326,-0.193 -0.028,-0.203 0.176,-0.245 0.279,-0.259 0.649,-0.087 1.31,-0.087 1.958,-0.174 0.65,-0.086 1.286,-0.26 1.936,-0.348 0.28,-0.037 0.325,0.075 0.34,0.177 0.03,0.218 -0.103,0.235 -0.248,0.27 -0.875,0.191 -1.477,0.079 -1.279,1.517 l 1.008,7.321 c 0.021,0.145 0.031,0.336 0.241,0.441 0.145,0.07 0.368,0.055 1.165,-0.052 1.475,-0.197 2.303,-0.397 2.628,-1.965 0.081,-0.395 0.167,-0.422 0.3,-0.439 0.192,-0.026 0.223,0.089 0.236,0.19 0.009,0.058 0.017,0.117 0.025,0.175 0.034,0.247 0.07,0.508 0.103,0.755 0.051,0.363 0.121,0.768 0.178,1.071 0.006,0.043 0.013,0.087 0.019,0.131 0.003,0.132 -0.071,0.142 -0.189,0.158 -1.578,0.211 -0.242,-0.012 -2.499,0.29 l -2.552,0.342 c -0.368,0.049 -0.722,0.096 -1.089,0.16 -0.293,0.054 -0.585,0.108 -0.88,0.148 -0.281,0.037 -0.326,-0.075 -0.34,-0.177 -0.026,-0.189 0.058,-0.229 0.248,-0.27 0.438,-0.088 1.178,-0.068 1.043,-1.042 z m 17.572,4.132 c 0.103,0.67 0.052,0.712 -0.144,0.849 -0.745,0.524 -1.882,1.005 -2.75,1.212 -3.445,0.819 -6.351,-1.174 -7.042,-3.996 -0.761,-3.106 1.255,-5.817 4.163,-6.509 1.433,-0.34 2.626,-0.157 3.076,-0.068 0.695,0.151 0.744,0.411 0.815,0.636 l 0.154,0.506 c 0.134,0.421 0.418,0.956 0.085,1.036 -0.13,0.03 -0.209,-0.041 -0.274,-0.117 -0.435,-0.469 -0.974,-1.23 -1.946,-1.572 -0.568,-0.197 -1.125,-0.155 -1.602,-0.042 -2.229,0.531 -3.753,2.808 -2.979,5.971 0.67,2.737 2.869,4.34 5.387,3.741 1.273,-0.303 1.931,-0.927 2.307,-2.147 0.17,-0.493 0.135,-0.636 0.324,-0.681 0.216,-0.051 0.261,0.135 0.327,0.526 z m 0.956,-8.177 c -0.571,-1.385 -0.962,-1.007 -1.586,-0.805 -0.109,0.044 -0.286,0.083 -0.365,-0.107 -0.078,-0.19 0.11,-0.28 0.205,-0.319 0.566,-0.227 1.152,-0.366 1.716,-0.592 0.566,-0.227 1.084,-0.53 1.65,-0.756 0.261,-0.105 0.334,-0.007 0.373,0.088 0.073,0.176 0.002,0.237 -0.172,0.322 -0.604,0.289 -1.158,0.273 -0.579,1.672 l 1.126,2.729 c 0.033,0.082 0.087,0.25 0.197,0.285 0.053,0.01 0.147,0.005 0.506,-0.139 0.538,-0.215 1.133,-0.565 1.431,-2.409 l 0.457,-2.826 c 0.078,-0.474 0.179,-1.164 1.02,-1.5 0.097,-0.039 0.213,-0.069 0.309,-0.108 0.17,-0.053 0.323,-0.114 0.488,-0.18 0.124,-0.049 0.249,-0.1 0.373,-0.149 0.266,-0.091 0.334,-0.007 0.373,0.088 0.022,0.054 0.075,0.223 -0.173,0.322 -0.068,0.028 -0.138,0.055 -0.206,0.083 -0.45,0.195 -0.625,0.55 -0.831,1.646 l -0.465,2.417 c -0.123,0.635 -0.396,1.726 -1.513,2.331 l 0.023,0.054 c 1.301,-0.236 2.205,0.747 2.393,0.972 l 0.766,0.88 c 0.392,0.444 0.771,0.973 1.129,0.83 0.193,-0.078 0.206,-0.241 0.219,-0.405 0.018,-0.228 0.044,-0.555 0.429,-0.71 0.346,-0.138 0.874,-0.065 1.081,0.438 0.213,0.515 -0.042,1.029 -0.565,1.239 -0.579,0.232 -1.463,0.348 -2.503,-0.77 l -0.873,-0.947 c -1.198,-1.308 -2.243,-1.27 -2.891,-1.011 l -0.303,0.122 c -0.579,0.232 -0.513,0.316 -0.407,0.574 l 0.965,2.336 c 0.572,1.385 0.961,1.007 1.585,0.805 0.111,-0.045 0.287,-0.084 0.365,0.106 0.079,0.191 -0.109,0.282 -0.205,0.32 -0.565,0.227 -1.151,0.366 -1.715,0.592 -0.566,0.227 -1.083,0.53 -1.649,0.756 -0.263,0.105 -0.335,0.007 -0.374,-0.088 -0.073,-0.176 -10e-4,-0.236 0.173,-0.322 0.603,-0.289 1.156,-0.273 0.579,-1.672 z m 11.643,-3.884 2.958,4.952 c 0.771,1.289 1.101,0.859 1.687,0.57 0.103,-0.06 0.272,-0.123 0.377,0.053 0.107,0.177 -0.065,0.294 -0.155,0.346 -0.526,0.305 -1.085,0.526 -1.61,0.831 -0.527,0.305 -0.994,0.678 -1.521,0.983 -0.243,0.142 -0.329,0.056 -0.382,-0.033 -0.098,-0.164 -0.037,-0.234 0.123,-0.343 0.554,-0.373 1.104,-0.437 0.327,-1.738 l -3.441,-5.76 c -0.77,-1.289 -1.1,-0.859 -1.688,-0.57 -0.102,0.06 -0.271,0.124 -0.376,-0.053 -0.107,-0.177 0.065,-0.294 0.155,-0.346 0.526,-0.305 1.085,-0.527 1.61,-0.831 0.527,-0.305 0.995,-0.679 1.52,-0.984 0.244,-0.141 0.33,-0.054 0.383,0.034 0.097,0.164 0.037,0.234 -0.122,0.343 -0.44,0.306 -1.105,0.436 -0.403,1.611 l 0.143,0.24 7.87,2.275 -3.101,-5.192 c -0.77,-1.289 -1.1,-0.859 -1.688,-0.57 -0.103,0.06 -0.271,0.124 -0.377,-0.053 -0.106,-0.177 0.066,-0.294 0.156,-0.346 0.527,-0.305 1.084,-0.526 1.611,-0.831 0.526,-0.305 0.994,-0.678 1.519,-0.983 0.244,-0.141 0.33,-0.055 0.383,0.033 0.098,0.164 0.036,0.234 -0.123,0.344 -0.555,0.372 -1.104,0.435 -0.326,1.736 l 3.44,5.762 c 0.77,1.288 1.101,0.859 1.688,0.569 0.102,-0.06 0.271,-0.124 0.377,0.053 0.105,0.177 -0.066,0.294 -0.157,0.346 -0.525,0.305 -1.084,0.526 -1.61,0.831 -0.525,0.305 -0.993,0.679 -1.519,0.983 -0.245,0.142 -0.331,0.056 -0.383,-0.033 -0.098,-0.164 -0.036,-0.234 0.123,-0.344 0.439,-0.305 1.082,-0.473 0.44,-1.547 l -0.03,-0.05 z"
         style="fill:#1c3585;fill-opacity:1;fill-rule:evenodd;stroke:none;stroke-width:0.363372"
         id="path865" /><path
         d="m 226.3641,238.8991 3.627,4.524 c 0.943,1.177 1.206,0.701 1.741,0.329 0.093,-0.075 0.25,-0.163 0.379,-0.001 0.13,0.162 -0.022,0.303 -0.102,0.367 -0.474,0.38 -0.992,0.68 -1.464,1.06 -0.474,0.379 -0.879,0.818 -1.353,1.198 -0.22,0.175 -0.316,0.102 -0.381,0.021 -0.12,-0.15 -0.07,-0.228 0.072,-0.361 0.491,-0.45 1.022,-0.592 0.069,-1.781 l -4.219,-5.262 c -0.943,-1.177 -1.206,-0.701 -1.742,-0.328 -0.092,0.074 -0.249,0.162 -0.378,0 -0.13,-0.162 0.022,-0.303 0.104,-0.368 0.472,-0.379 0.99,-0.68 1.462,-1.059 0.474,-0.38 0.88,-0.818 1.353,-1.198 0.219,-0.176 0.316,-0.101 0.381,-0.021 0.12,0.15 0.07,0.229 -0.07,0.36 -0.389,0.368 -1.024,0.593 -0.164,1.666 l 0.176,0.219 8.071,1.152 -3.803,-4.743 c -0.944,-1.177 -1.206,-0.701 -1.742,-0.329 -0.092,0.074 -0.249,0.162 -0.379,0.001 -0.129,-0.162 0.023,-0.303 0.103,-0.368 0.474,-0.379 0.991,-0.68 1.464,-1.059 0.474,-0.379 0.879,-0.819 1.353,-1.198 0.218,-0.176 0.316,-0.102 0.38,-0.021 0.121,0.15 0.07,0.228 -0.071,0.36 -0.491,0.451 -1.022,0.592 -0.069,1.781 l 4.219,5.262 c 0.943,1.177 1.206,0.701 1.741,0.329 0.093,-0.074 0.25,-0.162 0.379,-10e-4 0.13,0.162 -0.023,0.303 -0.104,0.368 -0.472,0.379 -0.99,0.68 -1.464,1.059 -0.472,0.379 -0.879,0.819 -1.351,1.198 -0.22,0.176 -0.317,0.102 -0.382,0.022 -0.12,-0.15 -0.069,-0.229 0.071,-0.361 0.389,-0.368 0.995,-0.627 0.209,-1.608 l -0.037,-0.046 z m 10.584,4.216 c 0.09,0.042 0.169,0.093 0.233,0.174 0.065,0.081 0.061,0.216 -0.089,0.337 -0.185,0.148 -0.501,-0.034 -0.99,-0.193 -1.025,-0.334 -1.543,-0.033 -1.773,0.152 -0.139,0.111 -0.85,0.643 -0.276,1.547 0.243,0.374 0.541,0.534 0.299,0.728 -0.346,0.277 -1.397,-0.017 -1.656,-0.34 -0.37,-0.462 -0.136,-1.54 0.845,-2.327 0.831,-0.667 2.041,-0.765 3.407,-0.078"
         style="fill:#1c3585;fill-opacity:1;fill-rule:evenodd;stroke:none;stroke-width:0.363372"
         id="path869" /><path
         d="m 92.7445,253.1804 13.809,-14.059 -0.522,-0.513 -13.811,14.062 c 0.174,0.171 0.349,0.341 0.524,0.51 m 27.006,-27.496 40.634,-41.37 -0.878,-0.149 -40.277,41.007 z m 78.789,-80.216 6.989,-7.114 0.093,-1.14 -7.661,7.8 c 0.198,0.149 0.391,0.301 0.579,0.454 m 10.329,-10.515 25.107,-25.562 -0.522,-0.512 -25.087,25.542 z m 39.383,-40.097 13.466,-13.709 c -0.173,-0.172 -0.347,-0.343 -0.52,-0.514 l -13.467,13.71 z"
         style="fill:#1c3585;fill-opacity:1;fill-rule:nonzero;stroke:none;stroke-width:0.363372"
         id="path873" /><path
         d="m 24.264,168.5319 h 26.625 c -0.003,-0.244 -0.006,-0.489 -0.009,-0.733 H 24.264 Z m 31.8,0 h 103.183 c 0.048,-0.242 0.1,-0.486 0.156,-0.733 H 56.055 c 0.002,0.244 0.005,0.489 0.009,0.733 m 155.434,0 h 51.035 v -0.733 h -51.128 c 0.035,0.241 0.066,0.486 0.093,0.733 m 109.327,-0.733 h -18.467 c -0.002,0.244 -0.005,0.489 -0.009,0.733 h 18.476 l -10e-4,0.03 -0.002,0.031 -0.002,0.031 -0.002,0.031 -0.002,0.03 -0.002,0.031 -0.002,0.03 -0.002,0.031 -0.003,0.03 -0.002,0.031 -0.002,0.03 -0.003,0.031 -0.003,0.03 -0.003,0.031 -0.004,0.03 -0.003,0.031 -0.003,0.031 -0.004,0.03 -0.003,0.031 -0.005,0.03 -0.003,0.031 -0.005,0.03 -0.003,0.031 -0.004,0.03 -0.005,0.031 -0.004,0.03 -0.005,0.031 -0.005,0.031 -0.005,0.03 -0.005,0.031 -0.005,0.03 -0.004,0.031 -0.006,0.03 -0.005,0.031 -0.006,0.03 -0.006,0.032 -0.006,0.03 -0.006,0.03 -0.005,0.031 -0.006,0.031 -0.007,0.03 -0.006,0.031 -0.007,0.03 -0.007,0.031 -0.006,0.03 -0.007,0.031 -0.007,0.03 -0.007,0.031 -0.007,0.031 -0.008,0.03 -0.007,0.031 -0.007,0.03 -0.008,0.031 -0.008,0.03 -0.008,0.031 -0.009,0.03 -0.007,0.031 -0.009,0.03 -0.008,0.031 -0.009,0.03 -0.009,0.031 -0.008,0.031 -0.009,0.03 -0.009,0.031 -0.009,0.03 -0.009,0.031 -0.009,0.03 -0.01,0.031 -0.01,0.031 -0.01,0.03 -0.009,0.031 -0.01,0.03 -0.011,0.031 -0.01,0.031 -0.009,0.03 -0.012,0.03 -0.01,0.031 -0.011,0.031 -0.01,0.03 -0.011,0.031 -0.012,0.031 -0.011,0.03 -0.011,0.031 -0.011,0.03 -0.012,0.03 -0.011,0.031 -0.012,0.031 -0.012,0.03 -0.013,0.031 -0.011,0.03 -0.012,0.031 -0.013,0.031 -0.012,0.03 -0.013,0.03 -0.013,0.031 -0.012,0.031 -0.013,0.03 -0.014,0.031 -0.013,0.03 -0.013,0.031 -0.014,0.03 -0.013,0.031 -0.013,0.03 -0.014,0.031 -0.015,0.03 -0.013,0.031 -0.014,0.031 -0.015,0.03 -0.014,0.031 -0.015,0.031 -0.014,0.03 -0.015,0.031 -0.015,0.03 -0.014,0.031 -0.016,0.03 -0.015,0.031 9.127,-3.912 -9.127,-3.911 0.015,0.03 0.016,0.031 0.014,0.03 0.015,0.031 0.015,0.031 0.014,0.03 0.015,0.031 0.014,0.031 0.015,0.03 0.014,0.03 0.013,0.031 0.015,0.031 0.014,0.03 0.013,0.03 0.013,0.031 0.014,0.03 0.013,0.031 0.013,0.03 0.014,0.032 0.013,0.03 0.012,0.03 0.013,0.032 0.013,0.03 0.012,0.03 0.013,0.031 0.012,0.03 0.011,0.031 0.013,0.031 0.012,0.03 0.012,0.031 0.011,0.03 0.012,0.031 0.011,0.03 0.011,0.031 0.011,0.03 0.012,0.031 0.011,0.031 0.01,0.03 0.011,0.031 0.01,0.03 0.012,0.031 0.009,0.03 0.01,0.031 0.011,0.03 0.01,0.031 0.009,0.03 0.01,0.031 0.01,0.03 0.01,0.031 0.009,0.031 0.009,0.03 0.009,0.031 0.009,0.03 0.009,0.031 0.008,0.031 0.009,0.03 0.009,0.031 0.008,0.03 0.009,0.03 0.007,0.032 0.009,0.03 0.008,0.03 0.008,0.031 0.008,0.031 0.007,0.03 0.007,0.031 0.008,0.031 0.007,0.03 0.007,0.031 0.007,0.03 0.007,0.03 0.006,0.031 0.007,0.031 0.007,0.03 0.006,0.031 0.007,0.03 0.006,0.031 0.005,0.03 0.006,0.031 0.006,0.03 0.006,0.031 0.006,0.031 0.005,0.03 0.006,0.031 0.004,0.03 0.005,0.031 0.005,0.03 0.005,0.031 0.005,0.03 0.005,0.031 0.004,0.03 0.005,0.031 0.004,0.031 0.003,0.03 0.005,0.031 0.003,0.031 0.005,0.03 0.003,0.031 0.004,0.03 0.003,0.03 0.003,0.031 0.004,0.031 0.003,0.03 0.003,0.031 0.003,0.031 0.002,0.03 0.002,0.031 0.003,0.03 0.002,0.03 0.002,0.031 0.002,0.031 0.002,0.03 0.002,0.031 0.002,0.031 0.002,0.03 z m -23.641,0 h -19.796 v 0.733 h 19.787 c 0.004,-0.244 0.006,-0.489 0.009,-0.733"
         style="fill:#1c3585;fill-opacity:1;fill-rule:nonzero;stroke:none;stroke-width:0.363372"
         id="path877" /><path
         d="m 174.2919,310.7092 v -18.423 c -0.245,-0.004 -0.49,-0.008 -0.733,-0.014 v 18.437 l -0.031,-0.001 -0.031,-0.002 -0.03,-0.002 -0.031,-0.002 -0.03,-0.002 -0.031,-0.002 -0.031,-0.002 -0.03,-0.002 -0.03,-0.003 -0.032,-0.002 -0.03,-0.002 -0.03,-0.003 -0.031,-0.003 -0.031,-0.003 -0.03,-0.003 -0.031,-0.004 -0.03,-0.003 -0.031,-0.003 -0.03,-0.003 -0.031,-0.004 -0.03,-0.004 -0.031,-0.004 -0.031,-0.003 -0.03,-0.005 -0.031,-0.004 -0.03,-0.005 -0.031,-0.004 -0.03,-0.004 -0.031,-0.005 -0.03,-0.005 -0.031,-0.005 -0.03,-0.005 -0.031,-0.005 -0.031,-0.005 -0.03,-0.006 -0.031,-0.005 -0.03,-0.006 -0.031,-0.006 -0.03,-0.005 -0.031,-0.006 -0.03,-0.006 -0.031,-0.007 -0.031,-0.006 -0.03,-0.006 -0.031,-0.007 -0.031,-0.007 -0.03,-0.006 -0.031,-0.007 -0.03,-0.007 -0.03,-0.007 -0.031,-0.007 -0.031,-0.008 -0.03,-0.007 -0.031,-0.008 -0.031,-0.008 -0.03,-0.007 -0.031,-0.009 -0.03,-0.007 -0.03,-0.009 -0.031,-0.008 -0.031,-0.008 -0.03,-0.009 -0.031,-0.008 -0.03,-0.009 -0.031,-0.009 -0.03,-0.009 -0.031,-0.009 -0.031,-0.009 -0.03,-0.01 -0.031,-0.009 -0.03,-0.009 -0.031,-0.01 -0.03,-0.01 -0.031,-0.01 -0.03,-0.01 -0.031,-0.01 -0.031,-0.01 -0.03,-0.01 -0.03,-0.011 -0.031,-0.01 -0.031,-0.011 -0.03,-0.011 -0.031,-0.011 -0.031,-0.011 -0.03,-0.011 -0.031,-0.011 -0.03,-0.012 -0.031,-0.011 -0.031,-0.012 -0.03,-0.012 -0.03,-0.011 -0.031,-0.013 -0.031,-0.012 -0.03,-0.012 -0.031,-0.012 -0.03,-0.013 -0.031,-0.012 -0.031,-0.013 -0.03,-0.013 -0.031,-0.012 -0.03,-0.014 -0.031,-0.013 -0.03,-0.013 -0.031,-0.013 -0.03,-0.014 -0.031,-0.013 -0.03,-0.014 -0.031,-0.014 -0.031,-0.014 -0.03,-0.014 -0.03,-0.014 -0.031,-0.014 -0.031,-0.015 -0.03,-0.014 -0.031,-0.015 -0.03,-0.014 3.911,8.843 3.911,-8.843 -0.03,0.014 -0.031,0.015 -0.03,0.014 -0.031,0.015 -0.03,0.014 -0.031,0.014 -0.03,0.014 -0.031,0.014 -0.03,0.014 -0.031,0.014 -0.031,0.013 -0.03,0.014 -0.031,0.013 -0.03,0.013 -0.031,0.013 -0.03,0.014 -0.031,0.012 -0.03,0.013 -0.031,0.013 -0.03,0.012 -0.031,0.013 -0.031,0.012 -0.03,0.012 -0.03,0.012 -0.031,0.013 -0.031,0.011 -0.03,0.012 -0.031,0.012 -0.031,0.011 -0.03,0.012 -0.031,0.011 -0.03,0.011 -0.03,0.011 -0.032,0.011 -0.03,0.011 -0.03,0.011 -0.031,0.01 -0.031,0.011 -0.03,0.01 -0.031,0.01 -0.03,0.01 -0.031,0.01 -0.031,0.01 -0.03,0.01 -0.03,0.01 -0.031,0.009 -0.031,0.009 -0.03,0.01 -0.031,0.009 -0.03,0.009 -0.031,0.009 -0.03,0.009 -0.031,0.009 -0.03,0.008 -0.031,0.009 -0.031,0.008 -0.03,0.008 -0.031,0.009 -0.03,0.007 -0.031,0.009 -0.03,0.007 -0.031,0.008 -0.03,0.008 -0.031,0.007 -0.03,0.008 -0.031,0.007 -0.031,0.007 -0.03,0.007 -0.031,0.007 -0.031,0.006 -0.03,0.007 -0.031,0.007 -0.03,0.006 -0.031,0.006 -0.03,0.007 -0.031,0.006 -0.03,0.006 -0.031,0.005 -0.031,0.006 -0.03,0.006 -0.031,0.005 -0.03,0.006 -0.031,0.005 -0.03,0.005 -0.031,0.005 -0.03,0.005 -0.031,0.005 -0.031,0.005 -0.03,0.004 -0.031,0.004 -0.03,0.005 -0.031,0.004 -0.03,0.005 -0.031,0.003 -0.03,0.004 -0.031,0.004 -0.03,0.004 -0.031,0.003 -0.03,0.003 -0.031,0.003 -0.031,0.004 -0.03,0.003 -0.031,0.003 -0.03,0.003 -0.031,0.003 -0.03,0.002 -0.031,0.002 -0.031,0.003 -0.03,0.002 -0.031,0.002 -0.03,0.002 -0.031,0.002 -0.031,0.002 -0.03,0.002 -0.031,0.002 z m 0,-23.598 v -20.202 h -0.733 v 20.188 c 0.244,0.007 0.488,0.01 0.733,0.014 m -0.733,-75.527 v 38.87 h 0.733 v -40.006 z m 0.733,-2.167 v -0.145 h -0.242 z m 0,-69.986 v -58.101 h -0.733 v 57.955 c 0.243,0.051 0.488,0.1 0.733,0.146 m -0.733,-125.012 v 26.435 c 0.244,-0.006 0.488,-0.01 0.733,-0.014 v -26.421 z m 0,31.61 v 19.843 h 0.733 v -19.857 c -0.245,0.005 -0.489,0.008 -0.733,0.014"
         style="fill:#1c3585;fill-opacity:1;fill-rule:nonzero;stroke:none;stroke-width:0.363372"
         id="path881" /><path
         d="m 327.9432,159.612 v -1.448 h -2.312 l -0.197,-3.029 c -0.041,-0.523 -0.061,-0.979 -0.061,-1.363 0,-0.925 0.109,-1.485 0.323,-1.689 0.218,-0.201 0.479,-0.303 0.785,-0.303 0.636,0 1.017,0.401 1.136,1.203 h 0.347 c -0.221,-1.849 -0.958,-2.773 -2.217,-2.773 -0.584,0 -1.054,0.179 -1.41,0.537 -0.358,0.359 -0.535,0.89 -0.535,1.597 0,0.462 0.072,1.449 0.211,2.951 l 0.269,2.869 h -2.111 c -0.139,-2.42 -0.306,-4.188 -0.499,-5.303 -0.198,-1.115 -0.413,-1.839 -0.647,-2.162 -0.234,-0.326 -0.554,-0.489 -0.955,-0.489 -0.306,0 -0.561,0.088 -0.768,0.268 -0.208,0.18 -0.313,0.414 -0.313,0.707 0,0.279 0.177,0.663 0.534,1.15 0.52,0.703 0.911,1.433 1.165,2.195 0.259,0.762 0.452,1.972 0.585,3.634 h -0.68 c -0.544,0 -0.962,-0.122 -1.251,-0.364 -0.289,-0.244 -0.564,-0.591 -0.822,-1.043 h -0.348 c 0.195,0.71 0.443,1.292 0.749,1.751 0.306,0.458 0.619,0.757 0.941,0.897 0.323,0.14 0.898,0.207 1.721,0.207 z"
         style="fill:#1c3585;fill-opacity:1;fill-rule:evenodd;stroke:none;stroke-width:0.363372"
         id="path885" /><path
         d="m 317.1688,152.4001 -0.744,-2.065 h -6.271 v 0.294 c 1.846,1.682 3.144,3.055 3.896,4.12 0.752,1.064 1.129,2.039 1.129,2.921 0,0.674 -0.206,1.228 -0.621,1.662 -0.412,0.433 -0.905,0.65 -1.48,0.65 -0.524,0 -0.992,-0.15 -1.407,-0.453 -0.417,-0.302 -0.722,-0.746 -0.923,-1.329 h -0.289 c 0.131,0.961 0.469,1.699 1.009,2.215 0.54,0.513 1.218,0.77 2.03,0.77 0.862,0 1.584,-0.278 2.162,-0.832 0.578,-0.554 0.867,-1.206 0.867,-1.961 0,-0.537 -0.126,-1.078 -0.378,-1.615 -0.384,-0.846 -1.013,-1.742 -1.88,-2.69 -1.303,-1.417 -2.106,-2.268 -2.413,-2.548 h 2.748 c 0.558,0 0.952,0.02 1.176,0.06 0.225,0.044 0.429,0.129 0.611,0.258 0.181,0.125 0.34,0.308 0.473,0.543 z"
         style="fill:#1c3585;fill-opacity:1;fill-rule:evenodd;stroke:none;stroke-width:0.363372"
         id="path889" /><path
         d="m 36.6332,161.8571 v -1.668 h -2.663 l -0.227,-3.488 c -0.047,-0.603 -0.07,-1.128 -0.07,-1.571 0,-1.064 0.125,-1.711 0.372,-1.945 0.25,-0.23 0.552,-0.349 0.904,-0.349 0.732,0 1.171,0.462 1.308,1.386 h 0.399 c -0.254,-2.13 -1.104,-3.194 -2.552,-3.194 -0.674,0 -1.214,0.207 -1.625,0.618 -0.411,0.415 -0.615,1.026 -0.615,1.841 0,0.532 0.082,1.668 0.243,3.398 l 0.309,3.304 h -2.431 c -0.161,-2.787 -0.352,-4.823 -0.576,-6.107 -0.227,-1.285 -0.473,-2.119 -0.744,-2.491 -0.27,-0.376 -0.638,-0.563 -1.1,-0.563 -0.352,0 -0.646,0.101 -0.885,0.309 -0.238,0.207 -0.36,0.478 -0.36,0.815 0,0.32 0.204,0.763 0.615,1.323 0.599,0.81 1.049,1.652 1.343,2.529 0.297,0.876 0.521,2.271 0.673,4.185 h -0.783 c -0.626,0 -1.108,-0.141 -1.441,-0.419 -0.332,-0.281 -0.65,-0.681 -0.947,-1.201 h -0.399 c 0.223,0.817 0.508,1.487 0.861,2.016 0.352,0.528 0.712,0.873 1.084,1.034 0.372,0.16 1.034,0.238 1.981,0.238 z"
         style="fill:#1c3585;fill-opacity:1;fill-rule:evenodd;stroke:none;stroke-width:0.363372"
         id="path893" /><path
         d="m 274.3133,277.9689 v -1.448 h -2.313 l -0.197,-3.029 c -0.04,-0.523 -0.06,-0.979 -0.06,-1.363 0,-0.925 0.108,-1.486 0.322,-1.69 0.218,-0.2 0.48,-0.303 0.786,-0.303 0.636,0 1.016,0.402 1.135,1.204 h 0.347 c -0.221,-1.849 -0.958,-2.774 -2.216,-2.774 -0.585,0 -1.054,0.18 -1.411,0.537 -0.357,0.36 -0.534,0.891 -0.534,1.598 0,0.462 0.072,1.448 0.21,2.951 l 0.269,2.869 h -2.11 c -0.14,-2.421 -0.307,-4.188 -0.5,-5.303 -0.198,-1.115 -0.412,-1.839 -0.647,-2.163 -0.234,-0.326 -0.554,-0.489 -0.955,-0.489 -0.306,0 -0.561,0.089 -0.768,0.269 -0.208,0.18 -0.313,0.414 -0.313,0.707 0,0.279 0.177,0.663 0.534,1.149 0.521,0.703 0.911,1.434 1.166,2.196 0.258,0.761 0.452,1.972 0.585,3.634 h -0.68 c -0.545,0 -0.963,-0.123 -1.252,-0.364 -0.288,-0.244 -0.563,-0.591 -0.822,-1.043 h -0.347 c 0.194,0.71 0.443,1.292 0.749,1.751 0.305,0.458 0.618,0.757 0.941,0.896 0.323,0.14 0.897,0.208 1.721,0.208 z"
         style="fill:#1c3585;fill-opacity:1;fill-rule:evenodd;stroke:none;stroke-width:0.363372"
         id="path897" /><path
         d="m 281.5682,261.5417 v -1.095 h -1.412 v -2.777 h -1.285 v 2.777 h -4.428 v 0.986 l 4.855,6.963 h 0.858 v -6.854 z m -2.697,0 v 5.22 l -3.671,-5.22 z"
         style="fill:#1c3585;fill-opacity:1;fill-rule:evenodd;stroke:none;stroke-width:0.363372"
         id="path901" /><path
         d="m 281.5965,276.4597 -13.873,-15.381 -0.72,0.647 13.872,15.381 z"
         style="fill:#1c3585;fill-opacity:1;fill-rule:nonzero;stroke:none;stroke-width:0.363372"
         id="path905" /><path
         d="m 74.2977,80.2351 v -1.448 h -2.312 l -0.197,-3.03 c -0.041,-0.523 -0.061,-0.979 -0.061,-1.363 0,-0.925 0.109,-1.485 0.322,-1.689 0.218,-0.201 0.48,-0.303 0.786,-0.303 0.636,0 1.016,0.401 1.135,1.203 h 0.347 c -0.221,-1.849 -0.958,-2.773 -2.217,-2.773 -0.584,0 -1.053,0.179 -1.41,0.537 -0.357,0.36 -0.534,0.89 -0.534,1.597 0,0.462 0.072,1.449 0.211,2.952 l 0.268,2.869 h -2.11 c -0.14,-2.421 -0.307,-4.189 -0.5,-5.304 -0.198,-1.115 -0.412,-1.839 -0.646,-2.162 -0.235,-0.326 -0.555,-0.489 -0.956,-0.489 -0.306,0 -0.561,0.089 -0.768,0.268 -0.207,0.18 -0.313,0.414 -0.313,0.707 0,0.279 0.177,0.663 0.534,1.15 0.52,0.703 0.911,1.434 1.166,2.195 0.258,0.762 0.452,1.972 0.585,3.635 h -0.68 c -0.544,0 -0.962,-0.123 -1.251,-0.364 -0.289,-0.245 -0.564,-0.592 -0.823,-1.043 h -0.347 c 0.194,0.709 0.442,1.291 0.749,1.75 0.305,0.459 0.618,0.758 0.941,0.897 0.323,0.14 0.897,0.208 1.72,0.208 z"
         style="fill:#1c3585;fill-opacity:1;fill-rule:evenodd;stroke:none;stroke-width:0.363372"
         id="path909" /><path
         d="m 63.9037,82.0397 -0.638,-1.388 h -3.343 l -0.733,-1.482 c 1.46,-0.215 2.608,-0.749 3.449,-1.61 0.722,-0.742 1.081,-1.61 1.081,-2.614 0,-0.582 -0.117,-1.122 -0.354,-1.615 -0.236,-0.496 -0.535,-0.92 -0.894,-1.268 -0.357,-0.348 -0.758,-0.629 -1.198,-0.841 -0.624,-0.298 -1.265,-0.449 -1.923,-0.449 -0.663,0 -1.144,0.112 -1.448,0.337 -0.301,0.223 -0.452,0.471 -0.452,0.742 0,0.15 0.061,0.284 0.187,0.401 0.126,0.117 0.285,0.173 0.474,0.173 0.139,0 0.264,-0.02 0.371,-0.065 0.105,-0.042 0.283,-0.153 0.54,-0.331 0.406,-0.282 0.821,-0.421 1.239,-0.421 0.636,0 1.196,0.243 1.678,0.724 0.479,0.482 0.721,1.07 0.721,1.764 0,0.669 -0.214,1.296 -0.643,1.875 -0.432,0.582 -1.023,1.031 -1.781,1.345 -0.59,0.245 -1.398,0.388 -2.42,0.427 l 2.123,4.296 z"
         style="fill:#1c3585;fill-opacity:1;fill-rule:evenodd;stroke:none;stroke-width:0.363372"
         id="path913" /><path
         d="m 82.2206,63.0124 v -1.095 h -1.412 v -2.776 h -1.285 v 2.776 h -4.427 v 0.987 l 4.855,6.962 h 0.857 v -6.854 z m -2.697,0 v 5.22 l -3.671,-5.22 z"
         style="fill:#1c3585;fill-opacity:1;fill-rule:evenodd;stroke:none;stroke-width:0.363372"
         id="path917" /><path
         d="m 82.5008,77.6735 -14.398,-14.891 -0.697,0.672 14.398,14.891 z"
         style="fill:#1c3585;fill-opacity:1;fill-rule:nonzero;stroke:none;stroke-width:0.363372"
         id="path921" /><path
         d="m 160.7953,36.9655 v -1.448 h -2.312 l -0.197,-3.03 c -0.041,-0.523 -0.061,-0.978 -0.061,-1.363 0,-0.924 0.109,-1.485 0.323,-1.689 0.218,-0.2 0.479,-0.303 0.785,-0.303 0.636,0 1.017,0.401 1.136,1.204 h 0.347 c -0.221,-1.85 -0.959,-2.774 -2.217,-2.774 -0.585,0 -1.054,0.18 -1.411,0.537 -0.357,0.36 -0.534,0.89 -0.534,1.597 0,0.463 0.072,1.449 0.211,2.952 l 0.268,2.869 h -2.11 c -0.14,-2.421 -0.307,-4.189 -0.5,-5.303 -0.197,-1.115 -0.412,-1.84 -0.646,-2.162 -0.235,-0.327 -0.554,-0.49 -0.955,-0.49 -0.306,0 -0.561,0.089 -0.769,0.268 -0.207,0.181 -0.312,0.415 -0.312,0.707 0,0.28 0.177,0.663 0.534,1.15 0.52,0.704 0.911,1.434 1.165,2.196 0.259,0.761 0.452,1.972 0.585,3.634 h -0.68 c -0.544,0 -0.962,-0.123 -1.251,-0.364 -0.289,-0.245 -0.564,-0.591 -0.822,-1.043 h -0.348 c 0.195,0.709 0.443,1.292 0.749,1.751 0.306,0.458 0.619,0.757 0.941,0.896 0.323,0.14 0.898,0.208 1.721,0.208 z"
         style="fill:#1c3585;fill-opacity:1;fill-rule:evenodd;stroke:none;stroke-width:0.363372"
         id="path925" /><path
         d="m 172.2142,19.4274 -0.735,-2.042 h -6.199 v 0.291 c 1.825,1.663 3.107,3.021 3.851,4.072 0.743,1.053 1.116,2.016 1.116,2.888 0,0.667 -0.204,1.214 -0.614,1.643 -0.407,0.428 -0.894,0.642 -1.462,0.642 -0.519,0 -0.981,-0.148 -1.392,-0.447 -0.412,-0.299 -0.713,-0.737 -0.912,-1.314 h -0.285 c 0.129,0.95 0.463,1.679 0.997,2.189 0.534,0.509 1.203,0.763 2.007,0.763 0.851,0 1.565,-0.276 2.136,-0.824 0.572,-0.547 0.857,-1.192 0.857,-1.938 0,-0.531 -0.124,-1.066 -0.373,-1.597 -0.38,-0.836 -1.002,-1.722 -1.859,-2.657 -1.287,-1.402 -2.081,-2.243 -2.385,-2.521 h 2.716 c 0.553,0 0.941,0.021 1.163,0.061 0.223,0.043 0.424,0.127 0.603,0.254 0.18,0.124 0.336,0.304 0.469,0.537 z"
         style="fill:#1c3585;fill-opacity:1;fill-rule:evenodd;stroke:none;stroke-width:0.363372"
         id="path929" /><path
         d="m 144.1395,36.2634 c 0.299,0.709 0.679,1.257 1.137,1.643 0.458,0.385 1.029,0.579 1.711,0.579 0.843,0 1.489,-0.273 1.938,-0.82 0.341,-0.407 0.513,-0.843 0.513,-1.309 0,-0.765 -0.481,-1.555 -1.444,-2.369 0.648,-0.254 1.137,-0.614 1.471,-1.084 0.33,-0.469 0.497,-1.021 0.497,-1.656 0,-0.91 -0.291,-1.695 -0.87,-2.362 -0.754,-0.867 -1.849,-1.301 -3.282,-1.301 -0.709,0 -1.19,0.088 -1.446,0.265 -0.257,0.175 -0.384,0.364 -0.384,0.566 0,0.151 0.061,0.28 0.183,0.394 0.121,0.113 0.267,0.172 0.438,0.172 0.13,0 0.263,-0.022 0.397,-0.064 0.088,-0.026 0.286,-0.122 0.598,-0.286 0.309,-0.163 0.526,-0.262 0.645,-0.293 0.19,-0.058 0.397,-0.088 0.614,-0.088 0.529,0 0.986,0.204 1.377,0.615 0.391,0.407 0.587,0.89 0.587,1.449 0,0.407 -0.09,0.806 -0.272,1.192 -0.135,0.291 -0.283,0.511 -0.442,0.658 -0.224,0.206 -0.528,0.395 -0.917,0.564 -0.389,0.167 -0.786,0.251 -1.19,0.251 h -0.249 v 0.238 c 0.41,0.053 0.817,0.198 1.23,0.442 0.41,0.243 0.708,0.534 0.893,0.875 0.188,0.341 0.281,0.714 0.281,1.124 0,0.531 -0.167,0.959 -0.5,1.288 -0.335,0.328 -0.751,0.492 -1.248,0.492 -0.801,0 -1.47,-0.434 -2.01,-1.299 z"
         style="fill:#1c3585;fill-opacity:1;fill-rule:evenodd;stroke:none;stroke-width:0.363372"
         id="path933" /><path
         d="m 168.3866,34.7712 -13.872,-15.381 -0.72,0.648 13.872,15.38 z"
         style="fill:#1c3585;fill-opacity:1;fill-rule:nonzero;stroke:none;stroke-width:0.363372"
         id="path937" /><path
         d="m 190.7684,317.8796 v -1.448 h -2.313 l -0.197,-3.029 c -0.04,-0.524 -0.06,-0.979 -0.06,-1.363 0,-0.925 0.108,-1.486 0.322,-1.69 0.218,-0.2 0.479,-0.303 0.786,-0.303 0.636,0 1.016,0.401 1.135,1.204 h 0.347 c -0.221,-1.85 -0.958,-2.774 -2.217,-2.774 -0.584,0 -1.054,0.18 -1.41,0.537 -0.358,0.36 -0.535,0.891 -0.535,1.598 0,0.462 0.073,1.448 0.211,2.951 l 0.269,2.869 h -2.11 c -0.14,-2.421 -0.307,-4.188 -0.5,-5.303 -0.198,-1.115 -0.412,-1.839 -0.647,-2.163 -0.234,-0.326 -0.554,-0.489 -0.955,-0.489 -0.306,0 -0.561,0.088 -0.768,0.268 -0.208,0.181 -0.313,0.415 -0.313,0.708 0,0.278 0.177,0.663 0.534,1.149 0.52,0.703 0.911,1.434 1.166,2.196 0.258,0.761 0.452,1.971 0.584,3.634 h -0.68 c -0.544,0 -0.962,-0.123 -1.251,-0.364 -0.289,-0.245 -0.564,-0.591 -0.822,-1.043 h -0.347 c 0.194,0.709 0.442,1.291 0.749,1.751 0.305,0.458 0.618,0.757 0.941,0.896 0.323,0.14 0.897,0.208 1.72,0.208 z"
         style="fill:#1c3585;fill-opacity:1;fill-rule:evenodd;stroke:none;stroke-width:0.363372"
         id="path941" /><path
         d="m 201.5087,300.3415 -0.734,-2.042 h -6.2 v 0.291 c 1.826,1.664 3.108,3.021 3.851,4.073 0.743,1.053 1.116,2.015 1.116,2.887 0,0.666 -0.204,1.214 -0.614,1.643 -0.407,0.428 -0.894,0.642 -1.462,0.642 -0.519,0 -0.981,-0.148 -1.391,-0.447 -0.413,-0.298 -0.713,-0.737 -0.913,-1.314 h -0.285 c 0.13,0.949 0.463,1.679 0.997,2.189 0.534,0.508 1.203,0.763 2.007,0.763 0.852,0 1.565,-0.276 2.137,-0.823 0.571,-0.548 0.856,-1.193 0.856,-1.939 0,-0.531 -0.124,-1.065 -0.372,-1.597 -0.381,-0.835 -1.003,-1.722 -1.859,-2.658 -1.288,-1.401 -2.081,-2.242 -2.385,-2.52 h 2.716 c 0.552,0 0.94,0.021 1.163,0.061 0.222,0.042 0.423,0.127 0.602,0.254 0.181,0.124 0.336,0.304 0.469,0.537 z"
         style="fill:#1c3585;fill-opacity:1;fill-rule:evenodd;stroke:none;stroke-width:0.363372"
         id="path945" /><path
         d="m 198.0516,315.6506 -13.872,-15.381 -0.721,0.648 13.872,15.38 z"
         style="fill:#1c3585;fill-opacity:1;fill-rule:nonzero;stroke:none;stroke-width:0.363372"
         id="path949" /><path
         d="m 283.0555,74.6901 v -1.448 h -2.312 l -0.197,-3.03 c -0.041,-0.523 -0.061,-0.979 -0.061,-1.363 0,-0.925 0.109,-1.485 0.323,-1.689 0.218,-0.201 0.479,-0.303 0.785,-0.303 0.636,0 1.017,0.401 1.136,1.203 h 0.347 c -0.221,-1.849 -0.959,-2.773 -2.217,-2.773 -0.584,0 -1.054,0.179 -1.41,0.537 -0.358,0.36 -0.535,0.89 -0.535,1.597 0,0.462 0.072,1.449 0.211,2.952 l 0.269,2.869 h -2.111 c -0.139,-2.421 -0.306,-4.189 -0.5,-5.304 -0.197,-1.115 -0.412,-1.839 -0.646,-2.162 -0.234,-0.326 -0.554,-0.489 -0.955,-0.489 -0.307,0 -0.561,0.088 -0.769,0.268 -0.207,0.18 -0.312,0.414 -0.312,0.707 0,0.279 0.177,0.663 0.533,1.15 0.521,0.703 0.911,1.434 1.166,2.195 0.259,0.762 0.452,1.972 0.585,3.635 h -0.68 c -0.544,0 -0.962,-0.123 -1.251,-0.364 -0.289,-0.245 -0.564,-0.592 -0.823,-1.044 h -0.347 c 0.195,0.71 0.443,1.292 0.749,1.751 0.306,0.459 0.619,0.757 0.941,0.897 0.323,0.14 0.897,0.208 1.721,0.208 z"
         style="fill:#1c3585;fill-opacity:1;fill-rule:evenodd;stroke:none;stroke-width:0.363372"
         id="path953" /><path
         d="m 266.7655,76.2751 h 5.772 l 0.02,-0.312 -2.896,-10.697 h -0.891 l 2.599,9.708 h -2.963 c -0.599,0 -1.02,-0.071 -1.265,-0.215 -0.43,-0.243 -0.763,-0.62 -1.002,-1.127 l -0.235,0.087 z"
         style="fill:#1c3585;fill-opacity:1;fill-rule:evenodd;stroke:none;stroke-width:0.363372"
         id="path957" /><path
         d="m 290.1844,59.5788 v -1.095 h -1.412 v -2.777 h -1.285 v 2.777 h -4.427 v 0.987 l 4.855,6.962 h 0.857 v -6.854 z m -2.697,0 v 5.22 l -3.67,-5.22 z"
         style="fill:#1c3585;fill-opacity:1;fill-rule:evenodd;stroke:none;stroke-width:0.363372"
         id="path961" /><path
         d="m 290.2127,72.6306 -13.872,-15.381 -0.72,0.648 13.872,15.38 z"
         style="fill:#1c3585;fill-opacity:1;fill-rule:nonzero;stroke:none;stroke-width:0.363372"
         id="path965" /><path
         d="m 113.201,112.2595 9.549,9.334 c -0.73,5.911 -6.071,21.693 -0.743,31.473 3.964,7.272 13.344,9.811 21.468,5.553 -1.023,-1.497 -1.895,-3.211 -2.402,-4.995 -1.26,-1.285 -2.716,-2.073 -5.013,-1.861 -6.037,0.558 -7.057,-7.932 -2.631,-19.732 l 8.697,8.501 c -1.018,2.531 -2.109,4.697 -0.959,11.096 0.923,5.143 5.652,9.914 8.347,10.855 4.462,1.555 7.32,1.4 11.138,1.393 0.473,-1.137 1.061,-2.302 1.797,-3.479 l 0.014,-0.024 0.015,-0.023 0.015,-0.025 0.007,-0.009 0.009,-0.014 0.015,-0.024 0.014,-0.024 0.016,-0.024 0.015,-0.024 v -0.001 l 0.015,-0.023 0.015,-0.024 0.016,-0.023 0.015,-0.024 0.009,-0.015 0.006,-0.009 0.016,-0.024 0.015,-0.024 0.016,-0.024 0.015,-0.024 0.004,-0.004 0.012,-0.02 0.016,-0.023 0.015,-0.025 0.016,-0.023 0.013,-0.02 0.003,-0.005 0.016,-0.023 0.015,-0.025 0.016,-0.023 0.016,-0.024 0.007,-0.01 0.01,-0.014 0.015,-0.024 0.016,-0.024 0.016,-0.023 0.016,-0.025 h 0.001 l 0.016,-0.024 0.016,-0.023 0.016,-0.025 0.016,-0.023 0.033,-0.048 0.017,-0.025 0.082,-0.119 0.017,-0.024 0.013,-0.019 0.004,-0.005 0.017,-0.024 0.017,-0.024 c 0.095,-0.136 0.193,-0.271 0.292,-0.408 0.479,-0.655 1.007,-1.311 1.589,-1.967 6.483,-7.307 18.916,-7.857 18.951,-7.858 l 0.18,-0.009 0.132,0.124 c 0.023,0.022 8.129,7.539 11.052,15.234 1.274,3.35 0.636,8.42 -0.5,13.105 1.605,-0.341 3.512,-1.046 5.475,-2.439 2.853,-2.025 8.903,-12.48 6.208,-15.932 1.627,-1.358 5.333,-2.113 8.272,-2.004 2.938,0.11 8.853,-0.721 13.169,-3.713 4.315,-2.992 6.29,-5.23 6.29,-5.23 l 5.123,-2.121 -5.752,-3.577 -1.214,4.368 -2.309,-0.086 c 0,0 -1.594,3.304 -3.545,4.912 -1.952,1.609 -9.903,0.683 -9.903,0.683 l 3.763,-5.115 -12.132,-12.852 -2.558,0.956 -0.382,4.609 5.683,-0.209 0.543,2.333 c 0,0 1.213,1.306 2.829,3.047 1.617,1.742 1.353,3.203 1.353,3.203 -3.909,2.54 -7.866,5.737 -12.776,1.625 0.627,1.582 0.555,2.897 0.173,3.791 0.342,-7.326 -11.546,-14.347 -21.335,-13.792 -5.955,0.337 -12.402,-1.211 -17.316,-4.032 -0.463,-4.74 -6.834,-8.045 -7.557,-12.602 -0.182,-1.146 -0.089,-2.258 0.291,-3.734 0.615,-2.387 4.189,-6.308 7.142,-7.835 2.115,-1.094 3.568,-2.156 4.739,-3.776 -1.041,-2.539 -6.271,-1.887 -7.769,-1.5 -0.385,3.511 -0.345,4.685 -3.683,5.764 -0.285,3.814 -2.997,7.585 -6.276,11.283 0.696,1.554 1.25,3.493 1.358,5.162 0.027,0.434 1.127,2.971 1.304,3.711 -0.103,-0.22 -1.424,-3.045 -1.529,-3.256 -3.078,-6.174 -7.209,-8.547 -10.718,-9.835 -1.242,-4.845 3.532,-11.508 7.217,-13.182 1.905,-0.865 4.325,-2.586 5.57,-4.356 0.034,-0.531 -0.349,-1.01 -1.364,-1.372 -3.94,-1.407 -6.514,-0.032 -6.514,-0.032 -0.155,3.549 -0.265,4.712 -3.572,5.612 0,0 0.617,0.372 -0.977,3.676 -1.782,3.691 -4.53,6.349 -5.793,8.822 0.876,3.04 2.509,5.978 4.483,9.415 1.974,3.436 2.557,4.719 2.471,7.027 -0.058,1.537 -0.28,2.72 -0.575,3.733 l -28.321,-27.681 z m 98.808,96.582 46.595,45.546 -4.265,-9.22 -0.893,1.626 -39.534,-38.641 c -0.592,0.14 -1.174,0.262 -1.746,0.367 -0.048,0.109 -0.1,0.216 -0.157,0.322"
         style="fill:#1c3585;fill-opacity:1;fill-rule:nonzero;stroke:none;stroke-width:0.363372"
         id="path969" /><path
         d="m 188.6962,189.1193 c 0.211,2.27 0.831,4.624 1.705,6.518 2.566,5.555 5.546,9.185 9.054,11.232 -0.41,-0.077 -0.793,-0.136 -1.136,-0.168 -3.165,-0.299 -4.707,3.085 -5.522,5.578 0.27,-0.414 0.48,-0.915 0.811,-1.23 0.78,-0.742 1.731,-1.065 2.124,-1.193 1.862,-0.606 4.87,0.256 7.598,0.906 2.749,0.656 5.818,1.243 8.003,-1.012 0.372,-0.385 0.642,-0.793 0.833,-1.231 2.025,-0.37 4.17,-0.965 6.441,-1.76 0,0 1.523,-0.16 2.642,-0.084 1.118,0.075 2.138,-0.335 2.138,-0.335 l -3.214,-3.286 c 0,0 0.879,-4.119 1.033,-5.11 0.152,-0.991 -0.142,-3.71 -0.142,-3.71 0,0 0.509,-1.468 0.986,-4.091 0.478,-2.623 0.724,-5.654 1.599,-6.792 0.876,-1.139 1.106,-1.994 0.671,-2.916 -0.436,-0.921 -0.332,-2.154 -1.074,-2.357 -0.741,-0.202 -1.591,-0.433 -1.821,0.421 -0.23,0.856 -0.681,2.111 -1.307,2.743 -0.625,0.633 -2.38,0.384 -2.38,0.384 l 0.67,-2.915 -1.139,-0.425 -1.814,4.21 c 0,0 -0.77,1.167 -2.523,2.181 -1.754,1.014 -3.97,1.214 -4.306,2.04 -0.48,1.361 -0.708,3.478 -0.708,3.478 0,0 -1.375,2.151 -2.303,0.521 -0.929,-1.63 -1.472,-3.842 -0.8,-5.495 0.673,-1.653 2.345,-3.443 3.753,-5.059 5.524,-6.343 2.275,-17.331 0.288,-19.636 -2.251,8.911 -6.675,16.548 -14.205,17.924 -1.495,5.766 -3.616,10.707 -3.627,10.733 l -0.133,0.309 -0.329,-0.056 z"
         style="fill:#1c3585;fill-opacity:1;fill-rule:evenodd;stroke:none;stroke-width:0.363372"
         id="path973" /><path
         d="m 154.0462,202.8239 c -1.242,-2.249 -4.203,-1.737 -6.238,-1.147 0.4,-0.007 0.83,-0.095 1.191,-0.018 0.85,0.183 1.499,0.67 1.763,0.874 1.252,0.968 2.047,3.368 2.855,5.484 0.814,2.134 1.82,4.45 4.32,4.881 1.478,0.255 2.581,-0.436 3.919,-1.576 -0.97,0.208 -2.152,0.257 -3.119,-0.112 -2.269,-0.867 -3.472,-6.18 -4.691,-8.386"
         style="fill:#1c3585;fill-opacity:1;fill-rule:evenodd;stroke:none;stroke-width:0.363372"
         id="path977" /><path
         d="m 156.8744,201.0856 c -0.587,-2.501 -3.576,-2.81 -5.695,-2.792 0.387,0.101 0.825,0.132 1.152,0.305 0.769,0.406 1.261,1.05 1.46,1.319 0.944,1.27 1.06,3.795 1.264,6.052 0.207,2.274 0.548,4.776 2.838,5.867 1.354,0.645 2.603,0.279 4.2,-0.457 -0.99,-0.062 -2.142,-0.334 -2.972,-0.952 -1.95,-1.448 -1.671,-6.888 -2.247,-9.342"
         style="fill:#1c3585;fill-opacity:1;fill-rule:evenodd;stroke:none;stroke-width:0.363372"
         id="path981" /><path
         d="m 165.805,195.3586 c 1.254,-0.019 4.155,-0.594 4.539,-1.937 0.271,-0.947 0.39,-3.103 0.21,-3.668 -0.441,-1.378 -3.469,-2.431 -4.757,-2.502 -0.963,-0.053 -2.205,-0.205 -2.7,0.529 -1.274,1.889 -1.448,4.054 -1.054,6.076 0.278,1.426 2.616,1.519 3.762,1.502"
         style="fill:#1c3585;fill-opacity:1;fill-rule:evenodd;stroke:none;stroke-width:0.363372"
         id="path985" /><path
         d="m 164.3714,186.7717 0.409,-1.711 7.079,1.202 c -0.281,0.906 -0.549,1.89 -0.893,3.153 -0.783,-1.197 -2.755,-2.36 -3.759,-2.646 -0.927,-0.265 -2.105,-0.686 -2.75,-0.081 z"
         style="fill:#1c3585;fill-opacity:1;fill-rule:evenodd;stroke:none;stroke-width:0.363372"
         id="path989" /><path
         d="m 171.597,192.8503 c 0,0 1.498,0.1 2.477,-0.084 0.978,-0.185 2.592,-0.831 2.592,-0.831 0,0 0.406,-1.398 0.576,-2.408 0.108,-0.646 0.37,-1.52 0.426,-2.279 l -5.049,-0.857 c -1.222,2.386 -1.023,6.482 -1.022,6.459"
         style="fill:#1c3585;fill-opacity:1;fill-rule:evenodd;stroke:none;stroke-width:0.363372"
         id="path993" /><path
         d="m 178.4393,193.2385 c 1.421,-1.5 1.967,-3.546 1.264,-5.493 -0.021,-0.055 -0.044,-0.11 -0.069,-0.164 l -1.347,-0.228 c -0.14,1.536 -0.743,3.755 -1.114,4.921 z"
         style="fill:#1c3585;fill-opacity:1;fill-rule:evenodd;stroke:none;stroke-width:0.363372"
         id="path997" /><path
         d="m 171.4462,193.6496 c 1.349,0.074 3.687,-0.322 5.192,-0.902 l 1.653,1.062 c -0.184,2.627 -3.003,5.422 -5.073,6.561 -1.452,0.8 -1.795,0.881 -2.182,1.221 -0.386,0.34 -0.579,0.933 -0.579,0.933 l 2.114,-1.099 c 0,0 1.075,1.184 1.878,2.017 0.804,0.833 2.917,1.998 2.917,1.998 l -2.94,2.659 -4.193,-1.126 4.538,2.732 -1.905,2.95 -3.021,-4.765 -2.556,-0.212 -0.331,0.571 2.051,0.135 2.673,4.313 c 0,0 -2.33,0.977 -4.151,0.877 -1.82,-0.099 -3.605,-0.415 -4.633,-1.593 -1.028,-1.177 -1.817,-2.097 -1.14,-4.746 0.678,-2.648 3.126,-6.315 3.126,-6.315 l -2.773,-5.682 c 1.057,1.117 3.638,1.387 6.119,0.784 1.754,-0.427 2.327,-1.582 3.216,-2.373"
         style="fill:#1c3585;fill-opacity:1;fill-rule:evenodd;stroke:none;stroke-width:0.363372"
         id="path1001" /><path
         d="m 81.9496,278.3381 v -1.448 h -2.312 l -0.197,-3.029 c -0.041,-0.524 -0.061,-0.98 -0.061,-1.364 0,-0.924 0.109,-1.485 0.322,-1.689 0.218,-0.2 0.48,-0.303 0.786,-0.303 0.636,0 1.016,0.401 1.136,1.204 h 0.346 c -0.221,-1.849 -0.958,-2.774 -2.216,-2.774 -0.585,0 -1.054,0.18 -1.411,0.537 -0.357,0.36 -0.534,0.891 -0.534,1.598 0,0.462 0.072,1.448 0.211,2.951 l 0.268,2.869 h -2.11 c -0.14,-2.421 -0.307,-4.188 -0.5,-5.303 -0.198,-1.115 -0.412,-1.839 -0.646,-2.163 -0.235,-0.326 -0.555,-0.489 -0.956,-0.489 -0.306,0 -0.561,0.089 -0.768,0.268 -0.207,0.181 -0.313,0.415 -0.313,0.708 0,0.279 0.178,0.663 0.534,1.149 0.521,0.703 0.911,1.434 1.166,2.196 0.258,0.761 0.452,1.971 0.585,3.634 h -0.68 c -0.544,0 -0.962,-0.123 -1.251,-0.364 -0.289,-0.245 -0.564,-0.591 -0.823,-1.043 h -0.347 c 0.194,0.709 0.443,1.291 0.749,1.751 0.306,0.458 0.618,0.757 0.941,0.896 0.323,0.14 0.897,0.208 1.72,0.208 z"
         style="fill:#1c3585;fill-opacity:1;fill-rule:evenodd;stroke:none;stroke-width:0.363372"
         id="path1025" /><path
         d="m 89.371,262.6896 v -1.095 h -1.412 v -2.777 h -1.285 v 2.777 h -4.427 v 0.987 l 4.855,6.962 h 0.857 v -6.854 z m -2.697,0 v 5.22 l -3.671,-5.22 z"
         style="fill:#1c3585;fill-opacity:1;fill-rule:evenodd;stroke:none;stroke-width:0.363372"
         id="path1029" /><path
         d="m 89.4969,276.4387 -13.873,-15.381 -0.72,0.647 13.873,15.381 z"
         style="fill:#1c3585;fill-opacity:1;fill-rule:nonzero;stroke:none;stroke-width:0.363372"
         id="path1033" /><path
         d="m 65.4046,277.1115 c 0.308,0.729 0.699,1.293 1.171,1.691 0.471,0.398 1.059,0.597 1.762,0.597 0.868,0 1.533,-0.281 1.996,-0.845 0.351,-0.419 0.528,-0.868 0.528,-1.348 0,-0.787 -0.496,-1.601 -1.487,-2.44 0.667,-0.261 1.171,-0.632 1.514,-1.116 0.341,-0.482 0.512,-1.051 0.512,-1.705 0,-0.937 -0.299,-1.746 -0.896,-2.432 -0.776,-0.893 -1.903,-1.34 -3.379,-1.34 -0.73,0 -1.226,0.09 -1.49,0.272 -0.264,0.18 -0.395,0.376 -0.395,0.583 0,0.156 0.063,0.289 0.188,0.406 0.125,0.117 0.275,0.177 0.452,0.177 0.133,0 0.27,-0.021 0.409,-0.065 0.09,-0.027 0.294,-0.125 0.615,-0.294 0.319,-0.169 0.542,-0.27 0.665,-0.303 0.196,-0.06 0.408,-0.089 0.631,-0.089 0.545,0 1.017,0.209 1.419,0.631 0.403,0.42 0.605,0.918 0.605,1.493 0,0.419 -0.093,0.83 -0.281,1.228 -0.139,0.299 -0.291,0.525 -0.455,0.678 -0.231,0.212 -0.544,0.406 -0.944,0.58 -0.401,0.172 -0.809,0.259 -1.226,0.259 h -0.256 v 0.245 c 0.422,0.054 0.842,0.204 1.267,0.454 0.421,0.251 0.729,0.551 0.92,0.902 0.193,0.351 0.289,0.735 0.289,1.157 0,0.547 -0.172,0.989 -0.515,1.327 -0.346,0.337 -0.774,0.506 -1.286,0.506 -0.825,0 -1.514,-0.446 -2.069,-1.337 z"
         style="fill:#1c3585;fill-opacity:1;fill-rule:evenodd;stroke:none;stroke-width:0.363372"
         id="path1037" /></g></g><g
     inkscape:groupmode="layer"
     id="layer1"
     inkscape:label="colorful"
     style="display:inline"><g
       id="g1280"
       transform="matrix(3.6564289,-0.30739454,-0.30739454,-3.6564289,-328.16631,1369.2283)"
       style="stroke-width:0.363372;opacity:0.27"><path
         d="m 176.62,292.3102 c 34.723,0 66.16,-14.075 88.915,-36.831 22.756,-22.756 36.831,-54.193 36.831,-88.916 0,-34.723 -14.075,-66.16 -36.831,-88.916 -22.755,-22.756 -54.192,-36.83 -88.915,-36.83 -34.724,0 -66.161,14.074 -88.916,36.83 -22.756,22.756 -36.832,54.193 -36.832,88.916 0,34.723 14.076,66.16 36.831,88.916 22.756,22.756 54.193,36.831 88.917,36.831 m 85.258,-40.489 c -21.82,21.819 -51.963,35.315 -85.258,35.315 -33.296,0 -63.44,-13.496 -85.259,-35.315 -21.819,-21.819 -35.314,-51.963 -35.314,-85.258 0,-33.296 13.496,-63.44 35.315,-85.258 21.819,-21.819 51.962,-35.314 85.258,-35.314 33.295,0 63.438,13.495 85.258,35.314 21.818,21.819 35.314,51.962 35.314,85.258 0,33.295 -13.496,63.439 -35.314,85.258"
         style="fill:#fff394;fill-opacity:1;fill-rule:nonzero;stroke:none;stroke-width:0.363372"
         id="path1005" /><path
         d="m 159.3358,183.4685 31.116,5.281 c 0,0 7.151,-16.649 4.301,-24.147 -2.849,-7.498 -10.798,-14.87 -10.798,-14.87 0,0 -12.124,0.536 -18.401,7.61 -6.278,7.074 -6.087,14.275 -6.309,18.039 -0.223,3.764 0.091,8.087 0.091,8.087"
         style="fill:#ffffff;fill-opacity:1;fill-rule:evenodd;stroke:none;stroke-width:0.363372"
         id="path1009" /><path
         d="m 162.3163,180.9465 26.138,4.436 c 0,0 6.007,-13.985 3.613,-20.284 -2.394,-6.298 -9.07,-12.491 -9.07,-12.491 0,0 -10.185,0.451 -15.458,6.393 -5.273,5.943 -5.113,11.991 -5.3,15.153 -0.187,3.162 0.077,6.793 0.077,6.793"
         style="fill:#1f3685;fill-opacity:1;fill-rule:evenodd;stroke:none;stroke-width:0.363372"
         id="path1013" /><path
         d="m 171.474,168.698 c 0.985,-4.062 2.368,-8.809 8.418,-7.553 3.078,0.639 4.892,2.566 5.984,5.892 l 1.729,-0.455 c -0.868,-1.976 -1.844,-3.495 -2.926,-4.567 -1.083,-1.07 -2.589,-1.809 -4.515,-2.209 -2.874,-0.596 -5.39,-0.111 -7.563,1.459 -2.167,1.572 -3.56,3.834 -4.176,6.8 -0.621,2.991 -0.238,5.628 1.139,7.923 1.378,2.294 3.494,3.734 6.337,4.325 2.588,0.537 4.984,0.136 7.178,-1.197 2.196,-1.34 3.718,-3.691 4.554,-7.064 z m 13.011,4.135 c -0.948,3.132 -2.555,7.323 -8.344,6.135 -5.88,-1.207 -5.389,-5.465 -4.953,-8.895 z"
         style="fill:#fff394;fill-opacity:1;fill-rule:evenodd;stroke:none;stroke-width:0.363372"
         id="path1017" /><path
         d="m 159.0204,184.0832 31.542,5.353 0.329,0.056 0.132,-0.309 c 0.021,-0.049 7.315,-17.034 4.367,-24.794 -2.924,-7.695 -11.029,-15.212 -11.053,-15.233 l -0.131,-0.124 -0.18,0.009 c -0.035,0.001 -12.468,0.55 -18.952,7.857 -5.943,6.698 -6.262,13.487 -6.451,17.547 -0.016,0.344 -0.031,0.665 -0.051,0.995 -0.227,3.847 0.092,8.242 0.093,8.255 l 0.025,0.332 z m 0.315,-0.615 31.117,5.281 c 0,0 7.15,-16.648 4.3,-24.147 -2.848,-7.497 -10.797,-14.87 -10.797,-14.87 0,0 -12.124,0.536 -18.402,7.61 -6.277,7.074 -6.086,14.276 -6.308,18.039 -0.224,3.765 0.09,8.087 0.09,8.087"
         style="fill:#1f3685;fill-opacity:1;fill-rule:evenodd;stroke:none;stroke-width:0.363372"
         id="path1021" /></g></g></svg>
