<?xml version="1.0" encoding="UTF-8" standalone="no"?>
<svg
   xmlns:dc="http://purl.org/dc/elements/1.1/"
   xmlns:cc="http://creativecommons.org/ns#"
   xmlns:rdf="http://www.w3.org/1999/02/22-rdf-syntax-ns#"
   xmlns:svg="http://www.w3.org/2000/svg"
   xmlns="http://www.w3.org/2000/svg"
   xmlns:sodipodi="http://sodipodi.sourceforge.net/DTD/sodipodi-0.dtd"
   xmlns:inkscape="http://www.inkscape.org/namespaces/inkscape"
   width="4.1999998cm"
   height="1.65cm"
   viewBox="0 0 119.05512 46.771654"
   version="1.2"
   id="svg5521"
   sodipodi:docname="fpg.svg"
   inkscape:version="0.92.1 r15371">
  <metadata
     id="metadata5527">
    <rdf:RDF>
      <cc:Work
         rdf:about="">
        <dc:format>image/svg+xml</dc:format>
        <dc:type
           rdf:resource="http://purl.org/dc/dcmitype/StillImage" />
        <dc:title></dc:title>
      </cc:Work>
    </rdf:RDF>
  </metadata>
  <defs
     id="defs5525" />
  <sodipodi:namedview
     pagecolor="#070939"
     bordercolor="#666666"
     borderopacity="1"
     objecttolerance="10"
     gridtolerance="10"
     guidetolerance="10"
     inkscape:pageopacity="0"
     inkscape:pageshadow="2"
     inkscape:window-width="1920"
     inkscape:window-height="1027"
     id="namedview5523"
     showgrid="false"
     inkscape:zoom="4.8137654"
     inkscape:cx="73.22819"
     inkscape:cy="24.506622"
     inkscape:window-x="-8"
     inkscape:window-y="-8"
     inkscape:window-maximized="1"
     inkscape:current-layer="svg5521"
     units="cm"
     borderlayer="true"
     inkscape:showpageshadow="false" />
  <path
     inkscape:connector-curvature="0"
     id="path5468"
     d="M 38.063185,10.561402 H 22.448529 c -1.582072,0 -2.991313,0.987135 -3.533074,2.476143 l -6.049099,16.618408 c -0.545084,1.482361 -1.954325,2.469494 -3.533073,2.469494 h 15.614655 c 1.582072,0 2.994637,-0.990457 3.533074,-2.476141 l 6.052423,-16.621731 c 0.54176,-1.482363 1.951001,-2.466173 3.52975,-2.466173"
     style="fill:#e7f1fd;fill-opacity:0.90196079;fill-rule:nonzero;stroke:none;stroke-width:1" />
  <path
     inkscape:connector-curvature="0"
     id="path5470"
     d="m 17.811993,12.63538 c 0.704621,-1.944354 2.569206,-3.2505601 4.636536,-3.2505601 h 1.558807 L 24.908054,6.912001 C 25.350103,5.7021809 26.50342,4.8978497 27.789685,4.8978497 H 15.040043 c -1.292911,0 -2.446229,0.8076548 -2.888278,2.0207983 L 7.2127736,20.492563 c -0.445373,1.20982 -1.5953675,2.017475 -2.8849554,2.017475 h 9.8879528 z m 0,0"
     style="opacity:1;fill:#e7f1fd;fill-opacity:0.63921571;fill-rule:nonzero;stroke:none;stroke-width:1" />
  <g
     id="g4660"
     style="fill:#e7f1fd;fill-opacity:1;stroke-width:0.92943662"
     transform="matrix(1.0759206,0,0,1.0759206,-5.9500734,-0.52004284)">
    <path
       style="fill:#e7f1fd;fill-opacity:1;fill-rule:nonzero;stroke:none;stroke-width:0.92943662"
       d="m 45.318839,20.027239 c 0.308919,0 0.543691,-0.08341 0.704331,-0.250222 0.163724,-0.166814 0.24404,-0.392322 0.24404,-0.676523 0,-0.290381 -0.08341,-0.5128 -0.253309,-0.670347 -0.1699,-0.157546 -0.401588,-0.234775 -0.695062,-0.234775 h -0.398495 v 1.831867 z m -1.893648,-1.841134 c -0.308915,0 -0.54369,0.08341 -0.707415,0.250221 -0.160636,0.166814 -0.244043,0.392322 -0.244043,0.679613 0,0.287291 0.0865,0.512799 0.256399,0.670346 0.166815,0.154458 0.398501,0.234775 0.695059,0.234775 h 0.398501 v -1.834955 z m 1.495153,-0.94837 h 0.432477 c 0.296558,0 0.568404,0.04016 0.815536,0.120477 0.247132,0.08341 0.460282,0.200795 0.639459,0.361431 0.179169,0.160636 0.31818,0.355252 0.417032,0.583849 0.09885,0.231687 0.14828,0.494264 0.14828,0.787734 0,0.299647 -0.0556,0.568404 -0.163724,0.80009 -0.108122,0.234776 -0.253309,0.432481 -0.438662,0.593117 -0.182261,0.160636 -0.398503,0.284202 -0.642543,0.367609 -0.247132,0.08341 -0.503533,0.126655 -0.775378,0.126655 h -0.432477 v 0.639454 h -1.096652 v -0.639454 h -0.435571 c -0.293468,0 -0.565314,-0.04016 -0.815535,-0.123566 -0.247133,-0.08032 -0.460284,-0.200795 -0.636365,-0.358341 -0.176082,-0.160636 -0.312004,-0.355253 -0.410857,-0.586939 -0.09885,-0.231687 -0.148279,-0.494264 -0.148279,-0.787734 0,-0.299647 0.0556,-0.565314 0.163724,-0.80009 0.108121,-0.231686 0.25331,-0.429392 0.435571,-0.593117 0.185349,-0.160635 0.3985,-0.284201 0.642543,-0.367609 0.244043,-0.08341 0.500443,-0.123566 0.769198,-0.123566 h 0.435571 v -0.6549 h 1.096652 z m 0,0"
       id="path5472"
       inkscape:connector-curvature="0" />
    <path
       style="fill:#e7f1fd;fill-opacity:1;fill-rule:nonzero;stroke:none;stroke-width:0.92943662"
       d="m 50.267665,17.69493 c -0.188445,0.08341 -0.349077,0.194616 -0.478819,0.336717 -0.12975,0.14519 -0.228603,0.308915 -0.296559,0.503532 -0.06793,0.188438 -0.101945,0.395411 -0.101945,0.61783 0,0.21933 0.03401,0.426302 0.101945,0.620919 0.06793,0.194617 0.169901,0.361431 0.302735,0.503532 0.132835,0.1421 0.290382,0.2564 0.47882,0.336717 0.185345,0.08032 0.395411,0.120477 0.633275,0.120477 0.240955,0 0.454106,-0.04016 0.642543,-0.123566 0.188437,-0.08341 0.349077,-0.197705 0.478819,-0.342896 0.129743,-0.14519 0.228596,-0.312004 0.293467,-0.506621 0.06793,-0.188438 0.101945,-0.392322 0.101945,-0.608562 0,-0.228598 -0.03709,-0.43866 -0.105029,-0.630187 -0.06793,-0.194617 -0.166817,-0.36143 -0.296559,-0.503532 -0.12975,-0.14519 -0.290382,-0.25331 -0.478819,-0.333628 -0.188438,-0.07723 -0.401596,-0.117387 -0.636367,-0.117387 -0.237864,0 -0.44793,0.04325 -0.639452,0.126655 m 1.705212,-0.917478 c 0.324356,0.129744 0.602377,0.308915 0.827888,0.540601 0.228595,0.231686 0.407772,0.503532 0.534422,0.812447 0.129743,0.312004 0.19153,0.651811 0.19153,1.022509 0,0.352163 -0.06176,0.685791 -0.19153,0.997796 -0.12665,0.312004 -0.305827,0.583849 -0.537514,0.815536 -0.228595,0.234775 -0.506617,0.417035 -0.827888,0.552957 -0.321272,0.132834 -0.676526,0.200796 -1.062668,0.200796 -0.383059,0 -0.73522,-0.06487 -1.0534,-0.194617 -0.318188,-0.129745 -0.596209,-0.308915 -0.827896,-0.540602 -0.234772,-0.231686 -0.413941,-0.503531 -0.540599,-0.815536 -0.129742,-0.315093 -0.194614,-0.6549 -0.194614,-1.01633 0,-0.355253 0.06485,-0.688881 0.194614,-1.003974 0.126658,-0.312005 0.305827,-0.586939 0.540599,-0.815536 0.231687,-0.231686 0.509708,-0.413947 0.827896,-0.549869 0.31818,-0.135923 0.670341,-0.200795 1.0534,-0.200795 0.386142,0 0.741396,0.06487 1.06576,0.194617"
       id="path5474"
       inkscape:connector-curvature="0" />
    <path
       style="fill:#e7f1fd;fill-opacity:1;fill-rule:nonzero;stroke:none;stroke-width:0.92943662"
       d="m 55.744729,18.615496 h 2.159318 v -1.930719 h 1.112094 v 4.933374 h -1.112094 v -1.980146 h -2.159318 v 1.980146 h -1.112094 v -4.933374 h 1.112094 z m 0,0"
       id="path5476"
       inkscape:connector-curvature="0" />
    <path
       style="fill:#e7f1fd;fill-opacity:1;fill-rule:nonzero;stroke:none;stroke-width:0.92943662"
       d="m 62.142358,19.461924 c -0.08032,0.494264 -0.194613,0.883497 -0.336716,1.161521 h 2.00177 v -2.953229 h -1.532219 c -0.0032,0.698148 -0.04943,1.294355 -0.132835,1.791708 m 2.770972,1.161521 h 0.713591 v 0.302736 l -0.09576,1.723747 h -0.994712 l -0.04326,-1.031777 h -3.336284 l -0.05868,1.031777 h -1.000889 l -0.05868,-1.717568 v -0.299647 h 0.20389 c 0.105029,0 0.206974,-0.03707 0.308911,-0.11121 0.10503,-0.07414 0.19153,-0.188439 0.259493,-0.345985 0.132834,-0.296558 0.228595,-0.676524 0.28729,-1.142986 0.05868,-0.466462 0.08649,-0.979261 0.08649,-1.544576 v -0.803179 h 3.728611 z m 0,0"
       id="path5478"
       inkscape:connector-curvature="0" />
    <path
       style="fill:#e7f1fd;fill-opacity:1;fill-rule:nonzero;stroke:none;stroke-width:0.92943662"
       d="M 45.942854,30.459302 H 44.830759 V 26.548436 H 42.7394 v 3.910866 h -1.112094 v -4.933374 h 4.315548 z m 0,0"
       id="path5480"
       inkscape:connector-curvature="0" />
    <path
       style="fill:#e7f1fd;fill-opacity:1;fill-rule:nonzero;stroke:none;stroke-width:0.92943662"
       d="m 49.411963,28.133172 c 0.296559,0 0.525162,-0.07414 0.69197,-0.222419 0.166816,-0.145191 0.250225,-0.345985 0.250225,-0.596207 0,-0.244042 -0.0741,-0.438659 -0.222419,-0.583849 -0.151372,-0.145191 -0.373791,-0.21933 -0.673433,-0.21933 h -1.047224 v 1.621805 z m 0.892768,-2.4775 c 0.240956,0.08341 0.44793,0.203884 0.620922,0.358341 0.176077,0.154458 0.308912,0.342896 0.401588,0.559137 0.09268,0.21933 0.139011,0.463373 0.139011,0.735218 0,0.284202 -0.05251,0.537512 -0.157548,0.759931 -0.105029,0.225508 -0.250216,0.413946 -0.435569,0.568404 -0.182261,0.154458 -0.398504,0.271845 -0.651812,0.352163 -0.247132,0.08341 -0.518977,0.123566 -0.80936,0.123566 h -1.000881 v 1.34687 h -1.102826 v -4.933374 h 2.1933 c 0.293466,0 0.562219,0.04325 0.803175,0.129744"
       id="path5482"
       inkscape:connector-curvature="0" />
    <path
       style="fill:#e7f1fd;fill-opacity:1;fill-rule:nonzero;stroke:none;stroke-width:0.92943662"
       d="M 56.192651,26.520634 H 53.59468 v 0.926746 h 2.31995 v 0.963815 h -2.31995 v 1.0534 h 2.724629 v 0.994707 h -3.815102 v -4.933374 h 3.688444 z m 0,0"
       id="path5484"
       inkscape:connector-curvature="0" />
    <path
       style="fill:#e7f1fd;fill-opacity:1;fill-rule:nonzero;stroke:none;stroke-width:0.92943662"
       d="m 60.020114,27.320725 c 0.09885,-0.08032 0.14828,-0.197706 0.14828,-0.342896 0,-0.188438 -0.06485,-0.32745 -0.194622,-0.423214 -0.129742,-0.09576 -0.342893,-0.14519 -0.636359,-0.14519 -0.463375,0 -0.892768,0.154458 -1.297447,0.463373 l -0.574581,-0.759932 c 0.27493,-0.234775 0.571489,-0.407768 0.889676,-0.522066 0.315095,-0.111209 0.664165,-0.169904 1.047223,-0.169904 0.296559,0 0.559136,0.03707 0.787731,0.105032 0.231687,0.06796 0.426301,0.163725 0.590025,0.287291 0.16064,0.123566 0.287298,0.268756 0.370698,0.438659 0.0865,0.169903 0.12975,0.355252 0.12975,0.562226 0,0.210062 -0.04326,0.401589 -0.12975,0.571493 -0.0834,0.169903 -0.213151,0.302737 -0.386143,0.40159 v 0.06487 c 0.234779,0.08032 0.420125,0.213151 0.552959,0.401589 0.132835,0.188439 0.197706,0.420125 0.197706,0.69506 0,0.231685 -0.04326,0.444837 -0.135919,0.642543 -0.08958,0.194616 -0.225511,0.36452 -0.40468,0.506621 -0.179169,0.1421 -0.401587,0.256399 -0.670349,0.339806 -0.268753,0.08341 -0.580756,0.123566 -0.939102,0.123566 -0.216242,0 -0.420124,-0.01236 -0.608561,-0.04016 -0.19153,-0.02781 -0.373791,-0.06796 -0.546783,-0.129745 -0.1699,-0.05869 -0.336717,-0.132832 -0.494264,-0.222418 -0.15754,-0.09267 -0.312003,-0.203884 -0.463367,-0.336718 l 0.583849,-0.809357 c 0.253308,0.200795 0.506616,0.342895 0.759933,0.426303 0.253308,0.08341 0.534422,0.126655 0.843333,0.126655 0.324364,0 0.56532,-0.06179 0.725952,-0.179171 0.157547,-0.120477 0.237863,-0.281113 0.237863,-0.475729 0,-0.345985 -0.222419,-0.515888 -0.670341,-0.515888 H 58.487896 V 27.44738 h 1.127539 c 0.172992,0 0.308911,-0.04016 0.404679,-0.126655"
       id="path5486"
       inkscape:connector-curvature="0" />
    <path
       style="fill:#e7f1fd;fill-opacity:1;fill-rule:nonzero;stroke:none;stroke-width:0.92943662"
       d="m 63.708559,28.809695 2.384821,-3.283767 h 0.973083 v 4.933374 H 65.96673 v -3.101508 l -2.267439,3.101508 h -1.081205 v -4.933374 h 1.090473 z m 0,0"
       id="path5488"
       inkscape:connector-curvature="0" />
    <path
       style="fill:#e7f1fd;fill-opacity:1;fill-rule:nonzero;stroke:none;stroke-width:0.92943662"
       d="m 70.195773,28.303074 c -0.08341,0.494264 -0.197706,0.883498 -0.339801,1.161521 h 2.00177 v -2.953228 h -1.529135 c -0.0063,0.698148 -0.05251,1.294354 -0.132834,1.791707 m 2.767879,1.161521 h 0.713599 v 0.302737 l -0.09577,1.723746 h -0.994704 l -0.04326,-1.031776 h -3.336284 l -0.05868,1.031776 h -1.000881 l -0.05868,-1.717568 v -0.299647 h 0.206974 c 0.101945,0 0.203882,-0.03707 0.308911,-0.11121 0.101945,-0.07414 0.188446,-0.188438 0.256401,-0.345985 0.132834,-0.296558 0.228603,-0.676524 0.28729,-1.142985 0.05868,-0.466462 0.08959,-0.979262 0.08959,-1.544576 v -0.803179 h 3.725511 z m 0,0"
       id="path5490"
       inkscape:connector-curvature="0" />
    <path
       style="fill:#e7f1fd;fill-opacity:1;fill-rule:nonzero;stroke:none;stroke-width:0.92943662"
       d="m 78.409826,26.520634 h -2.597971 v 0.926746 h 2.31995 v 0.963815 h -2.31995 v 1.0534 h 2.72463 v 0.994707 h -3.815103 v -4.933374 h 3.688444 z m 0,0"
       id="path5492"
       inkscape:connector-curvature="0" />
    <path
       style="fill:#e7f1fd;fill-opacity:1;fill-rule:nonzero;stroke:none;stroke-width:0.92943662"
       d="m 80.825545,27.453558 h 2.156225 v -1.92763 h 1.112095 v 4.933374 H 82.98177 v -1.980146 h -2.156225 v 1.980146 H 79.71345 v -4.933374 h 1.112095 z m 0,0"
       id="path5494"
       inkscape:connector-curvature="0" />
    <path
       style="fill:#e7f1fd;fill-opacity:1;fill-rule:nonzero;stroke:none;stroke-width:0.92943662"
       d="m 89.583289,26.526813 h -1.686674 v 3.932489 h -1.09665 v -3.932489 h -1.686682 v -1.000885 h 4.470006 z m 0,0"
       id="path5496"
       inkscape:connector-curvature="0" />
    <path
       style="fill:#e7f1fd;fill-opacity:1;fill-rule:nonzero;stroke:none;stroke-width:0.92943662"
       d="m 93.732016,26.554615 c -0.222419,-0.08341 -0.472635,-0.123566 -0.747572,-0.123566 -0.240956,0 -0.457199,0.03707 -0.651812,0.114298 -0.194614,0.07723 -0.36143,0.18535 -0.497357,0.324361 -0.135918,0.139013 -0.240947,0.305826 -0.318179,0.497354 -0.07102,0.191527 -0.108121,0.3985 -0.108121,0.624008 0,0.237865 0.03709,0.451017 0.114297,0.642544 0.0741,0.191527 0.182261,0.355252 0.318188,0.491175 0.139011,0.132834 0.302735,0.237864 0.494264,0.315093 0.191521,0.07414 0.401588,0.114299 0.633275,0.114299 0.281114,0 0.540598,-0.04943 0.784646,-0.14519 0.24404,-0.09576 0.460283,-0.231687 0.651804,-0.417036 l 0.627099,0.775377 c -0.559135,0.531334 -1.26655,0.793912 -2.122244,0.793912 -0.383059,0 -0.73522,-0.0587 -1.0534,-0.17917 -0.318187,-0.120477 -0.593117,-0.29347 -0.818628,-0.515889 -0.228595,-0.222419 -0.407764,-0.491175 -0.534422,-0.806268 -0.129742,-0.315094 -0.191529,-0.664168 -0.191529,-1.053401 0,-0.352163 0.06176,-0.685791 0.185353,-1.000885 0.12665,-0.315093 0.308911,-0.590027 0.543691,-0.824803 0.234771,-0.234775 0.518977,-0.420125 0.852601,-0.556047 0.333633,-0.135923 0.710507,-0.200796 1.133724,-0.200796 0.383051,0 0.735212,0.0556 1.053399,0.169904 0.31818,0.117388 0.602386,0.284202 0.852602,0.506621 l -0.608562,0.803179 c -0.172992,-0.151368 -0.370698,-0.268756 -0.593117,-0.349074"
       id="path5498"
       inkscape:connector-curvature="0" />
    <path
       style="fill:#e7f1fd;fill-opacity:1;fill-rule:nonzero;stroke:none;stroke-width:0.92943662"
       d="m 97.142439,27.404132 0.537514,-0.0587 1.393209,-1.81951 h 1.362308 l -1.831859,2.304507 2.007949,2.628867 H 99.190551 L 97.689222,28.3525 h -0.546783 v 2.106801 h -1.090465 v -4.933374 h 1.090465 z m 0,0"
       id="path5500"
       inkscape:connector-curvature="0" />
    <path
       style="fill:#e7f1fd;fill-opacity:1;fill-rule:nonzero;stroke:none;stroke-width:0.92943662"
       d="m 102.706,28.809695 2.38482,-3.283767 h 0.97309 v 4.933374 h -1.09665 v -3.101508 l -2.26743,3.101508 h -1.0843 v -4.933374 h 1.09047 z m 0,0"
       id="path5502"
       inkscape:connector-curvature="0" />
    <path
       style="fill:#e7f1fd;fill-opacity:1;fill-rule:nonzero;stroke:none;stroke-width:0.92943662"
       d="m 109.59172,27.286744 h 0.0773 l 0.97617,-1.760816 h 1.3654 l -1.57855,2.431161 1.72993,2.502213 h -1.42719 l -1.10283,-1.899828 h -0.0741 l -1.09047,1.899828 h -1.42108 l 1.72992,-2.563996 -1.57546,-2.369378 h 1.37776 z m 0,0"
       id="path5504"
       inkscape:connector-curvature="0" />
    <path
       style="fill:#e7f1fd;fill-opacity:1;fill-rule:nonzero;stroke:none;stroke-width:0.92943662"
       d="m 45.362089,35.367963 h -2.628868 v 3.932489 h -1.105915 v -4.933374 h 3.734783 z m 0,0"
       id="path5506"
       inkscape:connector-curvature="0" />
    <path
       style="fill:#e7f1fd;fill-opacity:1;fill-rule:nonzero;stroke:none;stroke-width:0.92943662"
       d="m 48.463601,36.974322 c 0.293466,0 0.525154,-0.07414 0.69197,-0.222419 0.166808,-0.148279 0.250216,-0.345985 0.250216,-0.596206 0,-0.244043 -0.0741,-0.441749 -0.222419,-0.583849 -0.151363,-0.145191 -0.376874,-0.21933 -0.676525,-0.21933 h -1.044131 v 1.621804 z m 0.889675,-2.480589 c 0.240948,0.0865 0.451015,0.206974 0.624007,0.361432 0.172993,0.154457 0.308911,0.342895 0.401588,0.562225 0.09268,0.216241 0.139011,0.460283 0.139011,0.732128 0,0.284202 -0.05251,0.537513 -0.157548,0.759932 -0.105029,0.225508 -0.250216,0.413946 -0.435569,0.568404 -0.182261,0.154457 -0.401588,0.271845 -0.651812,0.352162 -0.250217,0.08341 -0.518978,0.123567 -0.809352,0.123567 h -1.000889 v 1.346869 h -1.105918 v -4.933374 h 2.196391 c 0.293467,0 0.56222,0.04325 0.800091,0.126655"
       id="path5508"
       inkscape:connector-curvature="0" />
    <path
       style="fill:#e7f1fd;fill-opacity:1;fill-rule:nonzero;stroke:none;stroke-width:0.92943662"
       d="m 54.187797,37.348109 -0.654904,-1.878204 h -0.0741 l -0.664165,1.878204 z m 1.95852,1.952343 h -1.223308 l -0.373782,-0.97926 h -2.112984 l -0.370698,0.97926 H 50.866959 L 52.89035,34.3609 h 1.217123 z m 0,0"
       id="path5510"
       inkscape:connector-curvature="0" />
    <path
       style="fill:#e7f1fd;fill-opacity:1;fill-rule:nonzero;stroke:none;stroke-width:0.92943662"
       d="m 58.262385,36.294709 h 2.159317 v -1.927631 h 1.109002 v 4.933374 h -1.109002 v -1.980145 h -2.159317 v 1.980145 H 57.15029 v -4.933374 h 1.112095 z m 0,0"
       id="path5512"
       inkscape:connector-curvature="0" />
    <path
       style="fill:#e7f1fd;fill-opacity:1;fill-rule:nonzero;stroke:none;stroke-width:0.92943662"
       d="m 67.020129,35.367963 h -1.686674 v 3.932489 h -1.09665 V 35.367963 H 62.55013 v -1.000885 h 4.469999 z m 0,0"
       id="path5514"
       inkscape:connector-curvature="0" />
    <path
       style="fill:#e7f1fd;fill-opacity:1;fill-rule:nonzero;stroke:none;stroke-width:0.92943662"
       d="m 69.726222,35.374142 c -0.188438,0.0865 -0.34907,0.197706 -0.47882,0.339806 -0.129742,0.142101 -0.228595,0.308915 -0.296558,0.500443 -0.07102,0.191527 -0.10503,0.3985 -0.10503,0.61783 0,0.222419 0.03401,0.429392 0.10503,0.624008 0.06793,0.191528 0.166816,0.361431 0.29965,0.503532 0.132835,0.142101 0.293467,0.25331 0.47882,0.336718 0.185345,0.07723 0.398503,0.120477 0.633275,0.120477 0.240955,0 0.457198,-0.04325 0.645635,-0.123566 0.188437,-0.0865 0.349069,-0.197706 0.47882,-0.345985 0.129742,-0.142102 0.228595,-0.312004 0.293466,-0.503532 0.06793,-0.191527 0.09885,-0.395412 0.09885,-0.611652 0,-0.225508 -0.03401,-0.435571 -0.101945,-0.627098 -0.06793,-0.194616 -0.166808,-0.36452 -0.299643,-0.50662 -0.12975,-0.142102 -0.28729,-0.253311 -0.478819,-0.33054 -0.188437,-0.07723 -0.398504,-0.117387 -0.636367,-0.117387 -0.234772,0 -0.44793,0.04325 -0.636367,0.123566 m 1.705211,-0.914389 c 0.324364,0.129744 0.599301,0.308915 0.827896,0.540601 0.228596,0.228598 0.407764,0.500443 0.534423,0.812447 0.126658,0.312004 0.191529,0.651811 0.191529,1.01942 0,0.355252 -0.06485,0.685791 -0.191529,0.997795 -0.126659,0.312005 -0.308919,0.583851 -0.537515,0.818626 -0.231687,0.231686 -0.506617,0.417035 -0.83098,0.552958 -0.321272,0.132833 -0.673433,0.200795 -1.062668,0.200795 -0.383051,0 -0.732128,-0.06487 -1.0534,-0.194617 -0.31818,-0.129744 -0.593117,-0.312004 -0.827896,-0.540601 -0.23168,-0.231687 -0.413941,-0.503532 -0.540599,-0.818625 -0.126658,-0.312004 -0.191529,-0.651811 -0.191529,-1.016331 0,-0.352163 0.06485,-0.685792 0.191529,-1.000885 0.126658,-0.315094 0.308919,-0.586939 0.540599,-0.818625 0.234779,-0.228597 0.509716,-0.410857 0.827896,-0.54678 0.321272,-0.135923 0.670349,-0.203884 1.0534,-0.203884 0.389235,0 0.744488,0.06487 1.068844,0.197706"
       id="path5516"
       inkscape:connector-curvature="0" />
    <path
       style="fill:#e7f1fd;fill-opacity:1;fill-rule:nonzero;stroke:none;stroke-width:0.92943662"
       d="m 76.491465,38.358262 c 0.484995,0 0.729043,-0.194617 0.729043,-0.580761 0,-0.188438 -0.06485,-0.32745 -0.191529,-0.426302 -0.126658,-0.09576 -0.308919,-0.142102 -0.546783,-0.142102 h -1.294355 v 1.149165 z M 76.31538,36.310154 c 0.185353,0 0.33054,-0.04633 0.435577,-0.135923 0.108114,-0.08958 0.160632,-0.21624 0.160632,-0.370698 0,-0.330538 -0.210058,-0.494264 -0.633275,-0.494264 h -1.090473 v 1.000885 z m 1.223308,-1.581645 c 0.29965,0.237865 0.44793,0.568404 0.44793,0.985439 0,0.206973 -0.04326,0.389234 -0.129751,0.552958 -0.08649,0.160636 -0.200789,0.281113 -0.349069,0.361431 v 0.06487 c 0.240948,0.08032 0.432477,0.21933 0.577673,0.423214 0.145187,0.203884 0.216234,0.441748 0.216234,0.710505 0,0.200794 -0.034,0.392322 -0.108121,0.571493 -0.07102,0.179171 -0.179169,0.333628 -0.330532,0.466462 -0.14828,0.132833 -0.339809,0.237864 -0.568404,0.318182 -0.231687,0.07723 -0.503533,0.117388 -0.818628,0.117388 h -2.384829 v -4.933375 h 2.177855 c 0.549867,0 0.973083,0.120478 1.269642,0.361431"
       id="path5518"
       inkscape:connector-curvature="0" />
  </g>
</svg>
