<?xml version="1.0" encoding="UTF-8" standalone="no"?>
<svg
   xmlns:dc="http://purl.org/dc/elements/1.1/"
   xmlns:cc="http://creativecommons.org/ns#"
   xmlns:rdf="http://www.w3.org/1999/02/22-rdf-syntax-ns#"
   xmlns:svg="http://www.w3.org/2000/svg"
   xmlns="http://www.w3.org/2000/svg"
   xmlns:sodipodi="http://sodipodi.sourceforge.net/DTD/sodipodi-0.dtd"
   xmlns:inkscape="http://www.inkscape.org/namespaces/inkscape"
   width="4.1999998cm"
   height="1.65cm"
   viewBox="0 0 119.05512 46.771654"
   version="1.2"
   id="svg5521"
   sodipodi:docname="vn.svg"
   inkscape:version="0.92.1 r15371">
  <metadata
     id="metadata5527">
    <rdf:RDF>
      <cc:Work
         rdf:about="">
        <dc:format>image/svg+xml</dc:format>
        <dc:type
           rdf:resource="http://purl.org/dc/dcmitype/StillImage" />
        <dc:title></dc:title>
      </cc:Work>
    </rdf:RDF>
  </metadata>
  <defs
     id="defs5525" />
  <sodipodi:namedview
     pagecolor="#070939"
     bordercolor="#666666"
     borderopacity="1"
     objecttolerance="10"
     gridtolerance="10"
     guidetolerance="10"
     inkscape:pageopacity="0"
     inkscape:pageshadow="2"
     inkscape:window-width="1920"
     inkscape:window-height="1027"
     id="namedview5523"
     showgrid="false"
     inkscape:zoom="3.4038462"
     inkscape:cx="76.485518"
     inkscape:cy="-0.23221605"
     inkscape:window-x="-8"
     inkscape:window-y="-8"
     inkscape:window-maximized="1"
     inkscape:current-layer="svg5521"
     units="cm"
     borderlayer="true"
     inkscape:showpageshadow="false" />
  <g
     id="g4598"
     transform="matrix(1.2675904,0,0,1.2675904,-188.46248,-7.5316639)"
     style="stroke-width:0.78889841">
    <path
       d="m 199.54374,13.646451 q 0,0.444645 -0.11113,0.889288 -0.0926,0.427543 -0.31486,0.820883 -0.22225,0.376237 -0.59268,0.666967 -0.3519,0.290729 -0.85197,0.444645 v 0.10261 q 0.44451,0.10261 0.83345,0.30783 0.40747,0.205221 0.70381,0.564356 0.29633,0.342036 0.46302,0.855085 0.18522,0.495952 0.18522,1.180021 0,0.923492 -0.35191,1.60756 -0.33338,0.666968 -0.92605,1.094511 -0.57416,0.427542 -1.35205,0.632764 -0.77788,0.20522 -1.64838,0.20522 -0.25929,0 -0.66676,0 -0.40746,0 -0.88901,-0.0342 -0.46303,-0.0171 -0.9631,-0.06841 -0.50007,-0.0513 -0.92606,-0.153915 V 10.961481 q 0.6112,-0.102611 1.50021,-0.171018 0.90754,-0.08551 1.79656,-0.08551 0.81493,0 1.55577,0.11971 0.75937,0.119714 1.315,0.444645 0.57415,0.324934 0.90754,0.906392 0.33338,0.564357 0.33338,1.470748 z m -3.90796,7.507653 q 0.77788,0 1.27796,-0.461746 0.50007,-0.461748 0.50007,-1.351037 0,-0.564357 -0.16669,-0.889288 -0.1667,-0.342035 -0.44451,-0.513051 -0.27782,-0.188119 -0.64824,-0.239425 -0.3519,-0.0513 -0.74085,-0.0513 h -0.94457 v 3.403241 q 0.14817,0.05131 0.50007,0.08551 0.37042,0.0171 0.66676,0.0171 z m -0.62972,-5.198923 q 0.20373,0 0.46303,-0.0171 0.27781,-0.0342 0.4445,-0.06841 0.53712,-0.188119 0.90754,-0.615661 0.38894,-0.427543 0.38894,-1.111612 0,-0.444645 -0.12965,-0.752475 -0.12964,-0.307831 -0.3519,-0.478847 -0.22225,-0.188121 -0.53711,-0.256527 -0.29634,-0.08551 -0.64824,-0.08551 -0.75936,0 -1.07422,0.06841 v 3.317732 z"
       style="font-style:normal;font-variant:normal;font-weight:bold;font-stretch:condensed;font-size:medium;line-height:1.25;font-family:'PT Sans Narrow';-inkscape-font-specification:'PT Sans Narrow Bold Condensed';letter-spacing:0px;word-spacing:0px;fill:#e7f1fd;fill-opacity:1;stroke:none;stroke-width:0.59167409"
       id="path4513"
       inkscape:connector-curvature="0" />
    <path
       d="m 201.21498,10.995684 q 0.66676,-0.136814 1.46317,-0.205221 0.79641,-0.08551 1.59281,-0.08551 0.85198,0 1.6669,0.153914 0.83346,0.136814 1.4817,0.564357 0.64823,0.427542 1.0557,1.214222 0.40746,0.769578 0.40746,2.018002 0,1.128714 -0.3519,1.915393 -0.33338,0.786678 -0.90753,1.282628 -0.57416,0.49595 -1.33352,0.718272 -0.74085,0.222323 -1.53726,0.222323 -0.0741,0 -0.24077,0 -0.16669,0 -0.3519,0 -0.18521,-0.0171 -0.37043,-0.0342 -0.16669,-0.0171 -0.24077,-0.0342 v 4.121514 h -2.33366 z m 2.33366,5.797483 q 0.11113,0.0342 0.40747,0.06841 0.31485,0.0171 0.42598,0.0171 0.40747,0 0.77789,-0.10261 0.37042,-0.10261 0.64824,-0.342034 0.29634,-0.256526 0.46302,-0.684069 0.16669,-0.444645 0.16669,-1.111612 0,-0.564356 -0.16669,-0.957696 -0.14816,-0.393339 -0.42598,-0.615662 -0.2593,-0.239423 -0.6112,-0.342034 -0.3519,-0.102609 -0.74084,-0.102609 -0.57416,0 -0.94458,0.08551 z"
       style="font-style:normal;font-variant:normal;font-weight:bold;font-stretch:condensed;font-size:medium;line-height:1.25;font-family:'PT Sans Narrow';-inkscape-font-specification:'PT Sans Narrow Bold Condensed';letter-spacing:0px;word-spacing:0px;fill:#e7f1fd;fill-opacity:1;stroke:none;stroke-width:0.59167409"
       id="path4515"
       inkscape:connector-curvature="0" />
    <path
       d="m 210.04145,10.875972 h 6.4824 v 1.983799 h -4.14874 v 2.941497 h 3.75979 v 1.983798 h -3.75979 v 3.078308 h 4.22282 v 1.9838 h -6.55648 z"
       style="font-style:normal;font-variant:normal;font-weight:bold;font-stretch:condensed;font-size:medium;line-height:1.25;font-family:'PT Sans Narrow';-inkscape-font-specification:'PT Sans Narrow Bold Condensed';letter-spacing:0px;word-spacing:0px;fill:#e7f1fd;fill-opacity:1;stroke:none;stroke-width:0.59167409"
       id="path4517"
       inkscape:connector-curvature="0" />
    <path
       d="m 226.29722,16.673454 0.25929,-2.29163 h -0.0926 l -0.68529,2.052206 -2.1114,4.207023 h -0.77789 l -2.24106,-4.224126 -0.68528,-2.069307 h -0.11113 l 0.35191,2.308733 v 6.190821 h -2.20402 V 10.875972 h 2.24106 l 2.70408,5.18182 0.44451,1.487851 h 0.0741 l 0.42599,-1.522054 2.53739,-5.147617 h 2.20402 v 11.971202 h -2.33366 z"
       style="font-style:normal;font-variant:normal;font-weight:bold;font-stretch:condensed;font-size:medium;line-height:1.25;font-family:'PT Sans Narrow';-inkscape-font-specification:'PT Sans Narrow Bold Condensed';letter-spacing:0px;word-spacing:0px;fill:#e7f1fd;fill-opacity:1;stroke:none;stroke-width:0.59167409"
       id="path4519"
       inkscape:connector-curvature="0" />
    <path
       d="m 237.6333,22.847174 h -2.33366 v -4.771379 l -1.00014,0.324933 -2.05584,4.446446 h -2.68557 l 2.11141,-4.07021 0.92606,-0.684068 q -0.98162,-0.256527 -1.62986,-1.111612 -0.64824,-0.872187 -0.64824,-2.428442 0,-1.094512 0.33338,-1.829885 0.33338,-0.735373 0.94458,-1.180019 0.61119,-0.444643 1.46317,-0.632762 0.85197,-0.20522 1.87063,-0.20522 0.24077,0 0.59268,0.0171 0.37042,0.0171 0.74084,0.05131 0.37042,0.0342 0.72233,0.10261 0.37042,0.0513 0.64823,0.119712 z m -2.33366,-10.072911 q -0.16669,-0.05131 -0.33338,-0.06841 -0.16669,-0.0171 -0.40746,-0.0171 -0.37042,0 -0.70381,0.102611 -0.33337,0.08551 -0.57415,0.324933 -0.24077,0.222323 -0.38894,0.598559 -0.12965,0.37624 -0.12965,0.940595 0,1.077408 0.50007,1.556256 0.51859,0.461747 1.33352,0.461747 h 0.7038 z"
       style="font-style:normal;font-variant:normal;font-weight:bold;font-stretch:condensed;font-size:medium;line-height:1.25;font-family:'PT Sans Narrow';-inkscape-font-specification:'PT Sans Narrow Bold Condensed';letter-spacing:0px;word-spacing:0px;fill:#e7f1fd;fill-opacity:1;stroke:none;stroke-width:0.59167409"
       id="path4521"
       inkscape:connector-curvature="0" />
    <path
       d="m 198.05718,32.894746 h -3.56808 v 5.06211 h -2.35382 V 25.985655 h 2.35382 v 4.925294 h 3.56808 v -4.925294 h 2.35381 v 11.971201 h -2.35381 z"
       style="font-style:normal;font-variant:normal;font-weight:bold;font-stretch:condensed;font-size:medium;line-height:1.25;font-family:'PT Sans Narrow';-inkscape-font-specification:'PT Sans Narrow Bold Condensed';letter-spacing:0px;word-spacing:0px;fill:#e7f1fd;fill-opacity:1;stroke:none;stroke-width:0.59167409"
       id="path4502"
       inkscape:connector-curvature="0" />
    <path
       d="m 207.38282,35.254783 h -3.08237 l -0.76593,2.702073 h -2.33513 l 3.79226,-12.05671 h 1.84942 l 3.81094,12.05671 h -2.4659 z m -2.57798,-1.778577 h 2.167 l -0.74724,-2.78758 -0.2989,-1.881189 h -0.0747 l -0.31758,1.89829 z"
       style="font-style:normal;font-variant:normal;font-weight:bold;font-stretch:condensed;font-size:medium;line-height:1.25;font-family:'PT Sans Narrow';-inkscape-font-specification:'PT Sans Narrow Bold Condensed';letter-spacing:0px;word-spacing:0px;fill:#e7f1fd;fill-opacity:1;stroke:none;stroke-width:0.59167409"
       id="path4504"
       inkscape:connector-curvature="0" />
    <path
       d="m 214.27935,31.201679 0.28021,1.590458 h 0.0934 l 0.24285,-1.641765 1.47581,-5.164717 h 2.42854 l -2.91425,8.27723 q -0.33626,0.974797 -0.63516,1.693069 -0.29889,0.70117 -0.65383,1.180019 -0.35494,0.478847 -0.80329,0.718272 -0.42966,0.222322 -1.06482,0.222322 -0.50439,0 -0.87801,-0.08551 -0.35494,-0.08551 -0.74724,-0.324932 l 0.57911,-1.812781 q 0.26154,0.136813 0.46703,0.188119 0.20549,0.0342 0.42966,0.0513 0.6912,0 0.95273,-1.29973 l -4.03511,-8.807382 h 2.78348 z"
       style="font-style:normal;font-variant:normal;font-weight:bold;font-stretch:condensed;font-size:medium;line-height:1.25;font-family:'PT Sans Narrow';-inkscape-font-specification:'PT Sans Narrow Bold Condensed';letter-spacing:0px;word-spacing:0px;fill:#e7f1fd;fill-opacity:1;stroke:none;stroke-width:0.59167409"
       id="path4506"
       inkscape:connector-curvature="0" />
    <path
       d="m 222.24886,32.826341 h -0.50438 v 5.130515 h -2.35382 V 25.985655 h 2.35382 v 5.318633 l 0.46702,-0.20522 2.74612,-5.113413 h 2.65271 l -2.98897,5.045006 -0.87801,0.632764 0.89669,0.649863 3.456,5.643568 h -2.87689 z"
       style="font-style:normal;font-variant:normal;font-weight:bold;font-stretch:condensed;font-size:medium;line-height:1.25;font-family:'PT Sans Narrow';-inkscape-font-specification:'PT Sans Narrow Bold Condensed';letter-spacing:0px;word-spacing:0px;fill:#e7f1fd;fill-opacity:1;stroke:none;stroke-width:0.59167409"
       id="path4508"
       inkscape:connector-curvature="0" />
    <path
       d="m 235.27949,31.577915 0.18681,-1.693069 h -0.0934 l -0.70988,1.812781 -3.71754,6.259229 h -1.84942 V 25.985655 h 2.35381 v 6.259228 l -0.20549,1.744373 h 0.0934 l 0.74724,-1.864087 3.71753,-6.139514 h 1.83075 v 11.971201 h -2.35382 z"
       style="font-style:normal;font-variant:normal;font-weight:bold;font-stretch:condensed;font-size:medium;line-height:1.25;font-family:'PT Sans Narrow';-inkscape-font-specification:'PT Sans Narrow Bold Condensed';letter-spacing:0px;word-spacing:0px;fill:#e7f1fd;fill-opacity:1;stroke:none;stroke-width:0.59167409"
       id="path4510"
       inkscape:connector-curvature="0" />
    <g
       id="g4583"
       style="stroke-width:0.78889841">
      <path
         inkscape:connector-curvature="0"
         id="path4146"
         d="m 169.58911,41.726679 c -1.80763,-0.09882 -3.4836,-0.464681 -5.15616,-1.12557 -2.38667,-0.943057 -4.61558,-2.504092 -6.33551,-4.437117 -0.55227,-0.620696 -1.02413,-1.232846 -1.5028,-1.949609 -1.61967,-2.425292 -2.6008,-5.19019 -2.87452,-8.10057 -0.0899,-0.955549 -0.10033,-2.153557 -0.0272,-3.110287 0.17736,-2.318821 0.79443,-4.541186 1.83087,-6.59381 1.2607,-2.49677 3.09635,-4.655249 5.30809,-6.241588 1.5751,-1.1297253 3.19893,-1.927497 5.02484,-2.4686528 2.88792,-0.8559136 6.15142,-0.8723961 9.04748,-0.045696 2.45683,0.7013187 4.67686,1.9343921 6.63076,3.6829188 0.30672,0.274482 0.92698,0.892778 1.19933,1.195527 1.95447,2.172674 3.32795,4.755397 4.0248,7.568365 0.62934,2.540439 0.68404,5.311333 0.15597,7.90013 -0.40858,2.003023 -1.19145,3.976998 -2.25932,5.696788 -0.57268,0.922277 -1.16991,1.719239 -1.90496,2.542017 -0.24823,0.277851 -0.99057,1.016535 -1.27186,1.265591 -1.59946,1.416181 -3.365,2.48838 -5.27531,3.203667 -1.5015,0.562211 -2.9213,0.872302 -4.57558,0.999321 -0.33193,0.02549 -1.68678,0.03783 -2.03897,0.01857 z m -5.5916,-3.185802 c 1.08449,-0.120459 2.29367,-0.653689 3.44896,-1.520941 0.39504,-0.296547 0.5178,-0.408579 0.66581,-0.607617 0.61573,-0.828024 1.06701,-1.780877 1.32249,-2.792346 0.10221,-0.40465 0.16403,-0.760525 0.20892,-1.202646 0.12994,-1.279592 0.49557,-7.147555 0.70072,-11.245416 0.0357,-0.713572 0.0424,-1.526784 0.0142,-1.727937 -0.025,-0.178535 -0.0668,-0.339865 -0.10746,-0.414732 -0.0186,-0.03423 -0.074,-0.111986 -0.12304,-0.172794 -0.16116,-0.199614 -0.22018,-0.286424 -0.29058,-0.427383 -0.0683,-0.136707 -0.071,-0.139939 -0.15897,-0.187295 -0.12226,-0.06583 -0.36938,-0.312521 -0.48195,-0.481104 -0.26823,-0.40173 -0.42818,-0.890431 -0.50776,-1.55139 -0.0334,-0.277267 -0.0337,-0.857859 -6e-4,-1.129649 0.0272,-0.22369 0.0678,-0.397867 0.10124,-0.434836 0.0328,-0.0362 0.0682,-0.03159 0.18411,0.02395 0.1827,0.08756 0.35312,0.216847 0.93127,0.706522 0.1813,0.153555 0.33681,0.275971 0.34559,0.272035 0.009,-0.0039 0.0734,-0.0766 0.14353,-0.161483 0.18831,-0.227783 0.41965,-0.481747 0.82684,-0.907708 0.57052,-0.596822 0.72977,-0.756445 0.76226,-0.764017 0.0532,-0.01241 0.0893,0.03162 0.1776,0.216696 0.23813,0.499051 0.37784,1.095048 0.43612,1.860553 0.0452,0.593333 -0.042,1.025569 -0.31641,1.568967 -0.23308,0.461549 -0.60554,0.940772 -1.08428,1.395108 -0.20638,0.195855 -0.25218,0.260422 -0.32063,0.452001 -0.20011,0.560087 -0.2838,1.657907 -0.28386,3.72376 0,1.066483 0.0253,1.738192 0.10388,2.754284 0.12664,1.637576 0.396,3.807021 0.78809,6.347254 0.20685,1.340068 0.25655,1.5912 0.40199,2.031306 0.25305,0.76574 0.6637,1.519006 1.21354,2.226033 0.12328,0.158518 0.24534,0.267343 0.59022,0.526204 1.17956,0.885352 2.40564,1.426608 3.49572,1.543191 0.43204,0.04621 1.14928,-0.0041 1.17946,-0.08279 0.004,-0.0099 -0.0332,-0.207105 -0.0821,-0.43823 -0.049,-0.231122 -0.16637,-0.787237 -0.26088,-1.23581 -0.18084,-0.858254 -0.43272,-2.049544 -0.53926,-2.550437 -0.0348,-0.163462 -0.0875,-0.412285 -0.11724,-0.552939 -0.42713,-2.021669 -0.71739,-3.340968 -0.81661,-3.711609 -0.15473,-0.578008 -0.28318,-0.832507 -0.5582,-1.105972 -0.18547,-0.184419 -0.3397,-0.286381 -0.92387,-0.610793 -0.77952,-0.432897 -1.25774,-0.726858 -1.73803,-1.068362 -1.17831,-0.837806 -1.86347,-1.673367 -2.04062,-2.488538 -0.0361,-0.166257 -0.0366,-0.593042 -9e-4,-0.760293 0.0864,-0.404419 0.29097,-0.804014 0.62624,-1.223379 0.16221,-0.202893 0.55786,-0.596437 0.81395,-0.809597 0.61353,-0.510689 1.26927,-0.938592 2.37073,-1.54701 0.5132,-0.283481 0.68237,-0.394513 0.8582,-0.563284 0.16948,-0.162673 0.2521,-0.271264 0.34994,-0.459955 0.14922,-0.287787 0.2427,-0.617924 0.51377,-1.814333 0.0185,-0.08173 0.0496,-0.218585 0.069,-0.304118 0.10533,-0.463751 0.2903,-1.284543 0.44314,-1.966393 0.0494,-0.220484 0.13659,-0.60927 0.19371,-0.863968 0.22391,-0.998367 0.5258,-2.35195 0.69062,-3.096464 l 0.17289,-0.781028 -0.0299,-0.02073 c -0.0164,-0.0114 -0.17317,-0.102994 -0.34829,-0.203534 -1.74874,-1.0039677 -3.72207,-1.6608243 -5.71927,-1.9037588 -0.64302,-0.078215 -1.14132,-0.1077079 -1.8247,-0.107996 -0.55735,-2.372e-4 -0.88396,0.013851 -1.38686,0.059811 -2.23488,0.2042439 -4.39836,0.9039885 -6.35084,2.0540968 -0.10835,0.06382 -0.19699,0.122608 -0.19699,0.13064 0,0.01735 0.59076,2.665363 1.23168,5.520875 0.0376,0.167265 0.0867,0.384983 0.10933,0.483824 0.0226,0.09884 0.0967,0.425417 0.16482,0.725731 0.33705,1.487087 0.40387,1.736588 0.54435,2.03255 0.14136,0.297833 0.36283,0.542888 0.67996,0.752368 0.0836,0.05524 0.30757,0.186122 0.49765,0.290845 0.70699,0.389522 1.09742,0.622605 1.54132,0.920164 1.36158,0.912706 2.12883,1.793238 2.3246,2.667811 0.043,0.191966 0.0466,0.589358 0.007,0.773305 -0.0427,0.198839 -0.11704,0.406356 -0.214,0.597849 -0.17155,0.338788 -0.37855,0.616792 -0.72146,0.968934 -0.6478,0.665246 -1.43595,1.220503 -2.84455,2.004016 -0.58249,0.323996 -0.73739,0.426409 -0.92388,0.61081 -0.35189,0.347948 -0.48658,0.692168 -0.74375,1.900732 -0.25407,1.193988 -1.55633,7.658881 -1.55633,7.726165 0,0.03141 0.0271,0.04098 0.2401,0.08485 0.32999,0.06797 0.77491,0.08664 1.12842,0.04738 z m 6.37563,-25.443841 c -0.14451,-0.0233 -0.27866,-0.123951 -0.34485,-0.258737 -0.0341,-0.06944 -0.0383,-0.09314 -0.0383,-0.216221 0,-0.12448 0.004,-0.145502 0.0385,-0.21128 0.0513,-0.09745 0.13389,-0.177514 0.22902,-0.222115 0.0663,-0.03109 0.0968,-0.0366 0.20248,-0.0366 0.10569,0 0.13616,0.0055 0.20249,0.0366 0.0951,0.0446 0.17769,0.124669 0.22901,0.222115 0.0346,0.06578 0.0385,0.0868 0.0385,0.21128 1e-5,0.123434 -0.004,0.146676 -0.0387,0.217066 -0.0919,0.187133 -0.30357,0.292489 -0.51814,0.257892 z"
         style="fill:#e7f1fd;fill-opacity:0.5254902;stroke-width:0.63111883"
         sodipodi:nodetypes="sssssssssssssssssssssssssssssssssccsscsssssssscsssssscssssssssscssssssssssccsssssssssssssssssssssssscssssssscs" />
      <path
         inkscape:connector-curvature="0"
         id="path4144"
         d="m 169.60294,41.712864 c -1.7972,-0.09833 -3.49381,-0.466133 -5.12852,-1.111801 -2.79496,-1.103939 -5.28094,-2.97841 -7.14107,-5.384476 -1.14763,-1.484464 -2.04867,-3.135709 -2.6778,-4.907342 -0.46678,-1.314469 -0.78684,-2.776282 -0.92161,-4.209256 -0.0898,-0.954387 -0.1001,-2.128823 -0.0271,-3.08264 0.21223,-2.774591 1.03697,-5.363773 2.47024,-7.754983 1.18833,-1.982557 2.82196,-3.759821 4.68254,-5.094229 2.38877,-1.713229 5.08545,-2.7406808 7.9416,-3.0258052 2.81992,-0.2815066 5.63507,0.1561589 8.17819,1.2714506 1.65644,0.7264296 3.15256,1.6921966 4.528,2.9228806 0.30666,0.274384 0.95434,0.920057 1.22701,1.22321 1.65645,1.841639 2.8988,3.988543 3.66362,6.331092 0.77923,2.386707 1.03707,5.003741 0.74567,7.568435 -0.37516,3.30194 -1.67944,6.425364 -3.76362,9.012922 -0.42253,0.52459 -0.70639,0.838219 -1.25182,1.38311 -0.44763,0.447199 -0.72529,0.702449 -1.13307,1.041641 -1.60984,1.339064 -3.48726,2.383144 -5.4412,3.02598 -1.26648,0.416667 -2.52242,0.662521 -3.93969,0.771198 -0.33221,0.02547 -1.66114,0.03777 -2.01132,0.01861 z m -5.65381,-3.1525 c 0.45121,-0.0512 0.7272,-0.112783 1.16808,-0.260657 0.91853,-0.30808 1.84644,-0.84971 2.78346,-1.62474 0.0773,-0.06396 0.23541,-0.265639 0.41717,-0.532205 0.474,-0.69517 0.82862,-1.454532 1.06982,-2.290837 0.0985,-0.34154 0.20292,-0.842463 0.23566,-1.130479 0.008,-0.06843 0.0171,-0.146184 0.0207,-0.172794 0.0106,-0.07776 0.0335,-0.315067 0.0428,-0.442353 0.0147,-0.202265 0.0177,-0.238547 0.0255,-0.303315 0.004,-0.03465 0.0109,-0.122102 0.015,-0.194331 0.004,-0.07223 0.0102,-0.149986 0.0137,-0.172794 0.003,-0.02281 0.0103,-0.109895 0.0151,-0.193527 0.005,-0.08363 0.0108,-0.176942 0.0132,-0.207354 0.004,-0.05332 0.0141,-0.198386 0.0273,-0.400881 0.003,-0.05322 0.009,-0.124758 0.0133,-0.15897 0.004,-0.03421 0.0104,-0.127522 0.0144,-0.207353 0.004,-0.07983 0.01,-0.176251 0.0129,-0.214264 0.003,-0.03802 0.009,-0.128213 0.014,-0.200441 0.005,-0.07223 0.0111,-0.168646 0.0144,-0.214265 0.003,-0.04562 0.009,-0.145145 0.0137,-0.221174 0.004,-0.07603 0.0106,-0.178671 0.014,-0.228089 0.003,-0.04942 0.009,-0.142727 0.0132,-0.207352 0.004,-0.06463 0.01,-0.145493 0.0139,-0.179705 0.004,-0.03421 0.0109,-0.139963 0.0156,-0.235001 0.009,-0.187508 0.0125,-0.242937 0.0255,-0.442353 0.005,-0.07223 0.0115,-0.179533 0.015,-0.238456 0.004,-0.05892 0.01,-0.156897 0.0134,-0.217722 0.004,-0.06082 0.01,-0.158795 0.0135,-0.217718 0.004,-0.05892 0.01,-0.163115 0.0143,-0.231541 0.004,-0.06843 0.0104,-0.171067 0.0138,-0.228089 0.003,-0.05702 0.01,-0.159661 0.0138,-0.228087 0.004,-0.06843 0.0106,-0.174175 0.0142,-0.235 0.0193,-0.329691 0.0293,-0.497952 0.041,-0.691175 0.011,-0.181461 0.0189,-0.315447 0.028,-0.478049 0.004,-0.0792 0.0106,-0.184442 0.0136,-0.23386 0.0115,-0.189707 0.0206,-0.343561 0.0276,-0.469999 0.004,-0.07223 0.0101,-0.177979 0.0135,-0.235001 0.003,-0.05702 0.01,-0.168991 0.0138,-0.248823 0.004,-0.07983 0.0105,-0.19802 0.0141,-0.262645 0.004,-0.06462 0.01,-0.176596 0.0138,-0.248823 0.008,-0.14285 0.0159,-0.283363 0.0273,-0.476911 0.004,-0.06843 0.0104,-0.186618 0.0142,-0.262647 0.004,-0.07603 0.01,-0.187999 0.0133,-0.248823 0.004,-0.06082 0.01,-0.175903 0.014,-0.255735 0.004,-0.07983 0.0106,-0.201131 0.0142,-0.269557 0.004,-0.06843 0.01,-0.199059 0.0142,-0.290294 0.004,-0.09123 0.0103,-0.221867 0.0137,-0.290293 0.0181,-0.360716 0.0213,-0.425789 0.0272,-0.552941 0.004,-0.07603 0.0103,-0.215992 0.0151,-0.311028 0.005,-0.09504 0.009,-0.396735 0.008,-0.67044 -4.4e-4,-0.436274 -0.004,-0.518488 -0.0289,-0.666658 -0.044,-0.262046 -0.0829,-0.353328 -0.22226,-0.522163 -0.15595,-0.18886 -0.2118,-0.270442 -0.28715,-0.419431 -0.0436,-0.08623 -0.0869,-0.17073 -0.0962,-0.187772 -0.009,-0.01704 -0.0326,-0.08956 -0.0518,-0.161154 -0.16191,-0.604866 -0.0875,-1.37672 0.18272,-1.894575 0.085,-0.16296 0.26549,-0.420922 0.34679,-0.495738 0.0289,-0.02661 0.12007,-0.128502 0.20256,-0.226431 0.32288,-0.383337 1.44719,-1.570257 1.52973,-1.614924 0.0617,-0.03336 0.0815,-0.01745 0.15386,0.123425 0.17895,0.348263 0.30057,0.746182 0.39624,1.296314 0.0193,0.11099 0.0567,0.432683 0.0643,0.552939 0.003,0.05322 0.0122,0.166153 0.0197,0.250961 0.007,0.08481 0.0108,0.162568 0.007,0.172794 -0.003,0.01023 -0.009,0.06836 -0.0131,0.129186 -0.0492,0.787561 -0.574,1.71109 -1.4178,2.495141 -0.17404,0.161719 -0.2183,0.218761 -0.27725,0.357299 -0.0987,0.23184 -0.19476,0.699165 -0.22927,1.114905 -0.004,0.05322 -0.0104,0.124756 -0.0132,0.15897 -0.0506,0.604015 -0.0635,1.109005 -0.0638,2.481316 -1.7e-4,1.000806 0.004,1.298936 0.0226,1.707203 0.0171,0.370819 0.0435,0.772319 0.0832,1.264851 0.002,0.02281 0.008,0.109897 0.0135,0.193529 0.006,0.08363 0.0123,0.155612 0.0149,0.159955 0.003,0.0043 0.008,0.06655 0.013,0.138236 0.005,0.07169 0.011,0.145888 0.0143,0.164896 0.003,0.01901 0.01,0.0781 0.0138,0.131324 0.004,0.05322 0.014,0.155859 0.0216,0.228087 0.008,0.07223 0.0168,0.162427 0.0204,0.20044 0.004,0.03802 0.01,0.094 0.0133,0.124412 0.004,0.03041 0.01,0.0864 0.0139,0.124411 0.009,0.08427 0.0354,0.318813 0.0417,0.366323 0.003,0.01901 0.0113,0.09988 0.0195,0.179706 0.008,0.07983 0.0242,0.216683 0.0355,0.304118 0.0113,0.08743 0.0365,0.286492 0.056,0.442351 0.0393,0.314863 0.0701,0.555416 0.0886,0.691175 0.007,0.04942 0.0188,0.139616 0.0267,0.20044 0.0365,0.278904 0.0844,0.62107 0.1673,1.195733 0.0662,0.458669 0.0969,0.665555 0.11093,0.746469 0.007,0.04182 0.0196,0.122684 0.0275,0.179706 0.0135,0.09774 0.0234,0.164333 0.0553,0.369777 0.007,0.04752 0.0193,0.125276 0.0266,0.172793 0.0132,0.08659 0.0376,0.241839 0.0763,0.487327 0.0114,0.07223 0.0297,0.188853 0.0408,0.259168 0.0911,0.581566 0.1819,0.941788 0.3547,1.406516 0.25616,0.68894 0.65823,1.391805 1.14242,1.997046 0.0941,0.117584 0.16472,0.186849 0.31481,0.308604 0.42661,0.346071 0.99165,0.727099 1.42382,0.960136 0.1563,0.08428 0.55616,0.283087 0.65677,0.326536 0.31386,0.135551 0.73007,0.277947 1.01588,0.347562 0.26606,0.0648 0.35366,0.08009 0.70499,0.122964 0.11541,0.01408 0.71957,0.01067 0.81559,-0.0046 0.0304,-0.0048 0.0957,-0.01504 0.14515,-0.02266 0.12045,-0.01858 0.17741,-0.0381 0.19221,-0.06589 0.008,-0.01493 4.9e-4,-0.07925 -0.0211,-0.182055 -0.0184,-0.08743 -0.0424,-0.202513 -0.0533,-0.255734 -0.031,-0.150784 -0.0718,-0.344072 -0.11098,-0.525292 -0.0197,-0.09124 -0.0414,-0.193875 -0.0482,-0.228089 -0.007,-0.03421 -0.0285,-0.136852 -0.0482,-0.228087 -0.0197,-0.09124 -0.0447,-0.209426 -0.0555,-0.262647 -0.0269,-0.132322 -0.068,-0.327091 -0.11071,-0.525294 -0.0197,-0.09123 -0.0445,-0.209425 -0.0551,-0.262646 -0.0106,-0.05322 -0.0323,-0.155859 -0.0483,-0.228088 -0.0159,-0.07223 -0.0377,-0.174866 -0.0485,-0.228087 -0.0107,-0.05322 -0.0354,-0.171411 -0.0549,-0.262647 -0.0373,-0.174478 -0.1022,-0.481651 -0.14608,-0.691173 -0.0143,-0.06843 -0.039,-0.183509 -0.0548,-0.255737 -0.0158,-0.07223 -0.0375,-0.174866 -0.0482,-0.228087 -0.0107,-0.05322 -0.0325,-0.155859 -0.0484,-0.228088 -0.016,-0.07223 -0.0345,-0.159315 -0.0412,-0.193529 -0.0119,-0.06039 -0.0771,-0.367198 -0.1183,-0.556396 -0.0112,-0.05132 -0.0295,-0.135296 -0.0407,-0.186618 -0.0112,-0.05132 -0.0489,-0.230161 -0.0839,-0.397424 -0.065,-0.311266 -0.172,-0.8075 -0.24139,-1.119703 -0.007,-0.03041 -0.0223,-0.10195 -0.0346,-0.158971 -0.0122,-0.05702 -0.0281,-0.128558 -0.0352,-0.158971 -0.007,-0.03041 -0.0477,-0.213919 -0.0902,-0.407793 -0.10035,-0.457842 -0.21254,-0.896041 -0.27604,-1.078232 -0.11613,-0.333142 -0.2624,-0.573708 -0.47003,-0.773046 -0.20987,-0.201482 -0.34112,-0.286505 -1.01549,-0.657838 -1.00383,-0.552753 -1.74582,-1.047106 -2.33617,-1.556481 -0.22474,-0.193916 -0.57616,-0.550579 -0.72076,-0.731508 -0.36492,-0.456587 -0.58332,-0.917697 -0.63493,-1.340529 -0.0245,-0.200813 -0.0237,-0.294043 0.004,-0.504556 0.12174,-0.917789 0.93685,-1.882535 2.40209,-2.843063 0.12545,-0.08224 0.24053,-0.157897 0.25573,-0.168135 0.0254,-0.0171 0.42236,-0.255744 0.60133,-0.361501 0.0896,-0.05294 0.0964,-0.05674 0.61753,-0.346627 0.54712,-0.304309 0.7346,-0.437303 0.92453,-0.655813 0.28318,-0.325802 0.39698,-0.631783 0.65548,-1.762496 0.0156,-0.06843 0.0343,-0.149294 0.0415,-0.179704 0.007,-0.03041 0.0222,-0.09573 0.0334,-0.145148 0.0112,-0.04942 0.0339,-0.148947 0.0503,-0.221175 0.0337,-0.147549 0.0572,-0.252087 0.0888,-0.393971 0.0119,-0.05322 0.0368,-0.16208 0.0554,-0.24191 0.0186,-0.07983 0.0504,-0.219794 0.0705,-0.311028 0.0481,-0.217529 0.0518,-0.234033 0.096,-0.42853 0.0412,-0.181233 0.0524,-0.23107 0.073,-0.324852 0.008,-0.03421 0.0368,-0.164845 0.0651,-0.290293 0.0736,-0.326235 0.0716,-0.317559 0.0898,-0.400883 0.009,-0.04181 0.0215,-0.0978 0.0275,-0.12441 0.0159,-0.07079 0.13958,-0.620671 0.15241,-0.67735 0.0156,-0.06882 0.0359,-0.160697 0.0552,-0.248823 0.009,-0.04182 0.0215,-0.0978 0.0274,-0.124413 0.006,-0.02661 0.0527,-0.234999 0.10381,-0.463086 0.0511,-0.228089 0.0979,-0.436478 0.10389,-0.463088 0.0157,-0.06944 0.0361,-0.161266 0.0552,-0.248823 0.009,-0.04182 0.0215,-0.0978 0.0276,-0.124413 0.006,-0.02661 0.0185,-0.08259 0.0276,-0.12441 0.009,-0.04182 0.0215,-0.0978 0.0275,-0.124413 0.28986,-1.287983 0.38649,-1.748379 0.37031,-1.764375 -0.0159,-0.01567 -0.31934,-0.196861 -0.46002,-0.274641 -0.72114,-0.398727 -1.35413,-0.6951012 -2.06967,-0.9690418 -0.28347,-0.1085246 -0.93959,-0.3284715 -1.19267,-0.3998119 -0.30932,-0.087193 -0.59881,-0.1631148 -0.74296,-0.1948444 -0.0551,-0.012141 -0.12205,-0.026941 -0.14866,-0.032887 -0.40131,-0.089673 -1.03711,-0.202263 -1.36161,-0.2411198 -0.0988,-0.011834 -0.22636,-0.02759 -0.28338,-0.03501 -0.64687,-0.084181 -1.82954,-0.1132998 -2.57118,-0.063305 -0.0418,0.00282 -0.13823,0.00883 -0.21426,0.013348 -0.076,0.00452 -0.16623,0.011645 -0.20044,0.015823 -0.0605,0.00739 -0.0974,0.011123 -0.26956,0.027275 -0.0456,0.00428 -0.0985,0.00988 -0.1175,0.012448 -0.019,0.00256 -0.12165,0.014915 -0.22809,0.027441 -0.27827,0.032748 -0.7746,0.1144096 -1.0575,0.1739935 -0.92794,0.1954376 -1.66769,0.4128275 -2.50896,0.7373067 -0.12925,0.049851 -0.28787,0.1133303 -0.3525,0.1410676 -0.0646,0.027736 -0.15171,0.064647 -0.19353,0.082026 -0.24319,0.1010688 -0.98837,0.4653266 -1.21491,0.5938741 -0.0612,0.0347 -0.11392,0.06309 -0.11726,0.06309 -0.0105,0 -0.4887,0.282016 -0.52822,0.311531 l -0.0377,0.02815 0.11434,0.510965 c 0.0629,0.28103 0.11922,0.532737 0.12519,0.559348 0.0196,0.08729 0.0382,0.17155 0.0551,0.248822 0.009,0.04182 0.0215,0.0978 0.0276,0.124413 0.006,0.02661 0.0185,0.0826 0.0276,0.12441 0.009,0.04182 0.0216,0.0978 0.0276,0.124413 0.006,0.02661 0.0185,0.0826 0.0276,0.12441 0.009,0.04182 0.0215,0.0978 0.0275,0.124413 0.006,0.02661 0.0589,0.262992 0.11765,0.525291 0.0587,0.262302 0.11166,0.498683 0.11765,0.525292 0.006,0.02661 0.0184,0.0826 0.0275,0.124414 0.009,0.04181 0.0215,0.0978 0.0275,0.124411 0.006,0.02661 0.0465,0.207008 0.09,0.400881 0.0435,0.193875 0.084,0.374271 0.09,0.400881 0.006,0.02661 0.0184,0.0826 0.0275,0.124411 0.009,0.04182 0.0215,0.0978 0.0275,0.124412 0.0104,0.0462 0.10182,0.451474 0.12474,0.552939 0.006,0.02661 0.0171,0.07637 0.0246,0.110589 0.008,0.03421 0.0368,0.164845 0.0651,0.290294 0.0283,0.125446 0.0563,0.249859 0.0622,0.276469 0.006,0.02661 0.0339,0.151021 0.0622,0.276471 0.0585,0.259266 0.0644,0.285578 0.0958,0.428528 0.0125,0.05702 0.038,0.168992 0.0567,0.248823 0.0187,0.07983 0.0437,0.18869 0.0555,0.24191 0.0119,0.05322 0.0301,0.134089 0.0406,0.179707 0.0104,0.04562 0.0288,0.126483 0.0408,0.179704 0.012,0.05322 0.0376,0.165193 0.0569,0.248823 0.0193,0.08363 0.048,0.208045 0.0637,0.276471 0.24613,1.068591 0.39707,1.402885 0.78764,1.74449 0.0853,0.07461 0.43718,0.322122 0.45794,0.322122 0.006,0 0.60847,0.33321 0.74975,0.414461 0.0304,0.01749 0.0833,0.04745 0.1175,0.06658 0.41083,0.229686 1.07108,0.656644 1.43772,0.929727 1.02233,0.761445 1.63598,1.51908 1.82438,2.252463 0.0147,0.05702 0.0367,0.187666 0.0491,0.290321 0.0217,0.180353 0.0215,0.194031 -0.007,0.405804 -0.049,0.368775 -0.17672,0.6948 -0.4123,1.052547 -0.4742,0.720108 -1.34874,1.465143 -2.57427,2.19306 -0.34963,0.207669 -0.45744,0.269461 -0.82941,0.475411 -0.46922,0.259791 -0.57827,0.32616 -0.72519,0.441346 -0.31883,0.249956 -0.50718,0.527835 -0.64682,0.954293 -0.0648,0.197868 -0.15008,0.506691 -0.17751,0.642792 -0.008,0.04182 -0.0203,0.0978 -0.0264,0.124413 -0.006,0.02661 -0.0176,0.07948 -0.0256,0.117498 -0.008,0.03801 -0.0277,0.128213 -0.0436,0.20044 -0.016,0.07223 -0.0377,0.174868 -0.0484,0.228089 -0.0106,0.05322 -0.048,0.233617 -0.0829,0.400881 -0.035,0.167265 -0.0755,0.363212 -0.0899,0.435441 -0.0145,0.07223 -0.0797,0.392588 -0.14484,0.711911 -0.38677,1.895035 -1.19581,5.942143 -1.19581,5.981881 0,0.04631 0.1524,0.08747 0.49764,0.134381 0.20108,0.02732 0.64859,0.03425 0.83633,0.01295 z m -2.02515,-0.611095 c 0,-0.0024 0.0374,-0.265222 0.0831,-0.584042 0.0457,-0.318821 0.21084,-1.481657 0.36693,-2.584081 0.43714,-3.087479 0.66357,-4.617401 0.76666,-5.180225 0.0451,-0.246489 0.13851,-0.61814 0.21445,-0.853731 0.25117,-0.779202 0.62154,-1.267939 1.30588,-1.723213 0.1408,-0.09367 0.17701,-0.115531 0.35249,-0.212777 0.30014,-0.166319 0.39888,-0.220477 0.40198,-0.220477 0.002,0 0.0509,-0.02799 0.10875,-0.06221 0.0579,-0.03421 0.10804,-0.06221 0.11149,-0.06221 0.003,0 0.0453,-0.02385 0.0929,-0.05301 0.0477,-0.02916 0.0929,-0.05559 0.10046,-0.05875 0.0142,-0.0059 0.40502,-0.240841 0.50395,-0.302948 0.0303,-0.01901 0.10864,-0.06802 0.17414,-0.108911 0.37549,-0.234459 0.95856,-0.683935 1.24382,-0.958833 0.30964,-0.298406 0.51511,-0.558467 0.64494,-0.816318 0.22045,-0.437844 0.14602,-0.792348 -0.2778,-1.322989 -0.32474,-0.406587 -0.95152,-0.928849 -1.64626,-1.371733 -0.0722,-0.04604 -0.15309,-0.09758 -0.1797,-0.114524 -0.15435,-0.09828 -0.55498,-0.330599 -0.95029,-0.551055 -0.57095,-0.318414 -0.54168,-0.3015 -0.68088,-0.393476 -0.77758,-0.513784 -1.16031,-1.089757 -1.42348,-2.142221 -0.0827,-0.330585 -0.14158,-0.512331 -0.56933,-1.756546 -0.89142,-2.592889 -1.33312,-3.958561 -1.581,-4.888214 -0.0203,-0.07603 -0.0415,-0.143154 -0.0471,-0.149167 -0.006,-0.006 -0.093,0.05619 -0.19416,0.138236 -0.10115,0.08204 -0.20725,0.167829 -0.23579,0.190637 -0.0569,0.04549 -0.14532,0.122589 -0.42774,0.373 -0.24711,0.219104 -0.9129,0.883813 -1.1633,1.161407 -0.48862,0.541678 -0.88587,1.044467 -1.34888,1.707203 -0.1585,0.226879 -0.52439,0.805622 -0.6336,1.002204 -0.008,0.01521 -0.0547,0.09607 -0.10279,0.179706 -0.0481,0.08363 -0.10894,0.192492 -0.13524,0.241909 -0.0263,0.04942 -0.0997,0.186274 -0.1631,0.304118 -0.0634,0.117846 -0.15243,0.296034 -0.19782,0.395976 -0.0454,0.09994 -0.0892,0.193249 -0.0973,0.207351 -0.0289,0.05001 -0.24736,0.554573 -0.34634,0.799758 -0.65236,1.615903 -1.05228,3.370911 -1.16079,5.093959 -0.008,0.125448 -0.0176,0.270945 -0.0216,0.323326 -0.0113,0.148064 -0.0257,0.589878 -0.026,0.796379 -2.4e-4,0.165538 0.004,0.293957 0.0274,0.836321 0.009,0.212203 0.057,0.787051 0.0885,1.064409 0.25896,2.278321 0.97542,4.4446 2.12593,6.427928 0.0573,0.09884 0.12393,0.210806 0.14799,0.248822 0.0241,0.03802 0.0584,0.094 0.0764,0.124411 0.18754,0.318045 0.66543,1.008155 0.96474,1.393177 0.97552,1.254846 2.0641,2.306541 3.33427,3.221266 0.28771,0.207196 0.34031,0.24323 0.35595,0.243841 0.01,3.73e-4 0.0173,-0.0013 0.0173,-0.0037 z m 17.14489,-0.03335 c 0.21819,-0.1408 0.79052,-0.569566 1.10533,-0.828066 1.10972,-0.911219 2.10068,-1.976807 2.94216,-3.163763 0.10406,-0.146778 0.39373,-0.580292 0.47569,-0.711911 0.0166,-0.02661 0.0474,-0.07562 0.0684,-0.108901 0.0918,-0.145087 0.35027,-0.591369 0.49344,-0.851832 0.0468,-0.0852 0.41122,-0.816758 0.46132,-0.926174 0.81896,-1.788434 1.30825,-3.687696 1.45833,-5.660723 0.0338,-0.444259 0.043,-0.719473 0.0424,-1.27176 -5.6e-4,-0.559087 -0.006,-0.806682 -0.0208,-0.960735 -0.004,-0.03801 -0.0135,-0.168647 -0.0218,-0.290292 -0.0708,-1.035828 -0.28054,-2.232437 -0.57333,-3.2713 -0.0628,-0.222782 -0.23483,-0.780411 -0.2574,-0.83428 -0.006,-0.0152 -0.0466,-0.127176 -0.0893,-0.248823 -0.24637,-0.701308 -0.64388,-1.593106 -1.00746,-2.260142 -0.0518,-0.09504 -0.11283,-0.207006 -0.13562,-0.248823 -0.0228,-0.04181 -0.046,-0.08225 -0.0516,-0.08985 -0.006,-0.0076 -0.0256,-0.04181 -0.0445,-0.07603 -0.11363,-0.205826 -0.52088,-0.854414 -0.66401,-1.057497 -0.20904,-0.296611 -0.26463,-0.373457 -0.42411,-0.586264 -0.78252,-1.044171 -1.73399,-2.029362 -2.75659,-2.85429 -0.0825,-0.06652 -0.15787,-0.11789 -0.16759,-0.11416 -0.01,0.0037 -0.0221,0.03014 -0.0274,0.05869 -0.005,0.02855 -0.0554,0.210998 -0.11124,0.405441 -0.2824,0.983606 -0.66304,2.136669 -1.42407,4.313963 -0.46235,1.322747 -0.5569,1.608684 -0.64972,1.964749 -0.22706,0.871102 -0.45525,1.313334 -0.90389,1.751728 -0.27642,0.270108 -0.56135,0.463356 -1.14865,0.779029 -0.21818,0.117275 -0.86141,0.489678 -1.00911,0.584232 -0.0266,0.01704 -0.10748,0.06885 -0.17971,0.115141 -1.00749,0.645721 -1.72445,1.325577 -1.95502,1.853853 -0.0649,0.148786 -0.0904,0.258191 -0.0907,0.389555 -0.001,0.54356 0.61599,1.264896 1.76229,2.060116 0.18798,0.130411 0.76185,0.486091 1.02985,0.6383 0.1069,0.06071 0.57024,0.319172 0.70263,0.391939 0.0329,0.01809 0.0951,0.05231 0.13823,0.07604 0.24533,0.13503 0.54386,0.357368 0.74656,0.556022 0.26104,0.255831 0.42621,0.483248 0.58236,0.801821 0.15725,0.320816 0.32597,0.874971 0.41549,1.364625 0.0997,0.545624 0.30849,1.958251 0.72498,4.906046 0.46531,3.293365 0.48689,3.442051 0.49952,3.442051 0.003,0 0.0324,-0.01698 0.0646,-0.03772 z"
         style="fill:#e7f1fd;fill-opacity:1;stroke-width:0.63111883"
         sodipodi:nodetypes="sssssssssssssssssssssssssscscscccsssccsccscsssssssscscsscsccccccsccscssssssscssssscscssccssssssccsccccssccsscccssssssssscssccssscssscccsccscccscsssssssssssssssccscssssssccccssscssccsssssssssssssssssssscsssssssssssssssssssssssssssssscsssssssssssssssssssssssssssssssccssssssssssssssssssssssssssssssssssscsssssssssscssscscsssssccssssscsscsscsssssss" />
    </g>
  </g>
</svg>
