<?xml version="1.0" encoding="UTF-8" standalone="no"?>
<svg
   xmlns:dc="http://purl.org/dc/elements/1.1/"
   xmlns:cc="http://creativecommons.org/ns#"
   xmlns:rdf="http://www.w3.org/1999/02/22-rdf-syntax-ns#"
   xmlns:svg="http://www.w3.org/2000/svg"
   xmlns="http://www.w3.org/2000/svg"
   xmlns:sodipodi="http://sodipodi.sourceforge.net/DTD/sodipodi-0.dtd"
   xmlns:inkscape="http://www.inkscape.org/namespaces/inkscape"
   width="12cm"
   height="4.5cm"
   viewBox="0 0 340.15749 127.55906"
   version="1.2"
   id="svg5521"
   sodipodi:docname="fpg.svg"
   inkscape:version="0.92.1 r15371">
  <metadata
     id="metadata5527">
    <rdf:RDF>
      <cc:Work
         rdf:about="">
        <dc:format>image/svg+xml</dc:format>
        <dc:type
           rdf:resource="http://purl.org/dc/dcmitype/StillImage" />
        <dc:title></dc:title>
      </cc:Work>
    </rdf:RDF>
  </metadata>
  <defs
     id="defs5525" />
  <sodipodi:namedview
     pagecolor="#ffffff"
     bordercolor="#666666"
     borderopacity="1"
     objecttolerance="10"
     gridtolerance="10"
     guidetolerance="10"
     inkscape:pageopacity="0"
     inkscape:pageshadow="2"
     inkscape:window-width="1920"
     inkscape:window-height="1027"
     id="namedview5523"
     showgrid="false"
     inkscape:zoom="1.7019231"
     inkscape:cx="123.78254"
     inkscape:cy="77.37763"
     inkscape:window-x="-8"
     inkscape:window-y="-8"
     inkscape:window-maximized="1"
     inkscape:current-layer="svg5521"
     units="cm"
     borderlayer="true"
     inkscape:showpageshadow="false" />
  <g
     id="g6178"
     transform="matrix(2.5637231,0,0,2.5637231,-140.05168,-50.942071)"
     style="stroke-width:0.39005774">
    <path
       style="fill:#cb9c56;fill-opacity:1;fill-rule:nonzero;stroke:none;stroke-width:0.39005774"
       d="M 95.742188,29.675781 H 77.390625 c -1.859375,0 -3.515625,1.160157 -4.152344,2.910157 l -7.109375,19.53125 c -0.640625,1.742187 -2.296875,2.902343 -4.152343,2.902343 h 18.351562 c 1.859375,0 3.519531,-1.164062 4.152344,-2.910156 L 91.59375,32.574219 c 0.636719,-1.742188 2.292969,-2.898438 4.148438,-2.898438"
       id="path5468"
       inkscape:connector-curvature="0" />
    <path
       style="fill:#dfca9c;fill-opacity:1;fill-rule:nonzero;stroke:none;stroke-width:0.39005774"
       d="m 71.941406,32.113281 c 0.828125,-2.285156 3.019532,-3.820312 5.449219,-3.820312 h 1.832031 l 1.058594,-2.90625 c 0.519531,-1.421875 1.875,-2.367188 3.386719,-2.367188 H 68.683594 c -1.519531,0 -2.875,0.949219 -3.394531,2.375 l -5.804688,15.953125 c -0.523437,1.421875 -1.875,2.371094 -3.390625,2.371094 h 11.621094 z m 0,0"
       id="path5470"
       inkscape:connector-curvature="0" />
    <g
       id="g6149"
       style="stroke-width:0.39005774">
      <path
         inkscape:connector-curvature="0"
         id="path5472"
         d="m 101.32031,41.976563 c 0.39063,0 0.6875,-0.105469 0.89063,-0.316407 0.20703,-0.210937 0.30859,-0.496093 0.30859,-0.855468 0,-0.367188 -0.10547,-0.648438 -0.32031,-0.847657 -0.21484,-0.199218 -0.50781,-0.296875 -0.87891,-0.296875 h -0.5039 v 2.316407 z m -2.394529,-2.328125 c -0.390625,0 -0.6875,0.105468 -0.894531,0.316406 -0.203125,0.210937 -0.308594,0.496094 -0.308594,0.859375 0,0.363281 0.109375,0.648437 0.324219,0.847656 0.210938,0.195313 0.503906,0.296875 0.878906,0.296875 h 0.503907 v -2.320312 z m 1.890629,-1.199219 h 0.54687 c 0.375,0 0.71875,0.05078 1.03125,0.152344 0.3125,0.105468 0.58203,0.253906 0.8086,0.457031 0.22656,0.203125 0.40234,0.449219 0.52734,0.738281 0.125,0.292969 0.1875,0.625 0.1875,0.996094 0,0.378906 -0.0703,0.71875 -0.20703,1.011719 -0.13672,0.296875 -0.32031,0.546875 -0.55469,0.75 -0.23047,0.203125 -0.50391,0.359375 -0.8125,0.464843 -0.3125,0.105469 -0.63672,0.160157 -0.98047,0.160157 h -0.54687 v 0.808593 h -1.386722 v -0.808593 h -0.550782 c -0.371093,0 -0.714843,-0.05078 -1.03125,-0.15625 -0.3125,-0.101563 -0.582031,-0.253907 -0.804687,-0.453125 -0.222656,-0.203125 -0.394531,-0.449219 -0.519531,-0.742188 -0.125,-0.292969 -0.1875,-0.625 -0.1875,-0.996094 0,-0.378906 0.07031,-0.714843 0.207031,-1.011718 0.136719,-0.292969 0.320312,-0.542969 0.550781,-0.75 0.234375,-0.203125 0.503906,-0.359375 0.8125,-0.464844 0.308594,-0.105469 0.632813,-0.15625 0.972656,-0.15625 h 0.550782 v -0.828125 h 1.386722 z m 0,0"
         style="fill:#343434;fill-opacity:1;fill-rule:nonzero;stroke:none;stroke-width:0.39005774" />
      <path
         inkscape:connector-curvature="0"
         id="path5474"
         d="m 107.57813,39.027344 c -0.23829,0.105469 -0.44141,0.246094 -0.60547,0.425781 -0.16407,0.183594 -0.28907,0.390625 -0.375,0.636719 -0.0859,0.238281 -0.12891,0.5 -0.12891,0.78125 0,0.277344 0.043,0.539062 0.12891,0.785156 0.0859,0.246094 0.21484,0.457031 0.38281,0.636719 0.16797,0.179687 0.36719,0.324219 0.60547,0.425781 0.23437,0.101563 0.5,0.152344 0.80078,0.152344 0.30469,0 0.57422,-0.05078 0.8125,-0.15625 0.23828,-0.105469 0.44141,-0.25 0.60547,-0.433594 0.16406,-0.183594 0.28906,-0.394531 0.37109,-0.640625 0.0859,-0.238281 0.12891,-0.496094 0.12891,-0.769531 0,-0.289063 -0.0469,-0.554688 -0.13281,-0.796875 -0.0859,-0.246094 -0.21094,-0.457031 -0.375,-0.636719 -0.16407,-0.183594 -0.36719,-0.320312 -0.60547,-0.421875 -0.23828,-0.09766 -0.50782,-0.148437 -0.80469,-0.148437 -0.30078,0 -0.56641,0.05469 -0.80859,0.160156 m 2.15625,-1.160156 c 0.41015,0.164062 0.76171,0.390625 1.04687,0.683593 0.28906,0.292969 0.51563,0.636719 0.67578,1.027344 0.16406,0.394531 0.24219,0.824219 0.24219,1.292969 0,0.445312 -0.0781,0.867187 -0.24219,1.261719 -0.16015,0.394531 -0.38672,0.738281 -0.67969,1.03125 -0.28906,0.296875 -0.64062,0.527343 -1.04687,0.699218 -0.40625,0.167969 -0.85547,0.253907 -1.34375,0.253907 -0.48438,0 -0.92969,-0.08203 -1.33203,-0.246094 -0.40235,-0.164063 -0.75391,-0.390625 -1.04688,-0.683594 -0.29687,-0.292969 -0.52343,-0.636719 -0.68359,-1.03125 -0.16406,-0.398437 -0.24609,-0.828125 -0.24609,-1.285156 0,-0.449219 0.082,-0.871094 0.24609,-1.269531 0.16016,-0.394532 0.38672,-0.742188 0.68359,-1.03125 0.29297,-0.292969 0.64453,-0.523438 1.04688,-0.695313 0.40234,-0.171875 0.84765,-0.253906 1.33203,-0.253906 0.48828,0 0.9375,0.08203 1.34766,0.246094"
         style="fill:#343434;fill-opacity:1;fill-rule:nonzero;stroke:none;stroke-width:0.39005774" />
      <path
         inkscape:connector-curvature="0"
         id="path5476"
         d="m 114.50391,40.191406 h 2.73047 V 37.75 h 1.40625 v 6.238281 h -1.40625 v -2.503906 h -2.73047 v 2.503906 h -1.40625 V 37.75 h 1.40625 z m 0,0"
         style="fill:#343434;fill-opacity:1;fill-rule:nonzero;stroke:none;stroke-width:0.39005774" />
      <path
         inkscape:connector-curvature="0"
         id="path5478"
         d="m 122.59375,41.261719 c -0.10156,0.625 -0.24609,1.117187 -0.42578,1.46875 h 2.53125 v -3.734375 h -1.9375 c -0.004,0.882812 -0.0625,1.636719 -0.16797,2.265625 m 3.50391,1.46875 H 127 v 0.382812 l -0.12109,2.179688 h -1.25782 l -0.0547,-1.304688 h -4.21875 l -0.0742,1.304688 h -1.26563 l -0.0742,-2.171875 v -0.378906 h 0.25782 c 0.13281,0 0.26172,-0.04687 0.39062,-0.140625 0.13281,-0.09375 0.24219,-0.238282 0.32813,-0.4375 0.16797,-0.375 0.28906,-0.855469 0.36328,-1.445313 0.0742,-0.589844 0.10937,-1.238281 0.10937,-1.953125 V 37.75 h 4.71485 z m 0,0"
         style="fill:#343434;fill-opacity:1;fill-rule:nonzero;stroke:none;stroke-width:0.39005774" />
      <path
         inkscape:connector-curvature="0"
         id="path5480"
         d="m 102.10938,55.167969 h -1.40625 v -4.945313 h -2.644536 v 4.945313 h -1.40625 v -6.238281 h 5.457036 z m 0,0"
         style="fill:#343434;fill-opacity:1;fill-rule:nonzero;stroke:none;stroke-width:0.39005774" />
      <path
         inkscape:connector-curvature="0"
         id="path5482"
         d="m 106.49609,52.226563 c 0.375,0 0.66407,-0.09375 0.875,-0.28125 0.21094,-0.183594 0.31641,-0.4375 0.31641,-0.753907 0,-0.308593 -0.0937,-0.554687 -0.28125,-0.738281 -0.19141,-0.183594 -0.47266,-0.277344 -0.85156,-0.277344 h -1.32422 v 2.050782 z M 107.625,49.09375 c 0.30469,0.105469 0.56641,0.257813 0.78516,0.453125 0.22265,0.195313 0.39062,0.433594 0.50781,0.707031 0.11719,0.277344 0.17578,0.585938 0.17578,0.929688 0,0.359375 -0.0664,0.679687 -0.19922,0.960937 -0.13281,0.285157 -0.3164,0.523438 -0.55078,0.71875 -0.23047,0.195313 -0.50391,0.34375 -0.82422,0.445313 -0.3125,0.105469 -0.65625,0.15625 -1.02344,0.15625 h -1.26562 v 1.703125 h -1.39453 v -6.238281 h 2.77344 c 0.37109,0 0.71093,0.05469 1.01562,0.164062"
         style="fill:#343434;fill-opacity:1;fill-rule:nonzero;stroke:none;stroke-width:0.39005774" />
      <path
         inkscape:connector-curvature="0"
         id="path5484"
         d="m 115.07031,50.1875 h -3.28515 v 1.171875 h 2.93359 v 1.21875 h -2.93359 v 1.332031 h 3.44531 v 1.257813 h -4.82422 v -6.238281 h 4.66406 z m 0,0"
         style="fill:#343434;fill-opacity:1;fill-rule:nonzero;stroke:none;stroke-width:0.39005774" />
      <path
         inkscape:connector-curvature="0"
         id="path5486"
         d="m 119.91016,51.199219 c 0.125,-0.101563 0.1875,-0.25 0.1875,-0.433594 0,-0.238281 -0.082,-0.414062 -0.2461,-0.535156 -0.16406,-0.121094 -0.43359,-0.183594 -0.80468,-0.183594 -0.58594,0 -1.12891,0.195313 -1.64063,0.585938 l -0.72656,-0.960938 c 0.34765,-0.296875 0.72265,-0.515625 1.125,-0.660156 0.39844,-0.140625 0.83984,-0.214844 1.32422,-0.214844 0.375,0 0.70703,0.04687 0.99609,0.132813 0.29297,0.08594 0.53906,0.207031 0.74609,0.363281 0.20313,0.15625 0.36329,0.339844 0.46875,0.554687 0.10938,0.214844 0.16407,0.449219 0.16407,0.710938 0,0.265625 -0.0547,0.507812 -0.16407,0.722656 -0.10546,0.214844 -0.26953,0.382813 -0.48828,0.507813 v 0.08203 c 0.29688,0.101562 0.53125,0.269531 0.69922,0.507812 0.16797,0.238282 0.25,0.53125 0.25,0.878907 0,0.292968 -0.0547,0.5625 -0.17187,0.8125 -0.11328,0.246093 -0.28516,0.460937 -0.51172,0.640625 -0.22656,0.179687 -0.50781,0.324218 -0.84766,0.429687 -0.33984,0.105469 -0.73437,0.15625 -1.1875,0.15625 -0.27344,0 -0.53125,-0.01563 -0.76953,-0.05078 -0.24219,-0.03516 -0.47266,-0.08594 -0.69141,-0.164063 -0.21484,-0.07422 -0.42578,-0.167968 -0.625,-0.28125 -0.19921,-0.117187 -0.39453,-0.257812 -0.58593,-0.425781 l 0.73828,-1.023437 c 0.32031,0.253906 0.64062,0.433593 0.96094,0.539062 0.32031,0.105469 0.67578,0.160156 1.0664,0.160156 0.41016,0 0.71485,-0.07813 0.91797,-0.226562 0.19922,-0.152344 0.30078,-0.355469 0.30078,-0.601563 0,-0.4375 -0.28125,-0.652343 -0.84765,-0.652343 h -1.57422 v -1.210938 h 1.42578 c 0.21875,0 0.39062,-0.05078 0.51172,-0.160156"
         style="fill:#343434;fill-opacity:1;fill-rule:nonzero;stroke:none;stroke-width:0.39005774" />
      <path
         inkscape:connector-curvature="0"
         id="path5488"
         d="m 124.57422,53.082031 3.01562,-4.152343 h 1.23047 v 6.238281 h -1.39062 v -3.921875 l -2.86719,3.921875 h -1.36719 v -6.238281 h 1.37891 z m 0,0"
         style="fill:#343434;fill-opacity:1;fill-rule:nonzero;stroke:none;stroke-width:0.39005774" />
      <path
         inkscape:connector-curvature="0"
         id="path5490"
         d="m 132.77734,52.441406 c -0.10547,0.625 -0.25,1.117188 -0.42968,1.46875 h 2.53125 v -3.734375 h -1.9336 c -0.008,0.882813 -0.0664,1.636719 -0.16797,2.265625 m 3.5,1.46875 h 0.90235 v 0.382813 l -0.1211,2.179687 h -1.25781 l -0.0547,-1.304687 h -4.21875 l -0.0742,1.304687 h -1.26562 l -0.0742,-2.171875 v -0.378906 h 0.26172 c 0.12891,0 0.25781,-0.04687 0.39062,-0.140625 0.12891,-0.09375 0.23829,-0.238281 0.32422,-0.4375 0.16797,-0.375 0.28907,-0.855469 0.36328,-1.445312 0.0742,-0.589844 0.11329,-1.238282 0.11329,-1.953125 v -1.015625 h 4.71093 z m 0,0"
         style="fill:#343434;fill-opacity:1;fill-rule:nonzero;stroke:none;stroke-width:0.39005774" />
      <path
         inkscape:connector-curvature="0"
         id="path5492"
         d="m 143.16406,50.1875 h -3.28515 v 1.171875 h 2.93359 v 1.21875 h -2.93359 v 1.332031 h 3.44531 v 1.257813 H 138.5 v -6.238281 h 4.66406 z m 0,0"
         style="fill:#343434;fill-opacity:1;fill-rule:nonzero;stroke:none;stroke-width:0.39005774" />
      <path
         inkscape:connector-curvature="0"
         id="path5494"
         d="m 146.21875,51.367188 h 2.72656 v -2.4375 h 1.40625 v 6.238281 h -1.40625 v -2.503906 h -2.72656 v 2.503906 h -1.40625 v -6.238281 h 1.40625 z m 0,0"
         style="fill:#343434;fill-opacity:1;fill-rule:nonzero;stroke:none;stroke-width:0.39005774" />
      <path
         inkscape:connector-curvature="0"
         id="path5496"
         d="m 157.29297,50.195313 h -2.13281 v 4.972656 h -1.38672 v -4.972656 h -2.13282 v -1.265625 h 5.65235 z m 0,0"
         style="fill:#343434;fill-opacity:1;fill-rule:nonzero;stroke:none;stroke-width:0.39005774" />
      <path
         inkscape:connector-curvature="0"
         id="path5498"
         d="m 162.53906,50.230469 c -0.28125,-0.105469 -0.59765,-0.15625 -0.94531,-0.15625 -0.30469,0 -0.57813,0.04687 -0.82422,0.144531 -0.24609,0.09766 -0.45703,0.234375 -0.62891,0.410156 -0.17187,0.175782 -0.30468,0.386719 -0.40234,0.628907 -0.0898,0.242187 -0.13672,0.503906 -0.13672,0.789062 0,0.300781 0.0469,0.570313 0.14453,0.8125 0.0937,0.242188 0.23047,0.449219 0.40235,0.621094 0.17578,0.167969 0.38281,0.300781 0.625,0.398437 0.24218,0.09375 0.50781,0.144532 0.80078,0.144532 0.35547,0 0.68359,-0.0625 0.99219,-0.183594 0.30859,-0.121094 0.58203,-0.292969 0.82421,-0.527344 l 0.79297,0.980469 c -0.70703,0.671875 -1.60156,1.003906 -2.68359,1.003906 -0.48438,0 -0.92969,-0.07422 -1.33203,-0.226562 -0.40235,-0.152344 -0.75,-0.371094 -1.03516,-0.652344 -0.28906,-0.28125 -0.51562,-0.621094 -0.67578,-1.019531 -0.16406,-0.398438 -0.24219,-0.839844 -0.24219,-1.332032 0,-0.445312 0.0781,-0.867187 0.23438,-1.265625 0.16015,-0.398437 0.39062,-0.746093 0.6875,-1.042968 0.29687,-0.296875 0.65625,-0.53125 1.07812,-0.703125 0.42188,-0.171875 0.89844,-0.253907 1.4336,-0.253907 0.48437,0 0.92968,0.07031 1.33203,0.214844 0.40234,0.148438 0.76172,0.359375 1.07812,0.640625 l -0.76953,1.015625 c -0.21875,-0.191406 -0.46875,-0.339844 -0.75,-0.441406"
         style="fill:#343434;fill-opacity:1;fill-rule:nonzero;stroke:none;stroke-width:0.39005774" />
      <path
         inkscape:connector-curvature="0"
         id="path5500"
         d="m 166.85156,51.304688 0.67969,-0.07422 1.76172,-2.300781 h 1.72265 l -2.3164,2.914062 2.53906,3.324219 h -1.79687 l -1.89844,-2.664063 h -0.69141 v 2.664063 h -1.3789 v -6.238281 h 1.3789 z m 0,0"
         style="fill:#343434;fill-opacity:1;fill-rule:nonzero;stroke:none;stroke-width:0.39005774" />
      <path
         inkscape:connector-curvature="0"
         id="path5502"
         d="m 173.88672,53.082031 3.01562,-4.152343 h 1.23047 v 6.238281 h -1.38672 v -3.921875 l -2.86718,3.921875 h -1.3711 v -6.238281 h 1.37891 z m 0,0"
         style="fill:#343434;fill-opacity:1;fill-rule:nonzero;stroke:none;stroke-width:0.39005774" />
      <path
         inkscape:connector-curvature="0"
         id="path5504"
         d="m 182.59375,51.15625 h 0.0977 l 1.23437,-2.226562 h 1.72656 l -1.99609,3.074218 2.1875,3.164063 h -1.80469 l -1.39453,-2.402344 h -0.0937 l -1.37891,2.402344 H 179.375 l 2.1875,-3.242188 -1.99219,-2.996093 h 1.74219 z m 0,0"
         style="fill:#343434;fill-opacity:1;fill-rule:nonzero;stroke:none;stroke-width:0.39005774" />
      <path
         inkscape:connector-curvature="0"
         id="path5506"
         d="m 101.375,61.375 h -3.324219 v 4.972656 H 96.652344 V 60.109375 H 101.375 Z m 0,0"
         style="fill:#343434;fill-opacity:1;fill-rule:nonzero;stroke:none;stroke-width:0.39005774" />
      <path
         inkscape:connector-curvature="0"
         id="path5508"
         d="m 105.29688,63.40625 c 0.37109,0 0.66406,-0.09375 0.875,-0.28125 0.21093,-0.1875 0.3164,-0.4375 0.3164,-0.753906 0,-0.308594 -0.0937,-0.558594 -0.28125,-0.738281 -0.1914,-0.183594 -0.47656,-0.277344 -0.85547,-0.277344 h -1.32031 v 2.050781 z m 1.125,-3.136719 c 0.30468,0.109375 0.57031,0.261719 0.78906,0.457032 0.21875,0.195312 0.39062,0.433593 0.50781,0.710937 0.11719,0.273438 0.17578,0.582031 0.17578,0.925781 0,0.359375 -0.0664,0.679688 -0.19922,0.960938 -0.13281,0.285156 -0.3164,0.523437 -0.55078,0.71875 -0.23047,0.195312 -0.50781,0.34375 -0.82422,0.445312 -0.3164,0.105469 -0.65625,0.15625 -1.02343,0.15625 h -1.26563 v 1.703125 h -1.39844 v -6.238281 h 2.77735 c 0.37109,0 0.71093,0.05469 1.01172,0.160156"
         style="fill:#343434;fill-opacity:1;fill-rule:nonzero;stroke:none;stroke-width:0.39005774" />
      <path
         inkscape:connector-curvature="0"
         id="path5510"
         d="m 112.53516,63.878906 -0.82813,-2.375 h -0.0937 l -0.83984,2.375 z m 2.47656,2.46875 h -1.54688 l -0.47265,-1.238281 h -2.67188 l -0.46875,1.238281 h -1.51562 l 2.55859,-6.246093 h 1.53906 z m 0,0"
         style="fill:#343434;fill-opacity:1;fill-rule:nonzero;stroke:none;stroke-width:0.39005774" />
      <path
         inkscape:connector-curvature="0"
         id="path5512"
         d="m 117.6875,62.546875 h 2.73047 v -2.4375 h 1.40234 v 6.238281 h -1.40234 V 63.84375 h -2.73047 v 2.503906 h -1.40625 v -6.238281 h 1.40625 z m 0,0"
         style="fill:#343434;fill-opacity:1;fill-rule:nonzero;stroke:none;stroke-width:0.39005774" />
      <path
         inkscape:connector-curvature="0"
         id="path5514"
         d="m 128.76172,61.375 h -2.13281 v 4.972656 h -1.38672 V 61.375 h -2.13281 v -1.265625 h 5.65234 z m 0,0"
         style="fill:#343434;fill-opacity:1;fill-rule:nonzero;stroke:none;stroke-width:0.39005774" />
      <path
         inkscape:connector-curvature="0"
         id="path5516"
         d="m 132.18359,61.382813 c -0.23828,0.109375 -0.4414,0.25 -0.60547,0.429687 -0.16406,0.179688 -0.28906,0.390625 -0.375,0.632813 -0.0898,0.242187 -0.13281,0.503906 -0.13281,0.78125 0,0.28125 0.043,0.542968 0.13281,0.789062 0.0859,0.242188 0.21094,0.457031 0.37891,0.636719 0.16797,0.179687 0.37109,0.320312 0.60547,0.425781 0.23437,0.09766 0.50391,0.152344 0.80078,0.152344 0.30469,0 0.57813,-0.05469 0.81641,-0.15625 0.23828,-0.109375 0.4414,-0.25 0.60547,-0.4375 0.16406,-0.179688 0.28906,-0.394531 0.37109,-0.636719 0.0859,-0.242187 0.125,-0.5 0.125,-0.773437 0,-0.285157 -0.043,-0.550782 -0.12891,-0.792969 -0.0859,-0.246094 -0.21093,-0.460938 -0.3789,-0.640625 -0.16407,-0.179688 -0.36328,-0.320313 -0.60547,-0.417969 -0.23828,-0.09766 -0.50391,-0.148437 -0.80469,-0.148437 -0.29687,0 -0.56641,0.05469 -0.80469,0.15625 m 2.15625,-1.15625 c 0.41016,0.164062 0.75782,0.390625 1.04688,0.683593 0.28906,0.289063 0.51562,0.632813 0.67578,1.027344 0.16016,0.394531 0.24219,0.824219 0.24219,1.289063 0,0.449218 -0.082,0.867187 -0.24219,1.261718 -0.16016,0.394532 -0.39063,0.738282 -0.67969,1.035157 -0.29297,0.292968 -0.64062,0.527343 -1.05078,0.699218 -0.40625,0.167969 -0.85156,0.253907 -1.34375,0.253907 -0.48437,0 -0.92578,-0.08203 -1.33203,-0.246094 -0.40234,-0.164063 -0.75,-0.394531 -1.04688,-0.683594 -0.29296,-0.292969 -0.52343,-0.636719 -0.68359,-1.035156 -0.16016,-0.394531 -0.24219,-0.824219 -0.24219,-1.285156 0,-0.445313 0.082,-0.867188 0.24219,-1.265625 0.16016,-0.398438 0.39063,-0.742188 0.68359,-1.035157 0.29688,-0.289062 0.64454,-0.519531 1.04688,-0.691406 0.40625,-0.171875 0.84766,-0.257812 1.33203,-0.257812 0.49219,0 0.94141,0.08203 1.35156,0.25"
         style="fill:#343434;fill-opacity:1;fill-rule:nonzero;stroke:none;stroke-width:0.39005774" />
      <path
         inkscape:connector-curvature="0"
         id="path5518"
         d="m 140.73828,65.15625 c 0.61328,0 0.92188,-0.246094 0.92188,-0.734375 0,-0.238281 -0.082,-0.414062 -0.24219,-0.539062 -0.16016,-0.121094 -0.39063,-0.179688 -0.69141,-0.179688 h -1.63672 v 1.453125 z m -0.22266,-2.589844 c 0.23438,0 0.41797,-0.05859 0.55079,-0.171875 0.13671,-0.113281 0.20312,-0.273437 0.20312,-0.46875 0,-0.417968 -0.26562,-0.625 -0.80078,-0.625 h -1.37891 v 1.265625 z m 1.54688,-2 c 0.37891,0.300782 0.56641,0.71875 0.56641,1.246094 0,0.261719 -0.0547,0.492188 -0.16407,0.699219 -0.10937,0.203125 -0.2539,0.355469 -0.4414,0.457031 v 0.08203 c 0.30468,0.101563 0.54687,0.277344 0.73047,0.535157 0.18359,0.257812 0.27343,0.558593 0.27343,0.898437 0,0.253906 -0.043,0.496094 -0.13672,0.722656 -0.0898,0.226563 -0.22656,0.421875 -0.41796,0.589844 -0.1875,0.167969 -0.42969,0.300781 -0.71875,0.402344 -0.29297,0.09766 -0.63672,0.148437 -1.03516,0.148437 h -3.01563 v -6.238281 h 2.75391 c 0.69531,0 1.23047,0.152344 1.60547,0.457031"
         style="fill:#343434;fill-opacity:1;fill-rule:nonzero;stroke:none;stroke-width:0.39005774" />
    </g>
  </g>
</svg>
